<svg width="1920" height="1080" xmlns="http://www.w3.org/2000/svg" xmlns:xlink="http://www.w3.org/1999/xlink"><defs><clipPath id="a"><path d="M0 485.035h648.988V0H0z"/></clipPath></defs><g transform="matrix(1.3333 0 0 -1.3333 0 646.71)"><g id="b" transform="translate(125.7 -324.97) scale(1.8315)" clip-path="url(#a)" fill="#302e30"><path d="M0 0a2.555 2.555 0 002.553 2.555v-.002h.005v.002A2.56 2.56 0 005.112.002H5.11v-.004h.002a2.541 2.541 0 00-.748-1.806 2.549 2.549 0 00-1.803-.75v.003h-.006v-.003c-.704 0-1.343.287-1.805.749A2.55 2.55 0 000-.005h.003V0zm-58.822-221.64l-2.751 2.751v81.44l2.751 2.752 6.711 6.711 10.259 10.26 8.039 8.037.187.189v64.724l-.187.186-8.039 8.04-1.803 1.804v14.59l1.803 1.804 1.492 1.491h27.095l.186.187L.532-3.063a3.673 3.673 0 012.023-.605v-.003h.006v.003a3.648 3.648 0 012.59 1.072A3.666 3.666 0 016.229.003h.001v.004h-.001a3.66 3.66 0 01-1.442 2.914 3.662 3.662 0 01-2.229.755v.002h-.005v-.002A3.651 3.651 0 01-.038 2.603 3.66 3.66 0 01-1.116.005h-.002V0h.002c0-.819.267-1.575.721-2.185l-13.401-13.399h-27.095l-.186-.188-.775-.775-2.892-2.893-.187-.185v-15.649l.187-.188 2.892-2.893 6.95-6.951v-63.665l-27.762-27.762-.186-.185v-82.5l.186-.188 3.842-3.841.538-.538-.063-6.253-.475-.474-3.982-3.982-.187-.185v-15.962l-.674-.499-1.23-.911v116.98l1.23 1.229 4.843 4.843 6.711 6.712 14.838 14.838.185.187v59.912l-.185.187-4.579 4.579-5.335 5.334v20.136l4.054 4.049h26.279l.186.187L-2.773.817v4.927a3.452 3.452 0 11-1.276-.001V1.347l-13.335-13.335h-26.273l-4.615-4.615-.19-.187v-21.189l.187-.188 6.423-6.424 3.489-3.488v-58.855l-3.489-3.487-10.259-10.26-6.711-6.712-4.843-4.842-2.319-2.319-.187-.188v-120.04l1.018.754 1.488 1.103 1.692 1.251.258.193v16.069l2.893 2.893 1.56 1.559.182.182.002.264.068 6.786.003.27-.186.187z" transform="translate(437.55 318.53)"/><path d="M0 0c0 .773.317 1.477.826 1.984a2.808 2.808 0 001.977.825v-.003h.017v.003a2.813 2.813 0 001.986-.828l.001.001A2.807 2.807 0 005.63.006h-.002V-.01h.002c0-.776-.317-1.479-.825-1.987h-.003a2.806 2.806 0 00-1.976-.826v.003h-.017v-.003a2.81 2.81 0 00-1.985.826A2.81 2.81 0 000-.016h.002V0zm-.771-1.969a4.094 4.094 0 012.52-1.987v-4.078l.188-.187.878-.88.009-.008 3.28-3.282 3.327-3.326.031-27.854-3.358-3.358-1.367-1.368-.187-.187v-41.503l-5.321-5.321-.479-.481-6.474-6.472-.021-.022-.165-.165v-10.684l.165-.164.021-.023 2.587-2.586a3.418 3.418 0 01-.6-1.945 3.45 3.45 0 111.503 2.847l-2.4 2.4v9.625l5.294 5.294.569.57 3.586 3.586 2.825 2.824.186.188v41.502l.278.279 3.89 3.889.556.557.08.081.105.104v.266l-.032 28.388v.268l-.073.071-.111.112-.525.524-3.89 3.891-3.079 3.079v3.415A4.084 4.084 0 015.706-2.9l-.002.002A4.073 4.073 0 016.902-.01h.003v.016h-.003A4.06 4.06 0 015.709 2.88v.004A4.084 4.084 0 012.82 4.081v.002h-.017v-.002A4.073 4.073 0 01-.071 2.887 4.086 4.086 0 01-1.272 0h-.002v-.016h.002a4.095 4.095 0 01.501-1.953" transform="translate(301.26 432.49)"/><path d="M0 0c.001.484.125.941.343 1.339l.304.303-.064.064c.075.098.159.192.245.279l-.001.001a2.797 2.797 0 001.976.823v-.001h.016v.001c.774 0 1.477-.318 1.987-.827l.001.001A2.802 2.802 0 005.63.006h-.002V-.01h.002a2.816 2.816 0 00-2.805-2.811v.003h-.016v-.003A2.816 2.816 0 000-.017h.003V0zm-24.082 110.24v-2.897l.192-.189.004-.004 3.186-3.136 2.695-2.654 5.936-5.843v-6.175l.189-.19 4.112-4.111 1.372-1.371V69.534l.176-.186 2.061-2.158 2.951-3.091V43.357l-16.766-16.766-.031-.03-.155-.157v-12.34l.186-.186L-7.768 3.673l3.609-3.61 2.22-2.219v-5.288l4.755-4.755 3.585-3.586 1.73-1.729v-21.218l.184-.184 1.376-1.377 3.89-3.888.636-.637.294-.295.397-.396v-26.65l-.397-.395-.294-.295-7.816-7.816-.438-.437-.187-.188v-25.227l-2.96-2.959-5.727-5.727v54.424l-.186.187-1.062 1.063-3.609 3.608-10.087 10.087V9.509l-.001.264-.149.149-.037.038-2.658 2.658-9.323 9.324v5.093a3.453 3.453 0 01-.639 6.844 3.453 3.453 0 01-.638-6.845v-5.622l12.168-12.168v-55.607l.187-.186 14.759-14.759v-55.436l-.002-1.54.029.028 1.062 1.061 5.913 5.912 4.236 4.236v25.227l2.639 2.64 3.89 3.888.636.638.294.294 1.217 1.215.457.457v27.71l-.187.185-.27.27-1.217 1.216-.93.93-3.89 3.891-.288.289v21.217l-.186.184-2.816 2.816-3.585 3.587-3.48 3.48v4.752c.168-.269.366-.515.587-.737a4.07 4.07 0 012.886-1.199V-4.1h.016v.003a4.076 4.076 0 013.576 2.124 4.07 4.07 0 01.502 1.958h.002v.016h-.002a4.072 4.072 0 01-1.194 2.875v.003a4.08 4.08 0 01-2.89 1.197v.002h-.016v-.002A4.073 4.073 0 01-.072 2.883h-.003a4.362 4.362 0 01-.25-.275l-11.856 11.856v11.218l4.413 4.412 3.609 3.609 1.405 1.406 5.57 5.569L4.938 42.8l.186.187V78.82l1.277 1.278 3.29 3.289.502.504.188.187v28.258l-.188.186-.502.503-3.29 3.289-3.585 3.587-6.975 6.975-3.609 3.61-1.404 1.404a3.449 3.449 0 01-2.402 5.929 3.45 3.45 0 010-6.901c.465 0 .907.091 1.312.257l2.494-2.495 3.609-3.609 6.975-6.976 3.585-3.586 2.703-2.702V84.606l-2.703-2.702-2.366-2.367-.186-.188V43.516l-1.033-1.032-5.715-5.714-1.26-1.262-3.609-3.608-5.502-5.5-.184-.184V13.931l.184-.186 5.502-5.499 3.609-3.609 3.164-3.165a4.107 4.107 0 01-.276-1.477h-.002v-.017h.002a4.09 4.09 0 01.17-1.166l-3.058 3.057-12.725 12.725v11.281l9.116 9.117 3.609 3.608 4.04 4.041.186.187v21.777l-.176.186-4.05 4.241-.962 1.006v14.157l-2.647 2.647-3.025 3.024v6.182l-.192.188-7.02 6.91-2.695 2.654-2.105 2.072v2.369a3.454 3.454 0 012.815 3.394c0 .787-.264 1.513-.71 2.094a3.452 3.452 0 11-3.382-5.489" transform="translate(297.67 304.44)"/><path d="M0 0l4.067-4.068V-24.03l.187-.187 1.724-1.725.638-.637 4.092-4.095v-4.249a3.452 3.452 0 01.638-6.843 3.451 3.451 0 01.638 6.843v4.773l-.187.187-1.252 1.253-3.929 3.932-.638.636-.635.636v19.967l-.187.187L0 1.806l-.745.744v24.166l3.393 3.147a3.447 3.447 0 012.056-.677 3.434 3.434 0 011.912.577 3.452 3.452 0 11-4.833 1.034L0 29.143l-1.817-1.685-.204-.189V2.021l.185-.187z" transform="translate(316.26 394.54)"/><path d="M0 0l-5.727 5.728v76.874L0 88.328l10.26 10.26 11.497 11.495.183.185v74.449l12.654 12.653h8.819l.188.187 10.484 10.485h7.741l.188.186 3.82 3.82 2.272 2.273.185.185v14.129l-.185.183-2.272 2.273-2.66 2.66v2.582a3.46 3.46 0 012.66 2.369 3.472 3.472 0 010 2.048 3.451 3.451 0 11-3.936-4.417v-3.112l.145-.144.042-.043 3.749-3.748 1.186-1.186v-13.06l-1.186-1.187-4.537-4.536h-7.741l-.187-.186-10.485-10.485h-8.821l-13.394-13.394v-74.45L10.26 100.393 0 90.135l-6.711-6.712-.105-.106-.187-.186V5.198l.187-.186.105-.106L0-1.806l2.403-2.402v-6.818L0-13.428l-4.326-4.327-.187-.187v-61.964l.187-.188L0-84.419l.47-.47V-97.23h1.271v12.876l-.185.184L0-82.613l-3.236 3.236v60.905L0-15.234l3.492 3.493.188.185v7.877l-.188.187z" transform="translate(385.44 97.23)"/><path d="M0 0a3.452 3.452 0 111.949-6.301l2.193-2.194v-27.742l-3.024-3.024a3.454 3.454 0 01-5.331-3.519 3.454 3.454 0 013.385-2.783 3.452 3.452 0 012.849 5.399l3.21 3.211.188.184v28.805l-.188.185L2.85-5.397c.38.554.604 1.225.604 1.946A3.453 3.453 0 010 0" transform="translate(389.65 266.04)"/><path d="M0 0a2.808 2.808 0 00-.829-1.986l.003-.001a2.817 2.817 0 00-1.981-.825v.003h-.015v-.003a2.8 2.8 0 00-1.983.827 2.818 2.818 0 00-.826 1.98h.003v.016h-.003a2.818 2.818 0 002.803 2.808v-.001h.016v.001c.774 0 1.479-.315 1.987-.824v-.003A2.797 2.797 0 000 .018h-.001V0zm-39.754 122.4a3.45 3.45 0 013.392 2.813h3.716l9.003-9.002 7.676-7.674 4.934-4.934v-46.65l.185-.186 5.338-5.339 2.695-2.696 5.703-5.702V6.07L-.113 3.069A4.081 4.081 0 01-2.812 4.09v.002h-.016V4.09a4.074 4.074 0 01-2.874-1.194 4.074 4.074 0 01-1.2-2.887h-.002v-.016h.002A4.071 4.071 0 01-5.51-3.069a4.065 4.065 0 012.688-1.015v-.003h.015v.003A4.07 4.07 0 01.071-2.891h.003A4.078 4.078 0 011.272-.002h.002v.018h-.002a4.093 4.093 0 01-.566 2.066l3.271 3.271.187.188V43.56L-9.761 57.485v46.385l-.001.268-.184.184-13.697 13.695-8.473 8.473h-4.246a3.453 3.453 0 01-6.843-.638 3.452 3.452 0 013.451-3.452" transform="translate(282.48 200.36)"/><path d="M0 0h.005v.002a2.81 2.81 0 001.986-.828l.002.002c.36-.362.625-.822.748-1.336.049-.206.073-.421.075-.641h-.002v-.016h.002c0-.223-.026-.441-.075-.649A2.818 2.818 0 00.01-5.628v.002h-.016v-.002a2.804 2.804 0 00-1.983.826 2.803 2.803 0 00-.825 1.979h.002v.016h-.002c.001.772.318 1.475.828 1.984l-.002.002A2.821 2.821 0 00-.011.002V0zm-31.933 19.727a3.45 3.45 0 01.913-.122c.697 0 1.344.206 1.886.56l4.238-4.438.188-.198h14.507l9.332-9.771.41-.429V1.248A4.07 4.07 0 01-2.886.081h-.003a4.089 4.089 0 01-1.198-2.888h-.001v-.016h.001A4.08 4.08 0 01-2.892-5.7 4.075 4.075 0 01-.006-6.9v-.002H.01v.002a4.082 4.082 0 014.077 4.083h.003v.016h-.003A4.069 4.069 0 012.894.075v.002A4.096 4.096 0 01.817 1.191v4.391l-.001.253-.176.186L-.869 7.6l-8.599 9.004-.189.197h-14.507l-.093.097-3.958 4.146a3.453 3.453 0 01-3.718 5.341 3.453 3.453 0 010-6.658" transform="translate(290.77 360.16)"/><path d="M0 0a2.815 2.815 0 00-.728-1.252l.001-.002a2.806 2.806 0 00-1.979-.823v.002h-.015v-.002A2.801 2.801 0 00-5.074-.798c-.287.44-.455.965-.457 1.526h.003v.017h-.003a2.801 2.801 0 00.826 1.982 2.803 2.803 0 001.978.826v-.002h.015v.002c.17 0 .336-.016.498-.044a2.83 2.83 0 002.26-2.234h-.1V0zm-1.058 32.884a2.8 2.8 0 00-.755-1.911l-.07-.076-.059-.057a3.294 3.294 0 00-.272-.229 2.813 2.813 0 00-1.649-.538v.003h-.017v-.003a2.796 2.796 0 00-1.983.825 2.953 2.953 0 00-.428.547 2.896 2.896 0 00-.294.685c-.065.238-.103.49-.103.748h.002v.016h-.002c0 .26.037.511.103.752.069.242.168.472.294.684a2.86 2.86 0 001.217 1.103c.363.172.765.269 1.189.27v-.002h.016v.002a2.816 2.816 0 002.811-2.804h-.002v-.015zm5.459-137.94l-.447.446v76.626l.447.446 8.642 8.643.187.188V-3.89l-.187.187L4.401 4.94l-.638.636-.977.978v21.03l-.222.193-3.089 2.77c.464.662.738 1.471.74 2.341h.002v.015H.215a4.08 4.08 0 01-4.084 4.076v.003h-.016v-.003a4.064 4.064 0 01-2.7-1.03 4.206 4.206 0 01-.636-.715 4.057 4.057 0 01-.739-2.336h-.002v-.016h.002a4.074 4.074 0 011.669-3.286 4.12 4.12 0 011.217-.612c.379-.117.78-.179 1.194-.179v-.002h.017v.002a4.091 4.091 0 012.453.825l2.919-2.623V6.025l.188-.187 2.066-2.067.638-.637 7.553-7.553v-13.76l-7.553-7.553-.638-.637-.895-.898-.185-.183v-77.694l.185-.185.895-.896 9.435-9.435v-122.63l-2.876-2.876v126.17l-.187.188-9.498 9.498v77.047l3.126 3.126.638.636 5.183 5.186.187.187v14.399l-.187.186L4.401.641l-.448.447-.187.186H1.335a4.072 4.072 0 01-4.047 3.549v.003h-.015v-.003A4.063 4.063 0 01-5.602 3.63a4.13 4.13 0 01-.689-.911 4.436 4.436 0 01-.294-.663A4.125 4.125 0 01-6.803.744h-.001V.727h.001c.002-.458.079-.9.218-1.311.08-.23.178-.452.294-.662a4.147 4.147 0 011.217-1.357 4.08 4.08 0 012.353-.748v-.002h.015v.002A4.08 4.08 0 01.172-2.157h.004c.573.574.976 1.32 1.128 2.156h1.933l.526-.527.638-.637 4.094-4.094v-13.34l-4.094-4.095-.638-.637-4.402-4.402v-78.106l.187-.187 4.215-4.217.638-.636 4.644-4.645v-128.72l1.09 1.09L14.287-239l.188.187v123.68l-.188.186z" transform="translate(318.48 286.38)"/><path d="M0 0a2.793 2.793 0 00.824-1.977H.823v-.016h.001c0-.776-.315-1.48-.824-1.986a2.807 2.807 0 00-1.979-.826v.002h-.017v-.002a2.796 2.796 0 00-1.983.826 2.81 2.81 0 00-.826 1.98h.002v.017h-.002A2.81 2.81 0 00-3.977.002l-.002.001c.509.506 1.208.82 1.977.823V.823h.017v.003C-1.211.826-.507.509 0 0m73.253 34.719a3.45 3.45 0 01-3.391-2.811h-5.745l-8.129 8.129-.188.187H27.54l-.186-.187-7.853-7.852H9.082l-.186-.187-10.885-10.887-.474-.474-.188-.187V2.048A4.085 4.085 0 01-4.877.904h-.003a4.075 4.075 0 01-1.196-2.886h-.003v-.017h.003a4.07 4.07 0 011.193-2.877 4.072 4.072 0 012.887-1.2v-.002h.017v.002A4.064 4.064 0 01.896-4.883a4.072 4.072 0 011.201 2.89H2.1v.016h-.003A4.062 4.062 0 01.904.897a4.107 4.107 0 01-2.279 1.157v17.867L9.613 30.909H20.03l.188.186 7.851 7.853h27.202l5.428-5.427 2.702-2.703.188-.186h6.274a3.454 3.454 0 013.39-2.816 3.452 3.452 0 110 6.903" transform="translate(397.69 111.08)"/><path d="M0 0l-.187-.187-8.682-8.683h-12.784V5.065l5.763 5.762.186.187v18.448l2.983 2.984 2.803 2.802a3.452 3.452 0 111.949 6.302 3.452 3.452 0 01-2.851-5.399l-1.901-1.899-4.072-4.073-.187-.187V11.543l-5.415-5.414-.347-.347-.188-.187v-15.742h14.59l.187.187L.529-1.276h7.452l.19.189 4.321 4.321a3.44 3.44 0 011.949-.601 3.451 3.451 0 11-2.849 1.502L7.458 0H.265z" transform="translate(480.78 319.02)"/><path d="M0 0a3.452 3.452 0 013.449-3.452 3.452 3.452 0 11-.992 6.757A3.452 3.452 0 010 0" transform="translate(448.82 283.89)"/><path d="M0 0a3.435 3.435 0 01-1.949-.602l-.756.757-.191.192-.267-.005L-6.94.294l-9.874-.126-10.425 10.426v5.417l-.19.187-1.592 1.593-3.12 3.118-.187.187h-9.314a3.455 3.455 0 01-3.393 2.811 3.45 3.45 0 113.393-4.089h8.791l3.83-3.827.505-.505v-5.422L-17.529-.923l.187-.188.271.003 12.433.159 1.222.016.567-.568A3.453 3.453 0 010-6.904a3.453 3.453 0 013.453 3.452A3.454 3.454 0 010 0" transform="translate(512.24 170.69)"/><path d="M0 0c.001.774.317 1.478.825 1.983a2.806 2.806 0 001.978.826v-.002h.015v.002a2.81 2.81 0 001.988-.828A2.807 2.807 0 005.631.005h-.002V-.01h.002a2.813 2.813 0 00-2.807-2.812v.003h-.015v-.003a2.809 2.809 0 00-1.847.694l-.432.474A2.802 2.802 0 000-.017h.002V0zm-27.504-16.735l5.487 5.485 4.529 4.53h13.944l.184.166L.294-3.226a4.086 4.086 0 012.515-.867v-.002h.015v.002a4.081 4.081 0 012.878 1.194c.739.737 1.2 1.76 1.2 2.889h.002v.015h-.002a4.085 4.085 0 01-4.084 4.076v.002h-.015v-.002A4.079 4.079 0 01-.071 2.888 4.072 4.072 0 01-1.271 0h-.002v-.017h.002a4.051 4.051 0 01.697-2.276l-3.46-3.151h-13.985l-.186-.187-3.812-3.813-6.574-6.573-.184-.183v-7.348h1.271z" transform="translate(480.41 310.88)"/><path d="M0 0h-.265l-.186-.187-8.31-8.309-1.107-1.106-.187-.186.003-.266.007-7.226-11.454-11.455-.185-.185v-.267l.007-16.466.001-2.671-2.244-2.179-3.097-3.009-.194-.189v-10.438l-6.383-6.382-5.018-5.019h-5.633a3.45 3.45 0 01-3.394 2.813 3.448 3.448 0 01-3.449-3.449 3.447 3.447 0 013.449-3.451 3.455 3.455 0 013.393 2.816h6.167l.185.184 4.3 4.3 7.472 7.473.187.186v10.433l2.015 1.96 3.324 3.227.193.186v.269l-.003 4.434-.006 14.705 11.455 11.455.184.186v.266l-.007 7.226L.265-1.276h14.072l.181.155 3.92 3.343a3.452 3.452 0 015.622 2.687 3.452 3.452 0 01-6.902 0c0-.625.163-1.213.452-1.72L13.872 0z" transform="translate(491.98 291.02)"/><path d="M0 0a3.452 3.452 0 111.949 6.301A3.451 3.451 0 01-.901.903L-3.365-1.56l-.187-.187v-21.862l.187-.186 1.611-1.612 14.761-14.76v-11.051L-2.864-67.089l-.188-.186v-6.261l-5.619-5.621a3.451 3.451 0 111.506-2.848c0 .725-.226 1.393-.606 1.947l5.808 5.812.188.187v6.253l16.058 16.058v12.111l-.186.186-.828.827L-1.51-23.846l-.765.766v20.804z" transform="translate(346.28 408.95)"/><path d="M0 0h-.004v-.002a2.8 2.8 0 00-1.985.826 2.802 2.802 0 00-.824 1.979h.001v.016h-.001c0 .774.317 1.478.826 1.985a2.799 2.799 0 001.976.824v-.002h.016v.002A2.787 2.787 0 001.992 4.8l.002.003c.506-.508.82-1.208.822-1.978h-.002V2.81h.002A2.8 2.8 0 001.991.823 2.796 2.796 0 00.012-.002V0zm29.59-90.737v51.778l-7.45 7.45-2.695 2.696L8.988-18.356l-2.576 2.575v10.942l2.576 2.575 1.013 1.013.187.188v5.874l-.187.186-1.013 1.012-7.675 7.675-1.028 1.027V37.06l5.509 5.509V20.833l.184-.185 1.756-1.755a3.453 3.453 0 012.849-5.403 3.452 3.452 0 11-1.949 6.302l-1.569 1.569v24.285l-5.752-5.752-2.117-2.118-.186-.188V14.183l.186-.188L8.911 4.28V-.534L5.324-4.123l-.187-.187v-12.002l.187-.186 3.664-3.665 10.457-10.455 2.695-2.697 6.175-6.175v-50.723l-1.686-1.684v51.033l-.185.183-4.304 4.305-2.695 2.696L8.988-23.224l-7.675 7.676-.255.255v14.16a4.06 4.06 0 011.83 1.054 4.073 4.073 0 011.2 2.889h.002v.015h-.002A4.078 4.078 0 012.896 5.7v.004a4.112 4.112 0 01-1.583.982c-.41.137-.85.214-1.308.214v.003h-.016V6.9a4.08 4.08 0 01-2.874-1.193 4.08 4.08 0 01-1.2-2.888h-.003v-.016h.003A4.07 4.07 0 01-2.892-.073 4.072 4.072 0 01-.218-1.267v-14.554l.187-.188 1.344-1.345 24.044-24.044v-53.571l1.085 1.083 2.959 2.959z" transform="translate(257.53 223.27)"/><path d="M0 0c.001.772.319 1.475.828 1.984l-.002.002c.228.228.494.415.789.555.362.171.765.268 1.189.268v-.001h.015v.001c.776 0 1.48-.316 1.987-.825A2.809 2.809 0 005.631.006h-.003V-.01h.003a2.81 2.81 0 00-.826-1.987 2.808 2.808 0 00-1.98-.824v.001H2.81v-.001a2.8 2.8 0 00-1.193.263l.019.019-.021.021-.427.431-.449.451-.127-.126A2.813 2.813 0 000-.016h.002V0zm-26.831-26.158a3.452 3.452 0 013.453 3.452 3.457 3.457 0 01-2.814 3.391v2.357l9.728 9.729h13.407l.187.187 2.161 2.16L.68-3.495c.29-.178.604-.32.935-.422.378-.114.78-.176 1.195-.176v-.002h.015v.002a4.077 4.077 0 012.878 1.194 4.079 4.079 0 011.2 2.889h.002v.016h-.002a4.086 4.086 0 01-1.194 2.875 4.084 4.084 0 01-2.89 1.201v.002h-.015v-.002A4.083 4.083 0 01-.071 2.888h-.004A4.081 4.081 0 01-1.271 0h-.002v-.016h.002A4.073 4.073 0 01-.29-2.665l-.419-.418-1.788-1.788-1.084-1.082h-13.412l-.187-.186-10.102-10.103-.188-.186v-2.887a3.45 3.45 0 01-2.81-3.391 3.45 3.45 0 013.449-3.452" transform="translate(364.26 426.57)"/><path d="M0 0l3.521 3.519.186.186v2.861A3.454 3.454 0 016.52 9.962a3.45 3.45 0 11-4.089-3.394V4.235L0 1.805-1.512.294l-.187-.187v-15.438l.187-.189L0-17.032l3.135-3.136.188-.188h7.865l1.068-1.069 1.901-1.901 1.233-1.234 2.171-2.169 4.116-4.117.186-.187h11.049l12.634-12.634v-75.145l.186-.188 1.872-1.872 12.294-12.295 7.676-7.675 5.121-5.12v-33.576L61.983-190.25h-3.725l1.64 1.641 9.196 9.196.186.187v34.653l-.186.187-1.52 1.518-7.676 7.675-16.652 16.652v72.635l-.186.187-4.985 4.985-.187.186h-3.513a3.452 3.452 0 110-1.276h2.984l4.611-4.611v-72.635l.186-.186 5.448-5.449 12.294-12.294 7.676-7.674.429-.43v-33.594l-8.105-8.105-3.63-3.633-1.088-1.087h7.337l.185.184 4.872 4.874 6.392 6.392v34.643l-.184.184-6.208 6.209-7.676 7.675-12.294 12.296-.781.781v75.146l-.187.187-13.007 13.008-.187.187H22.393l-4.832 4.831-2.171 2.172-1.233 1.234-1.901 1.9-.35.351-.184.185H3.851l-4.274 4.274V-.423z" transform="translate(198.94 323.25)"/><path d="M0 0v-68.913l-13.59-13.589-10.26-10.261-3.498-3.496-.186-.189v-32.315l.186-.188 12.248-12.248.452-.451.452.451.606.607 9.939 9.939h7.998l9.149 9.149H35.76l.185.183 6.039 6.04 3.754 3.755h6.92a3.456 3.456 0 013.392-2.814c1.106 0 2.092.52 2.722 1.331.458.584.73 1.321.73 2.121 0 .799-.272 1.535-.73 2.12a3.45 3.45 0 01-6.114-1.482h-7.45l-.187-.187-3.037-3.038-6.757-6.758H12.962l-.185-.184-8.964-8.964h-8l-.183-.184-9.22-9.222-1.058-1.057-9.202 9.201-2.408 2.409v31.258l12.668 12.668 14.679 14.68.187.187V-.53l3.122 3.123c.555-.38 1.227-.6 1.949-.6a3.452 3.452 0 11-2.851 1.505L.187.188z" transform="translate(409.29 276.25)"/><path d="M0 0v-.002h.017V0a2.804 2.804 0 001.985-.825 2.807 2.807 0 00.826-1.978h-.003v-.016h.003a2.819 2.819 0 00-.829-1.988 2.806 2.806 0 00-1.977-.825v.002H.006v-.002a2.815 2.815 0 00-2.809 2.807h.002v.015h-.002c.001.773.319 1.476.827 1.985l-.001.003C-1.469-.317-.769-.002 0 0m-10.119 96.355h-5.522l-.185-.188-.211-.21-2.231-2.23-3.098-3.099-.186-.188V75.187l-12.82-12.82-.187-.185v-9.729l-10.605-10.606-.187-.187V-3.273l-7.845-7.845-1.09-1.089h7.618l.188.187 8.306 8.307.187.187v27.184l8.356 8.355 3.375-3.376v-5.795a3.452 3.452 0 010-6.725V-6.436l-11.426-11.425h-22.257l-.186-.187-2.551-2.551-10.26-10.258-.45-.452-.186-.186V-54.53l.186-.187.45-.451 2.869-2.868 1.089-1.09v24.609l6.302 6.301 4.643 4.645h24.888l.187.185 14.69 14.69 2.231 2.23L-8.745.826h6.896A4.145 4.145 0 01-2.876.078h-.002A4.08 4.08 0 01-4.075-2.81h-.002v-.015h.002A4.085 4.085 0 01.006-6.904v-.001h.016v.001A4.08 4.08 0 012.69-5.903l5.695-5.696.187-.189h10.203l.19.189 2.719 2.72h17.839l.187.187 5.408 5.407.187.187v7.761l1.429 1.43a3.453 3.453 0 015.401 2.849 3.452 3.452 0 11-6.304-1.947l-1.803-1.803v-7.76l-5.034-5.035H21.16l-2.908-2.908H9.098L3.512-4.925c.369.614.587 1.334.587 2.106h.003v.016h-.003A4.067 4.067 0 012.905.072 4.068 4.068 0 01.017 1.271v.002H0v-.002A4.047 4.047 0 01-1.604.94L.013 2.557l9.674 9.675 6.93 6.929.186.187v19.704l3.686 3.687.187.187v8.602l4.17 4.169 8.748 8.748H49.4l.195.246.947 1.209a3.437 3.437 0 011.595-.388 3.452 3.452 0 11-2.595 1.176l-.757-.966H33.063l-.186-.188-8.031-8.031-5.26-5.259-.187-.185v-8.611l-3.685-3.686-.187-.186V19.878l-5.84-5.84L.013 4.363l-2.261-2.26h-7.026l-.188-.187-6.575-6.575-2.231-2.232-15.406-15.406h-24.889l-.186-.185-3.927-3.928-7.391-7.391-.187-.186v-22.057l-2.042 2.043v21.977l12.887 12.887h22.258l.186.187 11.797 11.797.185.183v23.033a3.452 3.452 0 010 6.833v6.275l-.185.184-4.012 4.013-.451.452-9.445-9.445-.187-.186V-2.997l-7.934-7.935h-4.006l6.941 6.943.188.186V41.13l10.605 10.607.187.187v9.727l12.819 12.82.187.186v15.254l2.008 2.009 2.231 2.231.928.927h5.52l8.13 8.13v23.574l1.472 1.471 4.012 4.015.188.188v13.873l5.474 5.474 9.73 9.729a3.452 3.452 0 11-.902.904l-8.828-8.828-6.564-6.563-.186-.186v-13.875l-2.924-2.925-2.562-2.561-.186-.186v-23.575l-4.367-4.366z" transform="translate(458.38 207.42)"/><path d="M0 0c.001.774.318 1.479.826 1.985a2.806 2.806 0 001.978.825v-.002h.015v.002a2.812 2.812 0 001.988-.828l.001.001A2.801 2.801 0 005.631.007h-.002V-.01h.002a2.818 2.818 0 00-2.805-2.81v.003H2.81v-.003a2.8 2.8 0 00-1.985.825A2.809 2.809 0 000-.016h.002V0zm-56.412 31.324c.723 0 1.395.224 1.95.604l2.909-2.908.457-.458v-7.909l.191-.189 6.297-6.297.186-.187h17.907l3.225-3.224 4.476-4.477 6.832-6.829.186-.186h10.592A4.08 4.08 0 012.81-4.092v-.003h.016v.003a4.077 4.077 0 012.878 1.194A4.078 4.078 0 016.903-.01h.003v.017h-.003a4.072 4.072 0 01-1.195 2.875v.003a4.079 4.079 0 01-2.889 1.197v.002h-.015v-.002A4.08 4.08 0 01-1.233.54h-10.034l-7.547 7.546-4.476 4.477-2.508 2.507-.188.187h-17.911l-5.922 5.92v7.909l-.19.188-3.553 3.553a3.452 3.452 0 11-2.85-1.503" transform="translate(196.13 192.96)"/><path d="M0 0v-1.185a2.796 2.796 0 00-.744-1.304 2.795 2.795 0 00-1.981-.825v.001h-.015v-.001h-.015A2.818 2.818 0 00-5.549-.509h.003v.016h-.003c.001.773.317 1.476.826 1.984.505.505 1.202.82 1.968.825l.009.001v-.004h.015v.004a2.813 2.813 0 001.987-.826v-.004A2.82 2.82 0 00.039 0zm104.31-114.28v35.081l-.186.187-4.904 4.905-.578.578H79.066l-9.889 9.887-2.171 2.172-1.233 1.234-1.9 1.899L53.03-47.494l-.187.185H42.559l-4.763 4.764-7.809 7.808-4.476 4.476-3.419 3.418v16.781L12.028.002h-10.7A4.084 4.084 0 01.163 2.393l-.002-.001a4.081 4.081 0 01-2.889 1.197v.004h-.015v-.004h-.009a4.087 4.087 0 01-4.066-4.08h-.002v-.016h.002a4.072 4.072 0 011.195-2.877 4.074 4.074 0 012.871-1.201h.015v-.001h.015v.001a4.09 4.09 0 014.007 3.311H11.5l9.32-9.322v-16.781l.185-.184 4.506-4.505 4.476-4.477 7.809-7.809 4.047-4.045.186-.187h10.284l11.56-11.559 1.9-1.9 1.233-1.234 2.171-2.17 9.17-9.169.184-.186h19.577l1.112-1.112 3.813-3.814v-34.023l-3.811-3.813-.002.002-6.624 6.626-.188.186h-13.28l-5.421 5.422-.19.19H59.761l-7.586 7.586c.37.55.586 1.212.586 1.926a3.436 3.436 0 01-1.145 2.564 3.44 3.44 0 01-2.307.883 3.437 3.437 0 01-1.924-.584l-2.509 2.511-2.207 2.206-.187.186h-3.254a3.444 3.444 0 01-1.432 2.202 3.45 3.45 0 11-1.963-6.291 3.453 3.453 0 013.395 2.812h2.725l2.923-2.921 1.6-1.6a3.442 3.442 0 01-.619-1.968 3.452 3.452 0 015.421-2.836l.338-.337 7.43-7.428.186-.187h13.761l5.422-5.423.189-.189h13.275l6.891-6.893.45-.45.001-.002.452.452 4.451 4.45z" transform="translate(147.33 258.18)"/><path d="M0 0v-.014a2.995 2.995 0 00-3.379-2.833A2.993 2.993 0 00-5.978-.014L-5.979 0c-.002.041-.002.081-.002.121a2.995 2.995 0 002.989 2.991c.669 0 1.285-.218 1.784-.588A2.984 2.984 0 00.003.121C.003.081.003.041 0 0m48.805-146.39l-7.676 7.675-7.267 7.268v10.855l7.267 7.267 3.496 3.495.185.187v32.82l-.179.185-3.502 3.623-12.295 12.723L15.34-46.33v22.737l-.186.186-5.076 5.077v14.682l-.172.187L6.313.42l-.192.206H1.054a4.096 4.096 0 01-2.262 3.162 4.068 4.068 0 01-1.791.414v.003h-.016v-.003a4.093 4.093 0 01-1.598-.329A4.083 4.083 0 01-7.055.626h-2.329l-9.386 9.385-1.228 1.229-.187.186h-9.312a3.458 3.458 0 01-3.395 2.812 3.452 3.452 0 113.396-4.087h8.782l1.944-1.946 8.67-8.669.186-.185h2.898a4.102 4.102 0 011.12-2.123 4.096 4.096 0 012.887-1.201v-.002h.016v.002A4.049 4.049 0 01-.115-2.778h.004A4.089 4.089 0 011.015-.649h4.558l3.229-3.489v-14.714l.186-.188 5.075-5.076V-46.84l.18-.186 14.591-15.098 12.295-12.723 2.406-2.488v-31.778l-2.406-2.405-8.357-8.357-.187-.188v-11.913l.187-.187 8.357-8.358 7.676-7.675 8.433-8.434v-61.024l-7.012-7.011-.19-.189v-30.889h1.277v30.365l7.013 7.01.19.19v62.077l-.187.186z" transform="translate(217.71 255.74)"/><path d="M0 0a2.812 2.812 0 00-.826 1.98h.003v.016h-.003c.001.771.319 1.475.828 1.983l-.001.002a2.814 2.814 0 001.978.824v-.003h.015v.003a2.813 2.813 0 001.986-.826 2.812 2.812 0 00.825-1.978h-.003v-.015h.003A2.81 2.81 0 003.98 0h-.002A2.806 2.806 0 002-.826v.003h-.016v-.003C1.21-.826.508-.509 0 0m1.984-2.101H2v.002A4.074 4.074 0 014.879-.903a4.074 4.074 0 011.198 2.889h.003v.015h-.003a4.078 4.078 0 01-3.444 4.026v115.48l-.188.186-.455.455-10.237 10.235-2.694 2.695-.202.202v46.573l-.184.186-3.875 3.875-13.872 13.87-12.295 12.295-1.001 1.003v2.629a3.452 3.452 0 01-.639 6.844 3.452 3.452 0 01-.638-6.844v-3.159l.188-.186 2.09-2.092 1.144-1.144 11.151-11.152 7.676-7.675 5.293-5.292 3.69-3.691v-46.574l.185-.184 1.289-1.289 2.694-2.695 9.603-9.601V6.027A4.064 4.064 0 01-.897 4.881h-.002a4.08 4.08 0 01-1.197-2.887h-.003v-.016h.003A4.079 4.079 0 01-.903-.9a4.075 4.075 0 012.887-1.201z" transform="translate(287.92 122.43)"/><path d="M0 0l.186-.186h24.338l1.186-1.186 1.901-1.9 1.233-1.234 2.171-2.171 1.917-1.916.186-.186h21.014l3.65-3.649v-15.564l3.276 3.276 1.201 1.199.187.187v14.883l-.187.186-1.201 1.2-4.307 4.308-.186.187H36.123l-5.108 5.107-2.171 2.17-1.233 1.233-1.901 1.902-12.256 12.257-2.368 2.367-.187.186H-.126l-21.252 21.252v18.335l-.187.186-1 1.002a3.453 3.453 0 01-2.849 5.4 3.451 3.451 0 111.948-6.3l.812-.812v-18.34l.186-.187 9.817-9.816 4.476-4.478 7.332-7.332.186-.184.264-.001H10.37l3.084-3.085L25.71 6.039l1.901-1.899 1.233-1.234L31.015.734l4.39-4.39.187-.186h20.444l5.022-5.024.111-.111v-13.824l-.111-.11-1.999-1.999v13.012l-.187.186-4.023 4.023-.187.186H33.647L31.015-4.87 28.844-2.7 25.71.434l-.47.469-.187.188H.717L-.366 2.174l-7.809 7.808-4.476 4.476-1.678 1.68-.188.186h-14.938V7.827l-6.066-6.064h-9.268l-.187-.187-2.17-2.169a3.452 3.452 0 11-1.948-6.303 3.453 3.453 0 012.851 5.4L-44.26.487h9.263l.187.187 6.442 6.44.19.19v7.744h13.131L-.366.367z" transform="translate(185.49 183.5)"/><path d="M0 0v.001h-.017V0A2.8 2.8 0 00-2 .825a2.77 2.77 0 00-.527.729 2.78 2.78 0 00-.299 1.252h.002v.016h-.002c0 .45.108.877.299 1.254A2.806 2.806 0 00-.022 5.631v-.002h.015v.002a2.815 2.815 0 002.813-2.803h-.003v-.015h.003A2.812 2.812 0 001.979.825h-.001A2.803 2.803 0 000 0m5.114-127.53l-3.384 3.381v78.062l.1.099 8.294 8.294.187.186v14.694l-.187.187-9.499 9.5v11.901A4.077 4.077 0 012.879-.079l-.001.002a4.075 4.075 0 011.198 2.888h.003v.015h-.003a4.075 4.075 0 01-1.193 2.876l-.003.003A4.092 4.092 0 01-.007 6.901v.002h-.015v-.002a4.063 4.063 0 01-2.875-1.194A4.078 4.078 0 01-4.098 2.82H-4.1v-.016h.002A4.074 4.074 0 01-2.527-.408a4.054 4.054 0 011.875-.817v-12.432l.187-.186 9.501-9.501v-13.634l-7.275-7.274-1.118-1.117-.185-.184v-79.13l.185-.184 4.546-4.546 5.784-5.781v-170.66h1.275v171.19l-.187.185z" transform="translate(325.4 305.85)"/><path d="M0 0h-.006v-.002a2.757 2.757 0 00-1.077.216 2.825 2.825 0 00-1.732 2.591h.003v.015h-.003c.001.774.317 1.477.825 1.984a2.825 2.825 0 001.978.825v-.002h.017v.002a2.812 2.812 0 001.986-.827l.001.001a2.81 2.81 0 00.823-1.976h-.002v-.016h.002c0-.776-.317-1.479-.825-1.987h-.003A2.802 2.802 0 00.01-.002V0zm37.816-34.752a2.8 2.8 0 00-.193-1.017l-.043.043-.101-.099-.351-.349-.451-.449.213-.212a2.805 2.805 0 00-1.88-.728v.002h-.016v-.002c-.773 0-1.476.317-1.983.825s-.823 1.21-.825 1.981h.002v.015h-.002c.001.774.316 1.477.825 1.985a2.808 2.808 0 001.977.824v-.002h.017v.002a2.8 2.8 0 001.986-.825v-.003a2.795 2.795 0 00.825-1.974h-.002v-.017zm-20.578-197.81v45.647l5.347 5.349.185.185v64.605l13.453 13.454 4.01 4.011 1.306 1.306.187.188.001.264v57.675l-.188.186-1.306 1.307-1.654 1.655c.321.585.509 1.259.509 1.974h.003v.017h-.003a4.075 4.075 0 01-1.194 2.878l-.001-.002a4.082 4.082 0 01-2.888 1.198v.003h-.017v-.003a4.082 4.082 0 01-4.074-4.081h-.003v-.015h.003a4.082 4.082 0 014.08-4.078v-.002h.016v.002a4.081 4.081 0 012.78 1.099l2.443-2.446.217-.216v-56.886l-.217-.217-4.01-4.012-14.541-14.539-.184-.187v-64.604l-5.537-5.537v-46.707l.186-.187 10.466-10.465v-154.41l-2.742 2.744.006 151.08v.268l-.185.185-10.19 10.189v47.126l6.038 6.039.187.188v67.593l15.449 15.445.185.186v19.112l-.185.186-4.638 4.639-.451.453-.45-.451-4.219-4.217-.186-.186v-6.175l-11.99-11.99-.184-.183v-28.469l-4.537 4.535v20.388l-.187.186-6.316 6.318v7.515l8.534 8.531.187.187v28.404l-.19.188-5.761 5.76v26.137l-.186.186-3.963 3.964v10.866A4.08 4.08 0 012.891-.08l-.001.001A4.085 4.085 0 014.087 2.81h.004v.016h-.004a4.079 4.079 0 01-1.193 2.875v.002A4.086 4.086 0 01.005 6.9v.002h-.017V6.9c-.146 0-.292-.009-.433-.025a4.04 4.04 0 01-2.442-1.169 4.086 4.086 0 01-1.199-2.887h-.002v-.015h.002A4.098 4.098 0 01-.639-1.227v-11.395l.187-.187.007-.006 3.957-3.957v-26.131l.189-.19 5.761-5.759v-27.349L.929-84.733l-.187-.186v-8.575l.187-.187 6.315-6.316v-20.388l.188-.187 5.81-5.808 1.087-1.088v31.01l11.992 11.992.186.187v6.175l3.582 3.581 3.996-3.999V-96.58l-15.446-15.445-.188-.186v-67.601l-6.039-6.04-.185-.186v-48.179l.185-.187 10.192-10.191-.005-151.08-.001-.266.185-.185 4.017-4.018 1.09-1.09v158.02l-.187.185z" transform="translate(323.32 415.35)"/><path d="M0 0l-.819.818-13.151 13.151-7.676 7.674-6.418 6.418v58.386l6.418 6.417 3.094 3.093.186.187v21.334l-.186.186-3.094 3.093-1.205 1.204-.187.188H-50.42l-11.493 11.488-1.705 1.708v3.271a3.45 3.45 0 01-.639 6.843 3.425 3.425 0 01-1.897-.569 3.465 3.465 0 01-1.234-1.433 3.434 3.434 0 01-.318-1.447 3.44 3.44 0 011.552-2.884 3.409 3.409 0 011.259-.51v-3.802l.187-.186 3.23-3.23 10.342-10.338.186-.187h27.382l1.922-1.923 2.005-2.003V96.672l-2.005-2.003-7.507-7.506-.186-.187V27.531l.186-.187 7.507-7.507 7.676-7.675L-3.514 1.708-1.09-.717v-180.37H.187V-.447l-.002.265z" transform="translate(280.49 181.09)"/><path d="M0 0a2.817 2.817 0 00-2.807-2.813v.003h-.016v-.003a2.807 2.807 0 00-1.983.827 2.808 2.808 0 00-.825 1.981h.002v.016h-.002c.001.773.318 1.475.825 1.983a2.807 2.807 0 001.977.825v-.003h.017v.003a2.799 2.799 0 001.802-.661l-.093-.094.451-.452.354-.353C-.109.883-.001.461 0 .016h-.003V0zm-55.916 191.61a2.812 2.812 0 00-.498-1.597l-.325-.326.031-.03-.032-.033a2.826 2.826 0 00-1.981-.824v.001h-.016v-.001a2.815 2.815 0 00-2.809 2.805h.002v.016h-.002a2.815 2.815 0 002.803 2.808v-.002h.017v.002a2.825 2.825 0 001.986-.825 2.796 2.796 0 00.824-1.977h-.001v-.017zM7.574 57.57l-10.39 10.389-7.676 7.675-9.429 9.431v60.984l9.267 9.27.162.163.025.024v17.513l-.025.024-.165.165-3.952 3.951-.188.187H-42.59l-10.239 10.24-2.171 2.17-.058.058c.02.041.04.081.058.122.23.51.356 1.081.357 1.676h.002v.017h-.002a4.063 4.063 0 01-1.194 2.874 4.079 4.079 0 01-2.889 1.2v.002h-.017v-.002a4.081 4.081 0 01-4.074-4.08h-.002v-.016h.002a4.08 4.08 0 014.08-4.077v-.002h.016v.002a4.066 4.066 0 012.877 1.194l.036.034.808-.808.104-.105 2.067-2.067 9.523-9.522.187-.186.264-.001h27.536l3.575-3.575v-16.465l-9.266-9.27-.187-.186V84.534l.187-.186 10.518-10.52L6.484 56.854V9.66L-.104 3.07a4.069 4.069 0 01-2.708 1.027v.002h-.017v-.002a4.068 4.068 0 01-2.874-1.195 4.072 4.072 0 01-1.2-2.885h-.002V.001h.002a4.084 4.084 0 014.08-4.079v-.002h.016v.002A4.074 4.074 0 01.072-2.883a4.082 4.082 0 011.2 2.889h.002v.016h-.002a4.096 4.096 0 01-.561 2.057l6.863 6.865.067.067.119.12v48.253l-.119.119z" transform="translate(269.33 122.98)"/><path d="M0 0a2.81 2.81 0 00-.827-1.986 2.803 2.803 0 00-1.98-.826v.001h-.016v-.001a2.813 2.813 0 00-1.983.826 2.804 2.804 0 00-.826 1.98h.003v.017h-.003c.002.773.317 1.475.826 1.983.376.375.889.612 1.436.708.904.158 1.906-.073 2.543-.711A2.802 2.802 0 000 .016h-.003V0zm-5.208 74.423a2.347 2.347 0 104.695 0 2.347 2.347 0 00-4.695 0M.077 2.895a4.084 4.084 0 01-2.353 1.161v66.989a3.454 3.454 0 012.813 3.393 3.456 3.456 0 01-2.813 3.391v70.811l-.187.185-.907.906-2.859 2.859-1.217 1.216-.294.295-.636.636-3.89 3.889-.365.366v48.898l.365.366 3.89 3.889.93.93 1.217 1.216 2.859 2.858 1.008 1.009.187.187v31.718l-4.054 4.054-1.217 1.216-.294.293-.636.638-.863.862v64.49l.863.863.636.638.294.294 1.217 1.215 2.859 2.859 1.513 1.514a3.417 3.417 0 011.948-.602c.993 0 1.888.419 2.517 1.089a3.431 3.431 0 01.935 2.364 3.42 3.42 0 01-.935 2.359 3.45 3.45 0 01-5.966-2.359c0-.723.22-1.392.598-1.948l-.61-.611-2.859-2.858-1.217-1.216-.294-.295-.636-.637-1.954-1.952-.186-.187v-65.549l.186-.186 1.954-1.953.636-.637.294-.294 1.217-1.216 2.777-2.778v-30.658l-2.777-2.778-1.217-1.215-.294-.295-.636-.637-3.89-3.888-1.642-1.642v-49.957l.186-.188 1.456-1.454 3.89-3.889.636-.637.294-.294 1.217-1.216 2.677-2.676V77.83a3.452 3.452 0 010-6.785V4.026a4.069 4.069 0 01-2.151-1.13 4.07 4.07 0 01-1.2-2.885h-.003v-.017h.003A4.077 4.077 0 01-5.71-2.884a4.088 4.088 0 012.887-1.2v-.002h.016v.002A4.075 4.075 0 01.071-2.89 4.082 4.082 0 011.271 0h.002v.016h-.002A4.075 4.075 0 01.077 2.895" transform="translate(319.63 10.515)"/><path d="M0 0a2.801 2.801 0 00-.825-1.986l-.017-.016a2.803 2.803 0 00-1.963-.81v.003h-.016v-.003a2.812 2.812 0 00-2.147 1.003A2.808 2.808 0 00-5.63-.006h.003v.017h-.003a2.799 2.799 0 00.828 1.984l-.001.001a2.806 2.806 0 001.977.823v-.002h.015v.002a2.8 2.8 0 001.987-.825A2.807 2.807 0 000 .016h-.002V0zm-6.415-47.438a2.813 2.813 0 002.802 2.809v-.002h.016v.002a2.811 2.811 0 002.644-1.859 2.8 2.8 0 00.169-.945h-.002v-.016h.002a2.805 2.805 0 00-.825-1.986 2.817 2.817 0 00-1.981-.824v.002h-.016v-.002c-.499 0-.962.122-1.362.338a2.745 2.745 0 00-1.2 1.296c-.158.354-.246.75-.247 1.171h.001v.016zm-2.077-50.575l2.135 2.136.186.186v14.487l-.186.187-2.135 2.135-3.625 3.624V-56.3l3.625 3.625 2.174 2.175a4.028 4.028 0 011.35-.798 4.097 4.097 0 011.362-.233v-.002h.016v.002a4.075 4.075 0 012.878 1.194 4.079 4.079 0 011.199 2.888h.002v.016H.487a4.08 4.08 0 01-4.084 4.077v.001h-.016v-.001a4.087 4.087 0 01-4.075-4.082h-.001v-.016h.001a4.09 4.09 0 01.556-2.055l-1.36-1.36-4.011-4.01-.891-.891v-20.017l.186-.187.705-.704 4.011-4.01 1.045-1.045v-13.429l-1.045-1.045-4.011-4.01-7.897-7.898-.185-.184v-9.847l-5.352-5.354-.186-.186v-42.813l-2.044 2.042v42.173l5.209 5.209.187.186v8.484l13.143 13.143v13.015l-.186.187-2.689 2.688-3.077 3.077v25.003l3.077 3.077 4.011 4.01 2.324 2.324 1.2 1.201.269.268 6.539 6.539 2.318 2.32.188.186v25.081l-.188.186L1.84-3.782.476-2.417c.499.676.795 1.513.796 2.417h.002v.016h-.002A4.07 4.07 0 01.079 2.891a4.07 4.07 0 01-2.89 1.2v.002h-.015v-.002a4.075 4.075 0 01-2.876-1.194h-.003A4.072 4.072 0 01-6.901.011h-.002v-.017h.002a4.079 4.079 0 011.933-3.465 4.063 4.063 0 012.147-.613v-.002h.016v.002a4.08 4.08 0 012.374.767l2.271-2.27 1.229-1.23v-24.02L1.84-32.066-.953-34.86l-3.518-3.517-.497-.497-1.2-1.201-10.686-10.686v-26.064l.186-.186 4.165-4.166 1.599-1.599v-11.956l-1.599-1.6-11.544-11.544v-8.482l-5.209-5.209-.187-.188v-43.224l.189-.19 3.32-3.319 1.087-1.086v45.358l5.35 5.35.184.186v9.846l6.81 6.811z" transform="translate(372.05 350.31)"/><path d="M0 0c.001.773.318 1.478.826 1.984a2.808 2.808 0 001.977.825v-.003h.016v.003a2.812 2.812 0 001.987-.825V1.98A2.8 2.8 0 005.631.005h-.002V-.01h.002a2.813 2.813 0 00-2.806-2.811v.002h-.016v-.002a2.8 2.8 0 00-1.983.824A2.81 2.81 0 000-.016h.002V0zm29.202 47.578a2.81 2.81 0 00-.824 1.98h.002v.016h-.002a2.81 2.81 0 00.826 1.984 2.81 2.81 0 001.979.825v-.003h.015v.003a2.817 2.817 0 002.811-2.803h-.002v-.017h.002c0-.774-.317-1.479-.825-1.986a2.811 2.811 0 00-1.634-.804h-.717a2.822 2.822 0 00-1.631.805M-.078-2.894a4.08 4.08 0 012.887-1.199v-.002h.016v.002a4.086 4.086 0 012.335.736L7.292-5.49l.28-.281.187-.186h11.639l2.782-2.781 3.24-3.241.188-.187h20.254l-1.089 1.09-3.596 3.596-2.267 2.266-.187.187H32.04l-3.119 3.118-3.208 3.208v16.113l-.186.186-2.967 2.968v10.36l.93.931 5.431 5.432 2.521 2.522.186.187v5.504a4.078 4.078 0 012.453 1.172 4.081 4.081 0 011.2 2.889h.003v.017h-.003a4.08 4.08 0 01-1.193 2.875l-.004.003a4.08 4.08 0 01-2.886 1.196v.002h-.015v-.002a4.072 4.072 0 01-2.876-1.194 4.07 4.07 0 01-1.201-2.886h-.001v-.016h.001a4.074 4.074 0 011.195-2.877 4.066 4.066 0 012.051-1.114v-5.046l-1.431-1.431-6.741-6.743-.711-.71-.186-.187V20.036l3.154-3.154V.77l.187-.187 4.297-4.298 2.402-2.403.186-.186H38.2l2.977-2.976 1.611-1.609H26.137l-6.204 6.204H8.288L6.077-2.474c.519.685.825 1.539.826 2.464h.003v.015h-.003a4.074 4.074 0 01-1.195 2.879v-.002A4.081 4.081 0 012.819 4.08v.002h-.016V4.08A4.073 4.073 0 01-.071 2.887 4.08 4.08 0 01-1.272 0h-.002v-.016h.002A4.08 4.08 0 01-.078-2.894" transform="translate(170.02 306.54)"/><path d="M0 0a2.796 2.796 0 00-.826-1.986 2.802 2.802 0 00-1.353-.75c-.105-.122-1.375-.058-1.276 0a2.806 2.806 0 00-1.351.75 2.809 2.809 0 00-.825 1.979h.002V.01h-.002a2.815 2.815 0 002.803 2.808v-.002h.015v.002a2.806 2.806 0 001.987-.824v-.003A2.816 2.816 0 000 .016h-.002V0zm.077 2.893v-.001a4.073 4.073 0 01-2.89 1.198v.003h-.015V4.09A4.083 4.083 0 01-6.903.01h-.002v-.017h.002a4.083 4.083 0 013.448-4.025v-3.919l-.202-.202-3.586-3.585-2.683-2.685v38.399l5.53 5.532.739.738.74.741.188.188v11.053l-.188.186-.74.741-1.495 1.494-2.091 2.092-2.682 2.682v40.23l2.406 2.405 3.862 3.862.374.372v51.826l-.374.372-3.586 3.586-1.472 1.474c.57.615.92 1.436.92 2.343a3.452 3.452 0 01-3.453 3.45 3.445 3.445 0 01-2.969-1.697 3.424 3.424 0 01-.481-1.753c0-.642.176-1.242.481-1.756a3.445 3.445 0 014.464-1.355l2.51-2.511 2.683-2.683V96.822l-2.683-2.682-.361-.363-3.411-3.409-.186-.185V48.895l.186-.187 3.772-3.772 2.185-2.187 1.052-1.052v-9.994l-7.009-7.009-.184-.183v-42.012l3.956 3.956 3.586 3.587 1.291 1.289.187.189v4.448A4.096 4.096 0 01.072-2.889 4.072 4.072 0 011.272 0h.002v.016h-.002A4.07 4.07 0 01.077 2.893" transform="translate(307.73 21.943)"/><path d="M0 0a2.346 2.346 0 10-4.109 2.267A2.346 2.346 0 000 0m1.52 163.59a2.492 2.492 0 002.491 2.491h.001a2.493 2.493 0 000-4.983h-.001a2.493 2.493 0 00-2.491 2.492M13.238 303.3c0-.519-.144-1.011-.392-1.43l-.826-.825.033-.034a2.8 2.8 0 00-1.62-.523v.003h-.015v-.003a2.814 2.814 0 00-2.81 2.806h.002v.016h-.002c.001.774.318 1.477.826 1.984a2.8 2.8 0 001.977.825v-.002h.017v.002c.398 0 .778-.085 1.122-.236.324-.141.617-.343.862-.589a2.801 2.801 0 00.826-1.978h-.003v-.016zM0 3.82a3.42 3.42 0 01-1.418.619v142.66L0 148.515l4.011 4.011.475.476.188.187v6.949a3.441 3.441 0 011.661.819 3.44 3.44 0 011.153 2.572 3.462 3.462 0 01-2.814 3.393v10.605l1.661 1.635 1.2 1.18.724.713 3.291 3.239.678.667.192.188v14.763l1.923 1.925 5.085 5.085.186.187v35.57l6.282 6.283.452.451.187.186v26.598l-.187.187-.452.45-6.71 6.712-.537.536v12.139l-4.306 4.306-.517.516c.225.337.4.708.517 1.106.108.365.166.752.168 1.151h.001v.016h-.001a4.068 4.068 0 01-1.196 2.875 4.072 4.072 0 01-2.887 1.2v.001h-.017v-.001a4.078 4.078 0 01-2.876-1.194 4.077 4.077 0 01-1.198-2.887h-.002v-.016h.002a4.081 4.081 0 011.192-2.877l.006-.005a4.08 4.08 0 012.883-1.196v-.002h.015v.002a4.064 4.064 0 012.531.884l.167-.167 1.212-1.211 3.03-3.031v-12.138l1.813-1.813 6.072-6.073v-25.538l-6.072-6.072-.662-.661-.185-.187v-35.57l-3.996-3.997-3.199-3.199v-14.764l-2.808-2.763-.801-.788-1.2-1.18-2.324-2.288-.422-.414-.192-.188v-11.136a3.454 3.454 0 01-2.811-3.393 3.45 3.45 0 012.811-3.391v-6.419L0 150.321l-2.505-2.505-.184-.185V4.441a3.45 3.45 0 010-6.785v-65.064h1.271v65.065A3.448 3.448 0 010-1.723a3.444 3.444 0 010 5.545" transform="translate(359.54 67.405)"/><path d="M0 0l4.015 4.015 1.512 1.513.189.187v19.082l1.092 1.093 2.871 2.87.186.187V74.42l1.785 1.787 5.916 5.917.188.186v36.671l.607.608 2.663 2.662.187.188v38.939l-.187.185-7.558 7.558v9.864l-1.816 1.816-4.842 4.843-10.332 10.332-3.21 3.211a3.444 3.444 0 01-.801 4.721 3.45 3.45 0 11-.102-5.625l.102-.102 4.011-4.012 2.324-2.323 12.85-12.85.539-.54v-9.865l.187-.186 5.985-5.985 1.575-1.573v-37.88l-1.575-1.572-1.697-1.697-.186-.187V82.84l-4.828-4.829-2.875-2.874-.186-.187V29.477l-1.781-1.782-2.182-2.181-.188-.188V6.245l-.423-.425L0 1.806-1.2.605l-2.324-2.324-.982-.981-.186-.187v-187.1h1.276v186.58L-1.2-1.191z" transform="translate(367.08 189.99)"/><path d="M0 0c0 .774.316 1.477.824 1.984a2.81 2.81 0 001.978.825v-.002h.016v.002c.774 0 1.478-.318 1.989-.826A2.803 2.803 0 005.629.006h-.001V-.01h.001a2.8 2.8 0 00-.375-1.404l-.289.289-.451-.45-.452-.452.319-.319a2.796 2.796 0 00-1.556-.475v.002h-.017v-.002a2.8 2.8 0 00-1.984.825A2.804 2.804 0 000-.016h.001V0zm-.079-2.893a4.078 4.078 0 012.887-1.2v-.002h.017v.002a4.07 4.07 0 012.469.834l.077-.076 5.252-5.253 2.807-2.806v-8.211l-2.807-2.808-1.535-1.536a3.451 3.451 0 111.508-2.849c0 .724-.222 1.394-.603 1.949l4.527 4.527.186.187v9.27l-.186.187-3.897 3.896-4.447 4.447A4.08 4.08 0 016.902-.01h.002v.016h-.002a4.076 4.076 0 01-1.194 2.875l-.003.003a4.086 4.086 0 01-2.887 1.197v.002h-.016v-.002A4.071 4.071 0 01-.072 2.887 4.074 4.074 0 01-1.272 0h-.002v-.016h.002A4.076 4.076 0 01-.079-2.893" transform="translate(174.5 349.76)"/><path d="M0 0c.001.77.319 1.473.828 1.982l-.001.002a2.82 2.82 0 001.976.824v-.002h.017v.002a2.796 2.796 0 001.986-.826v-.003A2.789 2.789 0 005.632.005h-.003v-.016h.003a2.828 2.828 0 00-.826-1.986 2.806 2.806 0 00-1.98-.825H2.81a2.781 2.781 0 00-1.986.825A2.815 2.815 0 000-.017h.003V0zm-50.936 28.728c.65 0 1.259.179 1.78.49l2.29-2.29V13.479l.185-.185 7.408-7.407.187-.186h4.903l.225-.226 7.809-7.808 3.568-3.568h9.128l1.124 1.124 3.802 3.8h7.373A4.073 4.073 0 01-.078-2.895l.006-.006A4.087 4.087 0 012.81-4.095v-.001h.016v.001a4.067 4.067 0 012.877 1.194 4.086 4.086 0 011.2 2.89h.003v.016h-.003a4.077 4.077 0 01-1.194 2.878l-.002-.001a4.093 4.093 0 01-.475.405 4.072 4.072 0 01-2.412.792v.004h-.017v-.004A4.074 4.074 0 01-.072 2.886h-.003A4.092 4.092 0 01-1.259.3h-7.533l-.264.001-.188-.187-3.085-3.085-1.654-1.655h-8.068l-4.098 4.099-7.505 7.505h-4.904l-7.036 7.034v13.45l-.184.184-2.424 2.422a3.452 3.452 0 11-6.185 2.112 3.452 3.452 0 013.451-3.452" transform="translate(211.27 287.45)"/><path d="M0 0c0 .688.254 1.321.668 1.81l.041-.041.452.451.149.15c.434.276.945.439 1.493.441v-.003h.016v.003a2.801 2.801 0 001.986-.827V1.98A2.801 2.801 0 005.631.006h-.003V-.01h.003a2.819 2.819 0 00-2.807-2.812v.003h-.015v-.003c-.774.001-1.477.317-1.984.825S.002-.787 0-.016h.002V0zm-27.038 13.621a3.45 3.45 0 011.948.599l.002.002 4.452-4.454.187-.186h13.346l6.298-6.3.571-.571A4.071 4.071 0 01-1.271 0h-.003v-.016h.003a4.082 4.082 0 014.08-4.078v-.002h.015v.002a4.072 4.072 0 012.879 1.196A4.077 4.077 0 016.902-.01h.003v.016h-.003a4.073 4.073 0 01-1.194 2.878l-.001-.001a4.082 4.082 0 01-2.888 1.199v.002h-.016v-.002a4.064 4.064 0 01-2.044-.558l-7.146 7.147-.186.187h-13.346l-4.267 4.267c.379.553.601 1.225.601 1.948a3.444 3.444 0 01-1.505 2.847 3.45 3.45 0 11-1.948-6.299" transform="translate(169.66 253.91)"/><path d="M0 0l.187.187v20.049l5.674 5.674v45.684l3.285 3.284 1.197 1.198 1.281 1.279.187.187v36.605l4.377 4.381.185.186v41.152l-.185.184-1.553 1.554-6.834 6.834v9.729l-.191.189-8.821 8.819-2.199 2.199v12.242l7.042 7.042 6.711 6.71 4.05 4.049.186.187v6.626l2.133 1.668a3.436 3.436 0 012.281-.862 3.453 3.453 0 110 6.903 3.45 3.45 0 01-3.448-3.45c0-.573.137-1.114.384-1.589l-2.379-1.859-.247-.192v-6.715l-9.671-9.671-4.843-4.842-3.289-3.289-.187-.186V188.85l.19-.189.493-.494 2.793-2.792 4.843-4.841 2.892-2.892v-9.733l3.819-3.819 4.184-4.183.575-.575v-40.091l-3.361-3.361-1.02-1.022-.187-.186v-36.6l-.191-.191-1.074-1.075-4.498-4.496-.185-.185V26.44l-5.488-5.488-.187-.185V.716l-.122-.121-2.793-2.793-4.015-4.014-1.2-1.2-.168-.167v-185.17h1.272v184.64l.096.095 6.808 6.808z" transform="translate(375.1 192.75)"/><path d="M0 0l.186.187v38.802h-1.277V.716l-5.921-5.922-2.331-2.331-.185-.183v-.266l-.453-106.11h-1.87v105.98L-3.598.137l.186.188v38.249h-1.276V.853l-2.324-2.325-3.61-3.609L-12.94-7.4l-.188-.187.002-.265v-107.52h4.41l.004.635.455 106.48 1.245 1.244L-.038-.037z" transform="translate(300.53 120.96)"/><path d="M0 0c.001.676.245 1.297.644 1.783l.007-.007.431.432a2.8 2.8 0 001.722.601v-.003h.015v.003a2.814 2.814 0 001.987-.828A2.808 2.808 0 005.632.005h-.003V-.01h.003a2.811 2.811 0 00-.826-1.987 2.806 2.806 0 00-1.981-.824v.001h-.016v-.001A2.819 2.819 0 000-.017h.003V0zm-29.285 29.267c1.049 0 1.989.466 2.622 1.205l.384-.222 2.117-1.222V17.933l.187-.187 5.488-5.486.185-.186h8.656l.177-.176 4.476-4.478 4.736-4.736A4.066 4.066 0 01-1.271 0h-.003v-.017h.003A4.071 4.071 0 01-.078-2.893a4.076 4.076 0 012.887-1.2v-.003h.016v.003a4.077 4.077 0 012.878 1.194A4.079 4.079 0 016.904-.01h.001v.015h-.001a4.085 4.085 0 01-1.195 2.88 4.085 4.085 0 01-2.89 1.195v.003h-.015V4.08a4.04 4.04 0 01-2.075-.576l-5.722 5.722-3.937 3.938-.187.186h-8.66l-5.113 5.111v11.301l-.319.184-2.816 1.624c.126.36.192.747.192 1.149a3.452 3.452 0 11-3.452-3.452" transform="translate(182.31 278.15)"/></g><use transform="rotate(180 360 294.39)" width="100%" height="100%" xlink:href="#b"/><use id="c" transform="translate(720 -405)" width="100%" height="100%" xlink:href="#b"/><use transform="rotate(180 1440 80.035)" width="100%" height="100%" xlink:href="#c"/><use transform="translate(-720 -405)" width="100%" height="100%" xlink:href="#b"/></g></svg>