<?xml version="1.0" encoding="UTF-8"?>
<svg width="1920" height="1080" version="1.1" viewBox="0 0 1920 1080" xml:space="preserve" xmlns="http://www.w3.org/2000/svg" xmlns:xlink="http://www.w3.org/1999/xlink"><defs><clipPath id="c"><path d="M 0,485.035 H 648.988 V 0 H 0 Z"/></clipPath></defs><g transform="matrix(1.3333 0 0 -1.3333 0 646.71)"><g id="a" transform="matrix(1.8315 0 0 1.8315 125.7 -324.97)" clip-path="url(#c)"><g transform="translate(437.55 318.53)" fill="#302e30"><path d="m0 0c0 0.704 0.286 1.343 0.748 1.805 0.464 0.463 1.103 0.749 1.805 0.75v-2e-3h5e-3v2e-3c0.705 0 1.343-0.286 1.804-0.749 0.167-0.166 0.309-0.355 0.425-0.561 0.207-0.369 0.325-0.792 0.325-1.243h-2e-3v-4e-3h2e-3c0-0.454-0.118-0.879-0.325-1.248-0.116-0.205-0.258-0.393-0.423-0.558-0.463-0.462-1.101-0.75-1.803-0.75v3e-3h-6e-3v-3e-3c-0.704 0-1.343 0.287-1.805 0.749-0.463 0.463-0.749 1.101-0.75 1.804h3e-3v5e-3zm-58.822-221.64-2.751 2.751v81.44l2.751 2.752 6.711 6.711 10.259 10.26 8.039 8.037 0.187 0.189v64.724l-0.187 0.186-8.039 8.04-1.803 1.804v14.59l1.803 1.804 1.492 1.491h27.095l0.186 0.187 13.611 13.611c0.581-0.382 1.277-0.605 2.023-0.605v-3e-3h6e-3v3e-3c0.836 0 1.609 0.28 2.226 0.753 0.128 0.098 0.251 0.206 0.364 0.319 0.665 0.665 1.078 1.584 1.078 2.599h1e-3v4e-3h-1e-3c0 1.013-0.412 1.93-1.073 2.592-0.116 0.116-0.239 0.223-0.369 0.322-0.618 0.472-1.391 0.755-2.229 0.755v2e-3h-5e-3v-2e-3c-1.013 0-1.93-0.411-2.591-1.073-0.666-0.665-1.078-1.583-1.078-2.598h-2e-3v-5e-3h2e-3c0-0.819 0.267-1.575 0.721-2.185l-13.401-13.399h-27.095l-0.186-0.188-0.775-0.775-2.892-2.893-0.187-0.185v-15.649l0.187-0.188 2.892-2.893 6.95-6.951v-63.665l-27.762-27.762-0.186-0.185v-82.5l0.186-0.188 3.842-3.841 0.538-0.538-0.063-6.253-0.475-0.474-3.982-3.982-0.187-0.185v-15.962l-0.674-0.499-1.23-0.911v116.98l1.23 1.229 4.843 4.843 6.711 6.712 14.838 14.838 0.185 0.187v59.912l-0.185 0.187-4.579 4.579-5.335 5.334v20.136l4.054 4.049h26.279l0.186 0.187 13.895 13.895v4.927c1.6 0.3 2.814 1.706 2.814 3.394 0 1.904-1.545 3.45-3.452 3.45-1.904 0-3.45-1.546-3.45-3.45 0-1.688 1.211-3.095 2.812-3.395v-4.396l-13.335-13.335h-26.273l-4.615-4.615-0.19-0.187v-21.189l0.187-0.188 6.423-6.424 3.489-3.488v-58.855l-3.489-3.487-10.259-10.26-6.711-6.712-4.843-4.842-2.319-2.319-0.187-0.188v-120.04l1.018 0.754 1.488 1.103 1.692 1.251 0.258 0.193v16.069l2.893 2.893 1.56 1.559 0.182 0.182 2e-3 0.264 0.068 6.786 3e-3 0.27-0.186 0.187z" fill="#302e30"/></g><g transform="translate(301.26 432.49)" fill="#302e30"><path d="m0 0c0 0.773 0.317 1.477 0.826 1.984 0.508 0.507 1.207 0.822 1.977 0.825v-3e-3h0.017v3e-3c0.773-1e-3 1.476-0.319 1.986-0.828l1e-3 1e-3c0.506-0.508 0.821-1.208 0.823-1.976h-2e-3v-0.016h2e-3c0-0.776-0.317-1.479-0.825-1.987h-3e-3c-0.507-0.508-1.209-0.823-1.976-0.826v3e-3h-0.017v-3e-3c-0.774 1e-3 -1.476 0.318-1.985 0.826-0.507 0.508-0.822 1.21-0.824 1.981h2e-3v0.016zm-0.771-1.969c0.188-0.342 0.42-0.653 0.692-0.925 0.501-0.499 1.126-0.874 1.828-1.062v-4.078l0.188-0.187 0.878-0.88 9e-3 -8e-3 3.28-3.282 3.327-3.326 0.031-27.854-3.358-3.358-1.367-1.368-0.187-0.187v-41.503l-5.321-5.321-0.479-0.481-6.474-6.472-0.021-0.022-0.165-0.165v-10.684l0.165-0.164 0.021-0.023 2.587-2.586c-0.381-0.554-0.6-1.224-0.6-1.945 0-1.908 1.544-3.454 3.448-3.454 0.545 0 1.061 0.125 1.518 0.35 1.147 0.562 1.934 1.741 1.934 3.104 0 1.359-0.787 2.536-1.934 3.098-0.457 0.224-0.973 0.351-1.518 0.351-0.72 0-1.391-0.224-1.945-0.602l-2.4 2.4v9.625l5.294 5.294 0.569 0.57 3.586 3.586 2.825 2.824 0.186 0.188v41.502l0.278 0.279 3.89 3.889 0.556 0.557 0.08 0.081 0.105 0.104v0.266l-0.032 28.388v0.268l-0.073 0.071-0.111 0.112-0.525 0.524-3.89 3.891-3.079 3.079v3.415c1.046 0.054 1.99 0.499 2.681 1.19l-2e-3 2e-3c0.144 0.144 0.279 0.299 0.4 0.464 0.501 0.678 0.797 1.517 0.798 2.424h3e-3v0.016h-3e-3c-2e-3 0.904-0.298 1.74-0.798 2.415-0.12 0.163-0.252 0.316-0.395 0.459v4e-3c-0.736 0.737-1.76 1.195-2.889 1.197v2e-3h-0.017v-2e-3c-1.122-3e-3 -2.139-0.46-2.874-1.194-0.276-0.274-0.511-0.589-0.7-0.932-0.317-0.581-0.5-1.248-0.501-1.955h-2e-3v-0.016h2e-3c2e-3 -0.708 0.185-1.373 0.501-1.953" fill="#302e30"/></g><g transform="translate(297.67 304.44)" fill="#302e30"><path d="m0 0c1e-3 0.484 0.125 0.941 0.343 1.339l0.304 0.303-0.064 0.064c0.075 0.098 0.159 0.192 0.245 0.279l-1e-3 1e-3c0.507 0.507 1.208 0.822 1.976 0.823v-1e-3h0.016v1e-3c0.774 0 1.477-0.318 1.987-0.827l1e-3 1e-3c0.507-0.507 0.821-1.208 0.823-1.977h-2e-3v-0.016h2e-3c0-0.775-0.316-1.478-0.824-1.986-0.508-0.507-1.21-0.822-1.981-0.825v3e-3h-0.016v-3e-3c-0.773 1e-3 -1.476 0.316-1.984 0.826-0.506 0.508-0.822 1.209-0.825 1.978h3e-3v0.017zm-24.082 110.24v-2.897l0.192-0.189 4e-3 -4e-3 3.186-3.136 2.695-2.654 5.936-5.843v-6.175l0.189-0.19 4.112-4.111 1.372-1.371v-14.136l0.176-0.186 2.061-2.158 2.951-3.091v-20.742l-16.766-16.766-0.031-0.03-0.155-0.157v-12.34l0.186-0.186 10.206-10.205 3.609-3.61 2.22-2.219v-5.288l4.755-4.755 3.585-3.586 1.73-1.729v-21.218l0.184-0.184 1.376-1.377 3.89-3.888 0.636-0.637 0.294-0.295 0.397-0.396v-26.65l-0.397-0.395-0.294-0.295-7.816-7.816-0.438-0.437-0.187-0.188v-25.227l-2.96-2.959-5.727-5.727v54.424l-0.186 0.187-1.062 1.063-3.609 3.608-10.087 10.087v55.343l-1e-3 0.264-0.149 0.149-0.037 0.038-2.658 2.658-9.323 9.324v5.093c1.601 0.299 2.813 1.705 2.813 3.393 0 1.906-1.545 3.451-3.452 3.451-0.168 0-0.333-0.013-0.494-0.036-1.67-0.241-2.955-1.678-2.955-3.415 0-1.688 1.209-3.096 2.811-3.394v-5.622l12.168-12.168v-55.607l0.187-0.186 14.759-14.759v-55.436l-2e-3 -1.54 0.029 0.028 1.062 1.061 5.913 5.912 4.236 4.236v25.227l2.639 2.64 3.89 3.888 0.636 0.638 0.294 0.294 1.217 1.215 0.457 0.457v27.71l-0.187 0.185-0.27 0.27-1.217 1.216-0.93 0.93-3.89 3.891-0.288 0.289v21.217l-0.186 0.184-2.816 2.816-3.585 3.587-3.48 3.48v4.752c0.168-0.269 0.366-0.515 0.587-0.737 0.737-0.74 1.76-1.198 2.886-1.199v-3e-3h0.016v3e-3c1.124 2e-3 2.142 0.459 2.878 1.193 0.274 0.274 0.509 0.587 0.698 0.931 0.319 0.581 0.501 1.249 0.502 1.958h2e-3v0.016h-2e-3c-2e-3 0.707-0.184 1.372-0.502 1.952-0.186 0.34-0.421 0.652-0.692 0.923v3e-3c-0.736 0.737-1.76 1.196-2.89 1.197v2e-3h-0.016v-2e-3c-1.121-2e-3 -2.14-0.459-2.875-1.193h-3e-3c-0.086-0.087-0.171-0.18-0.25-0.275l-11.856 11.856v11.218l4.413 4.412 3.609 3.609 1.405 1.406 5.57 5.569 2.122 2.122 0.186 0.187v35.833l1.277 1.278 3.29 3.289 0.502 0.504 0.188 0.187v28.258l-0.188 0.186-0.502 0.503-3.29 3.289-3.585 3.587-6.975 6.975-3.609 3.61-1.404 1.404c0.647 0.628 1.049 1.508 1.049 2.481 0 1.904-1.544 3.448-3.451 3.448-1.904 0-3.45-1.544-3.45-3.448 0-1.907 1.546-3.453 3.45-3.453 0.465 0 0.907 0.091 1.312 0.257l2.494-2.495 3.609-3.609 6.975-6.976 3.585-3.586 2.703-2.702v-27.201l-2.703-2.702-2.366-2.367-0.186-0.188v-35.833l-1.033-1.032-5.715-5.714-1.26-1.262-3.609-3.608-5.502-5.5-0.184-0.184v-12.285l0.184-0.186 5.502-5.499 3.609-3.609 3.164-3.165c-0.177-0.458-0.275-0.955-0.276-1.477h-2e-3v-0.017h2e-3c1e-3 -0.404 0.059-0.796 0.17-1.166l-3.058 3.057-12.725 12.725v11.281l9.116 9.117 3.609 3.608 4.04 4.041 0.186 0.187v21.777l-0.176 0.186-4.05 4.241-0.962 1.006v14.157l-2.647 2.647-3.025 3.024v6.182l-0.192 0.188-7.02 6.91-2.695 2.654-2.105 2.072v2.369c0.853 0.16 1.597 0.633 2.105 1.297 0.446 0.581 0.71 1.309 0.71 2.097 0 0.787-0.264 1.513-0.71 2.094-0.631 0.824-1.625 1.356-2.743 1.356-1.904 0-3.45-1.546-3.45-3.45 0-1.689 1.212-3.096 2.811-3.395" fill="#302e30"/></g><g transform="translate(316.26 394.54)" fill="#302e30"><path d="m0 0 4.067-4.068v-19.962l0.187-0.187 1.724-1.725 0.638-0.637 4.092-4.095v-4.249c-1.602-0.299-2.812-1.703-2.812-3.39 0-1.907 1.545-3.453 3.45-3.453 1.907 0 3.451 1.546 3.451 3.453 0 1.686-1.212 3.09-2.813 3.39v4.773l-0.187 0.187-1.252 1.253-3.929 3.932-0.638 0.636-0.635 0.636v19.967l-0.187 0.187-5.156 5.158-0.745 0.744v24.166l3.393 3.147c0.574-0.425 1.287-0.677 2.056-0.677 0.45 0 0.88 0.086 1.274 0.243 0.225 0.089 0.438 0.201 0.638 0.334 0.927 0.618 1.541 1.675 1.541 2.876 0 1.197-0.614 2.254-1.541 2.872-0.2 0.133-0.413 0.244-0.638 0.335-0.394 0.156-0.824 0.243-1.274 0.243-1.905 0-3.45-1.546-3.45-3.45 0-0.677 0.193-1.309 0.529-1.842l-1.783-1.654-1.817-1.685-0.204-0.189v-25.248l0.185-0.187z" fill="#302e30"/></g><g transform="translate(385.44 97.23)" fill="#302e30"><path d="m0 0-5.727 5.728v76.874l5.727 5.726 10.26 10.26 11.497 11.495 0.183 0.185v74.449l12.654 12.653h8.819l0.188 0.187 10.484 10.485h7.741l0.188 0.186 3.82 3.82 2.272 2.273 0.185 0.185v14.129l-0.185 0.183-2.272 2.273-2.66 2.66v2.582c1.264 0.237 2.284 1.16 2.66 2.369 0.1 0.324 0.154 0.669 0.154 1.024 0 0.357-0.054 0.7-0.154 1.024-0.437 1.405-1.748 2.427-3.298 2.427-1.905 0-3.45-1.546-3.45-3.451 0-1.689 1.211-3.095 2.812-3.393v-3.112l0.145-0.144 0.042-0.043 3.749-3.748 1.186-1.186v-13.06l-1.186-1.187-4.537-4.536h-7.741l-0.187-0.186-10.485-10.485h-8.821l-13.394-13.394v-74.45l-10.409-10.409-10.26-10.258-6.711-6.712-0.105-0.106-0.187-0.186v-77.933l0.187-0.186 0.105-0.106 6.711-6.712 2.403-2.402v-6.818l-2.403-2.402-4.326-4.327-0.187-0.187v-61.964l0.187-0.188 4.326-4.325 0.47-0.47v-12.341h1.271v12.876l-0.185 0.184-1.556 1.557-3.236 3.236v60.905l3.236 3.238 3.492 3.493 0.188 0.185v7.877l-0.188 0.187z" fill="#302e30"/></g><g transform="translate(389.65 266.04)" fill="#302e30"><path d="m0 0c-1.904 0-3.451-1.546-3.451-3.451 0-1.907 1.547-3.452 3.451-3.452 0.724 0 1.394 0.221 1.949 0.602l2.193-2.194v-27.742l-3.024-3.024c-0.553 0.379-1.222 0.601-1.946 0.601-1.675 0-3.072-1.196-3.385-2.779-0.043-0.217-0.065-0.442-0.065-0.67 0-0.23 0.022-0.454 0.065-0.671 0.313-1.586 1.71-2.783 3.385-2.783 1.907 0 3.452 1.546 3.452 3.454 0 0.721-0.224 1.391-0.603 1.945l3.21 3.211 0.188 0.184v28.805l-0.188 0.185-2.381 2.382c0.38 0.554 0.604 1.225 0.604 1.946 0 1.905-1.547 3.451-3.454 3.451" fill="#302e30"/></g><g transform="translate(282.48 200.36)" fill="#302e30"><path d="m0 0c-1e-3 -0.771-0.318-1.477-0.829-1.986l3e-3 -1e-3c-0.509-0.507-1.21-0.822-1.981-0.825v3e-3h-0.015v-3e-3c-0.774 1e-3 -1.477 0.319-1.983 0.827-0.324 0.324-0.569 0.727-0.705 1.177-0.078 0.255-0.119 0.525-0.121 0.803h3e-3v0.016h-3e-3c1e-3 0.28 0.043 0.552 0.121 0.809 0.136 0.45 0.382 0.852 0.705 1.175 0.508 0.507 1.209 0.823 1.977 0.824v-1e-3h0.016v1e-3c0.774 0 1.479-0.315 1.987-0.824v-3e-3c0.508-0.509 0.824-1.208 0.825-1.974h-1e-3v-0.018zm-39.754 122.4c1.689 0 3.094 1.211 3.392 2.813h3.716l9.003-9.002 7.676-7.674 4.934-4.934v-46.65l0.185-0.186 5.338-5.339 2.695-2.696 5.703-5.702v-36.96l-3.001-3.001c-0.72 0.634-1.664 1.019-2.699 1.021v2e-3h-0.016v-2e-3c-1.027-3e-3 -1.966-0.386-2.682-1.014-0.067-0.058-0.13-0.118-0.192-0.18-0.74-0.738-1.199-1.761-1.2-2.887h-2e-3v-0.016h2e-3c3e-3 -1.125 0.459-2.142 1.194-2.877 0.063-0.064 0.13-0.126 0.198-0.185 0.718-0.63 1.659-1.015 2.688-1.015v-3e-3h0.015v3e-3c1.125 2e-3 2.142 0.458 2.878 1.193h3e-3c0.738 0.737 1.197 1.76 1.198 2.889h2e-3v0.018h-2e-3c-2e-3 0.752-0.21 1.461-0.566 2.066l3.271 3.271 0.187 0.188v38.019l-13.925 13.925v46.385l-1e-3 0.268-0.184 0.184-13.697 13.695-8.473 8.473h-4.246c-0.3 1.6-1.704 2.812-3.392 2.812-1.905 0-3.451-1.546-3.451-3.45 0-1.907 1.546-3.452 3.451-3.452" fill="#302e30"/></g><g transform="translate(290.77 360.16)" fill="#302e30"><path d="m0 0h5e-3v2e-3c0.773-1e-3 1.476-0.318 1.986-0.828l2e-3 2e-3c0.36-0.362 0.625-0.822 0.748-1.336 0.049-0.206 0.073-0.421 0.075-0.641h-2e-3v-0.016h2e-3c0-0.223-0.026-0.441-0.075-0.649-0.123-0.515-0.388-0.975-0.75-1.337-0.508-0.507-1.21-0.823-1.981-0.825v2e-3h-0.016v-2e-3c-0.301 1e-3 -0.591 0.048-0.863 0.136-0.427 0.139-0.81 0.378-1.12 0.69-0.508 0.508-0.823 1.208-0.825 1.979h2e-3v0.016h-2e-3c1e-3 0.772 0.318 1.475 0.828 1.984l-2e-3 2e-3c0.311 0.31 0.694 0.547 1.119 0.685 0.271 0.089 0.558 0.137 0.858 0.138v-2e-3zm-31.933 19.727c0.292-0.08 0.598-0.122 0.913-0.122 0.697 0 1.344 0.206 1.886 0.56l4.238-4.438 0.188-0.198h14.507l9.332-9.771 0.41-0.429v-4.081c-0.14-0.016-0.276-0.039-0.41-0.068-0.779-0.169-1.475-0.557-2.017-1.099h-3e-3c-0.737-0.737-1.195-1.759-1.198-2.888h-1e-3v-0.016h1e-3c4e-3 -1.124 0.46-2.141 1.195-2.877 0.543-0.545 1.242-0.938 2.023-1.107 0.279-0.061 0.567-0.093 0.863-0.093v-2e-3h0.016v2e-3c1.051 3e-3 2.01 0.402 2.731 1.053 0.05 0.046 0.099 0.093 0.146 0.141 0.739 0.739 1.199 1.762 1.2 2.889h3e-3v0.016h-3e-3c-2e-3 1.122-0.458 2.141-1.193 2.876v2e-3c-0.05 0.05-0.101 0.099-0.153 0.146-0.532 0.478-1.193 0.82-1.924 0.968v4.391l-1e-3 0.253-0.176 0.186-1.509 1.579-8.599 9.004-0.189 0.197h-14.507l-0.093 0.097-3.958 4.146c0.408 0.567 0.648 1.263 0.648 2.014 0 1.903-1.546 3.45-3.453 3.45-0.315 0-0.621-0.043-0.913-0.123-1.461-0.4-2.537-1.739-2.537-3.327 0-1.591 1.076-2.931 2.537-3.331" fill="#302e30"/></g><g transform="translate(318.48 286.38)" fill="#302e30"><path d="m0 0c-0.131-0.481-0.385-0.909-0.728-1.252l1e-3 -2e-3c-0.397-0.397-0.913-0.676-1.487-0.779-0.16-0.029-0.325-0.044-0.492-0.044v2e-3h-0.015v-2e-3c-0.775 0-1.477 0.317-1.985 0.825-0.138 0.139-0.261 0.29-0.368 0.454-0.287 0.44-0.455 0.965-0.457 1.526h3e-3v0.017h-3e-3c2e-3 0.562 0.169 1.088 0.457 1.528 0.108 0.165 0.231 0.317 0.369 0.454 0.508 0.508 1.208 0.824 1.978 0.826v-2e-3h0.015v2e-3c0.17 0 0.336-0.016 0.498-0.044 0.574-0.106 1.091-0.385 1.489-0.784 0.388-0.388 0.664-0.892 0.771-1.45h-0.1v-1.275zm-1.058 32.884c0-0.737-0.289-1.411-0.755-1.911l-0.07-0.076-0.059-0.057c-0.087-0.081-0.177-0.158-0.272-0.229-0.464-0.337-1.034-0.536-1.649-0.538v3e-3h-0.017v-3e-3c-0.427 0-0.83 0.097-1.194 0.269-0.295 0.139-0.562 0.328-0.789 0.556-0.163 0.164-0.307 0.348-0.428 0.547-0.126 0.213-0.225 0.442-0.294 0.685-0.065 0.238-0.103 0.49-0.103 0.748h2e-3v0.016h-2e-3c0 0.26 0.037 0.511 0.103 0.752 0.069 0.242 0.168 0.472 0.294 0.684 0.121 0.2 0.265 0.385 0.429 0.548 0.228 0.228 0.493 0.416 0.788 0.555 0.363 0.172 0.765 0.269 1.189 0.27v-2e-3h0.016v2e-3c0.616-1e-3 1.189-0.203 1.655-0.542 0.117-0.087 0.228-0.182 0.331-0.286 0.508-0.507 0.823-1.208 0.825-1.976h-2e-3v-0.015zm5.459-137.94-0.447 0.446v76.626l0.447 0.446 8.642 8.643 0.187 0.188v14.817l-0.187 0.187-8.642 8.643-0.638 0.636-0.977 0.978v21.03l-0.222 0.193-3.089 2.77c0.464 0.662 0.738 1.471 0.74 2.341h2e-3v0.015h-2e-3c-3e-3 1.125-0.46 2.144-1.194 2.879-0.354 0.352-0.772 0.641-1.235 0.847-0.507 0.224-1.066 0.349-1.655 0.35v3e-3h-0.016v-3e-3c-0.413-1e-3 -0.813-0.064-1.189-0.18-0.442-0.135-0.851-0.344-1.217-0.612-0.1-0.074-0.199-0.154-0.294-0.238-0.059-0.052-0.118-0.108-0.175-0.164-0.169-0.169-0.322-0.354-0.461-0.551-0.465-0.662-0.738-1.467-0.739-2.336h-2e-3v-0.016h2e-3c2e-3 -0.869 0.276-1.674 0.739-2.335 0.136-0.193 0.289-0.375 0.454-0.542 0.059-0.059 0.121-0.116 0.182-0.171 0.095-0.084 0.194-0.164 0.294-0.238 0.366-0.268 0.775-0.475 1.217-0.612 0.379-0.117 0.78-0.179 1.194-0.179v-2e-3h0.017v2e-3c0.586 2e-3 1.144 0.126 1.649 0.35 0.287 0.127 0.556 0.288 0.804 0.475l2.919-2.623v-20.982l0.188-0.187 2.066-2.067 0.638-0.637 7.553-7.553v-13.76l-7.553-7.553-0.638-0.637-0.895-0.898-0.185-0.183v-77.694l0.185-0.185 0.895-0.896 9.435-9.435v-122.63l-2.876-2.876v126.17l-0.187 0.188-9.498 9.498v77.047l3.126 3.126 0.638 0.636 5.183 5.186 0.187 0.187v14.399l-0.187 0.186-5.183 5.184-0.448 0.447-0.187 0.186h-2.431c-0.119 0.914-0.539 1.735-1.158 2.353-0.626 0.627-1.461 1.052-2.391 1.165-0.163 0.02-0.329 0.031-0.498 0.031v3e-3h-0.015v-3e-3c-0.874-1e-3 -1.683-0.279-2.347-0.748-0.188-0.134-0.365-0.283-0.528-0.445-0.27-0.268-0.501-0.576-0.689-0.911-0.114-0.211-0.214-0.431-0.294-0.663-0.139-0.412-0.217-0.853-0.218-1.312h-1e-3v-0.017h1e-3c2e-3 -0.458 0.079-0.9 0.218-1.311 0.08-0.23 0.178-0.452 0.294-0.662 0.187-0.333 0.416-0.637 0.682-0.903 0.165-0.167 0.345-0.318 0.535-0.454 0.665-0.47 1.477-0.746 2.353-0.748v-2e-3h0.015v2e-3c0.165 0 0.33 0.011 0.492 0.03 0.927 0.113 1.759 0.539 2.386 1.164h4e-3c0.573 0.574 0.976 1.32 1.128 2.156h1.933l0.526-0.527 0.638-0.637 4.094-4.094v-13.34l-4.094-4.095-0.638-0.637-4.402-4.402v-78.106l0.187-0.187 4.215-4.217 0.638-0.636 4.644-4.645v-128.72l1.09 1.09 4.152 4.154 0.188 0.187v123.68l-0.188 0.186z" fill="#302e30"/></g><g transform="translate(397.69 111.08)" fill="#302e30"><path d="m0 0c0.508-0.507 0.823-1.207 0.824-1.977h-1e-3v-0.016h1e-3c0-0.776-0.315-1.48-0.824-1.986-0.508-0.508-1.21-0.824-1.979-0.826v2e-3h-0.017v-2e-3c-0.774 1e-3 -1.477 0.317-1.983 0.826-0.507 0.508-0.824 1.209-0.826 1.98h2e-3v0.017h-2e-3c1e-3 0.771 0.319 1.475 0.828 1.984l-2e-3 1e-3c0.509 0.506 1.208 0.82 1.977 0.823v-3e-3h0.017v3e-3c0.774 0 1.478-0.317 1.985-0.826m73.253 34.719c-1.201 0-2.261-0.615-2.88-1.549-0.249-0.376-0.425-0.804-0.511-1.262h-5.745l-8.129 8.129-0.188 0.187h-28.26l-0.186-0.187-7.853-7.852h-10.419l-0.186-0.187-10.885-10.887-0.474-0.474-0.188-0.187v-18.402c-0.864-0.141-1.634-0.554-2.226-1.144h-3e-3c-0.737-0.736-1.195-1.759-1.196-2.886h-3e-3v-0.017h3e-3c2e-3 -1.124 0.459-2.143 1.193-2.877 0.737-0.74 1.761-1.199 2.887-1.2v-2e-3h0.017v2e-3c1.124 2e-3 2.142 0.459 2.875 1.193 0.741 0.739 1.201 1.762 1.201 2.89h3e-3v0.016h-3e-3c-2e-3 1.122-0.458 2.14-1.193 2.874-0.602 0.603-1.396 1.021-2.279 1.157v17.867l10.988 10.988h10.417l0.188 0.186 7.851 7.853h27.202l5.428-5.427 2.702-2.703 0.188-0.186h6.274c0.086-0.458 0.262-0.885 0.51-1.262 0.619-0.934 1.679-1.554 2.88-1.554 1.908 0 3.454 1.547 3.454 3.455 0 1.902-1.546 3.448-3.454 3.448" fill="#302e30"/></g><g transform="translate(480.78 319.02)" fill="#302e30"><path d="m0 0-0.187-0.187-8.682-8.683h-12.784v13.935l5.763 5.762 0.186 0.187v18.448l2.983 2.984 2.803 2.802c0.555-0.379 1.228-0.601 1.949-0.601 1.906 0 3.452 1.545 3.452 3.453 0 1.904-1.546 3.45-3.452 3.45-1.904 0-3.45-1.546-3.45-3.45 0-0.723 0.221-1.395 0.599-1.949l-1.901-1.899-4.072-4.073-0.187-0.187v-18.449l-5.415-5.414-0.347-0.347-0.188-0.187v-15.742h14.59l0.187 0.187 8.682 8.684h7.452l0.19 0.189 4.321 4.321c0.555-0.38 1.227-0.601 1.949-0.601 1.908 0 3.453 1.545 3.453 3.451s-1.545 3.45-3.453 3.45c-1.905 0-3.45-1.544-3.45-3.45 0-0.721 0.222-1.394 0.601-1.949l-4.134-4.135h-7.193z" fill="#302e30"/></g><g transform="translate(448.82 283.89)" fill="#302e30"><path d="m0 0c0-1.562 1.035-2.88 2.457-3.307 0.314-0.094 0.647-0.145 0.992-0.145 1.907 0 3.453 1.545 3.453 3.452 0 1.905-1.546 3.45-3.453 3.45-0.345 0-0.678-0.051-0.992-0.145-1.422-0.428-2.457-1.745-2.457-3.305" fill="#302e30"/></g><g transform="translate(512.24 170.69)" fill="#302e30"><path d="m0 0c-0.723 0-1.395-0.222-1.949-0.602l-0.756 0.757-0.191 0.192-0.267-5e-3 -3.777-0.048-9.874-0.126-10.425 10.426v5.417l-0.19 0.187-1.592 1.593-3.12 3.118-0.187 0.187h-9.314c-0.247 1.321-1.247 2.376-2.538 2.705-0.272 0.069-0.558 0.106-0.855 0.106-1.903 0-3.448-1.546-3.448-3.45 0-1.907 1.545-3.452 3.448-3.452 0.297 0 0.583 0.038 0.855 0.108 1.291 0.328 2.29 1.385 2.538 2.705h8.791l3.83-3.827 0.505-0.505v-5.422l10.987-10.987 0.187-0.188 0.271 3e-3 12.433 0.159 1.222 0.016 0.567-0.568c-0.38-0.556-0.601-1.228-0.601-1.951 0-1.906 1.547-3.452 3.45-3.452 1.906 0 3.453 1.546 3.453 3.452 0 1.905-1.547 3.452-3.453 3.452" fill="#302e30"/></g><g transform="translate(480.41 310.88)" fill="#302e30"><path d="m0 0c1e-3 0.774 0.317 1.478 0.825 1.983 0.509 0.508 1.209 0.824 1.978 0.826v-2e-3h0.015v2e-3c0.774 0 1.479-0.319 1.988-0.828 0.507-0.508 0.823-1.209 0.825-1.976h-2e-3v-0.015h2e-3c-1e-3 -0.775-0.318-1.48-0.825-1.987-0.508-0.506-1.21-0.822-1.982-0.825v3e-3h-0.015v-3e-3c-0.705 2e-3 -1.354 0.262-1.847 0.694l-0.432 0.474c-0.333 0.462-0.529 1.029-0.53 1.637h2e-3v0.017zm-27.504-16.735 5.487 5.485 4.529 4.53h13.944l0.184 0.166 3.654 3.328c0.693-0.542 1.568-0.865 2.515-0.867v-2e-3h0.015v2e-3c1.124 3e-3 2.142 0.46 2.878 1.194 0.739 0.737 1.2 1.76 1.2 2.889h2e-3v0.015h-2e-3c-2e-3 1.125-0.459 2.144-1.194 2.879-0.736 0.737-1.76 1.195-2.89 1.197v2e-3h-0.015v-2e-3c-1.121-3e-3 -2.139-0.46-2.874-1.193-0.74-0.739-1.2-1.761-1.2-2.888h-2e-3v-0.017h2e-3c1e-3 -0.843 0.257-1.627 0.697-2.276l-3.46-3.151h-13.985l-0.186-0.187-3.812-3.813-6.574-6.573-0.184-0.183v-7.348h1.271z" fill="#302e30"/></g><g transform="translate(491.98 291.02)" fill="#302e30"><path d="m0 0h-0.265l-0.186-0.187-8.31-8.309-1.107-1.106-0.187-0.186 3e-3 -0.266 7e-3 -7.226-11.454-11.455-0.185-0.185v-0.267l7e-3 -16.466 1e-3 -2.671-2.244-2.179-3.097-3.009-0.194-0.189v-10.438l-6.383-6.382-5.018-5.019h-5.633c-0.298 1.602-1.703 2.813-3.394 2.813-0.747 0-1.439-0.237-2.005-0.641-0.874-0.626-1.444-1.651-1.444-2.808 0-1.158 0.57-2.182 1.444-2.808 0.566-0.405 1.258-0.643 2.005-0.643 1.689 0 3.093 1.214 3.393 2.816h6.167l0.185 0.184 4.3 4.3 7.472 7.473 0.187 0.186v10.433l2.015 1.96 3.324 3.227 0.193 0.186v0.269l-3e-3 4.434-6e-3 14.705 11.455 11.455 0.184 0.186v0.266l-7e-3 7.226 9.045 9.045h14.072l0.181 0.155 3.92 3.343c0.593-0.479 1.348-0.766 2.169-0.766 1.908 0 3.453 1.546 3.453 3.453 0 1.903-1.545 3.449-3.453 3.449-1.904 0-3.449-1.546-3.449-3.449 0-0.625 0.163-1.213 0.452-1.72l-3.738-3.189z" fill="#302e30"/></g><g transform="translate(346.28 408.95)" fill="#302e30"><path d="m0 0c0.556-0.381 1.227-0.602 1.949-0.602 1.906 0 3.451 1.546 3.451 3.453 0 1.904-1.545 3.45-3.451 3.45-1.905 0-3.45-1.546-3.45-3.45 0-0.722 0.22-1.393 0.6-1.948l-2.464-2.463-0.187-0.187v-21.862l0.187-0.186 1.611-1.612 14.761-14.76v-11.051l-15.871-15.871-0.188-0.186v-6.261l-5.619-5.621c-0.556 0.38-1.224 0.603-1.946 0.603-1.905 0-3.45-1.546-3.45-3.451 0-1.906 1.545-3.451 3.45-3.451 1.906 0 3.452 1.545 3.452 3.451 0 0.725-0.226 1.393-0.606 1.947l5.808 5.812 0.188 0.187v6.253l16.058 16.058v12.111l-0.186 0.186-0.828 0.827-14.779 14.778-0.765 0.766v20.804z" fill="#302e30"/></g><g transform="translate(257.53 223.27)" fill="#302e30"><path d="m0 0h-4e-3v-2e-3c-0.774 1e-3 -1.477 0.316-1.985 0.826-0.507 0.508-0.823 1.208-0.824 1.979h1e-3v0.016h-1e-3c0 0.774 0.317 1.478 0.826 1.985 0.506 0.507 1.207 0.822 1.976 0.824v-2e-3h0.016v2e-3c0.472 0 0.917-0.117 1.308-0.324 0.251-0.133 0.479-0.304 0.679-0.504l2e-3 3e-3c0.506-0.508 0.82-1.208 0.822-1.978h-2e-3v-0.015h2e-3c0-0.776-0.316-1.479-0.825-1.987-0.199-0.199-0.427-0.367-0.678-0.5-0.39-0.206-0.834-0.324-1.301-0.325v2e-3zm29.59-90.737v51.778l-7.45 7.45-2.695 2.696-10.457 10.457-2.576 2.575v10.942l2.576 2.575 1.013 1.013 0.187 0.188v5.874l-0.187 0.186-1.013 1.012-7.675 7.675-1.028 1.027v22.349l5.509 5.509v-21.736l0.184-0.185 1.756-1.755c-0.38-0.556-0.603-1.228-0.603-1.951 0-1.331 0.755-2.487 1.857-3.062 0.479-0.249 1.02-0.39 1.595-0.39 1.906 0 3.452 1.546 3.452 3.452 0 1.904-1.546 3.45-3.452 3.45-0.575 0-1.116-0.14-1.595-0.389-0.121-0.064-0.241-0.133-0.354-0.211l-1.569 1.569v24.285l-5.752-5.752-2.117-2.118-0.186-0.188v-23.405l0.186-0.188 9.715-9.715v-4.814l-3.587-3.589-0.187-0.187v-12.002l0.187-0.186 3.664-3.665 10.457-10.455 2.695-2.697 6.175-6.175v-50.723l-1.686-1.684v51.033l-0.185 0.183-4.304 4.305-2.695 2.696-10.457 10.456-7.675 7.676-0.255 0.255v14.16c0.086 0.024 0.172 0.05 0.255 0.077 0.601 0.204 1.139 0.539 1.575 0.977 0.74 0.737 1.199 1.761 1.2 2.889h2e-3v0.015h-2e-3c-3e-3 1.121-0.459 2.141-1.192 2.875v4e-3c-0.439 0.438-0.979 0.777-1.583 0.982-0.41 0.137-0.85 0.214-1.308 0.214v3e-3h-0.016v-3e-3c-1.121-3e-3 -2.138-0.46-2.874-1.193-0.74-0.739-1.198-1.761-1.2-2.888h-3e-3v-0.016h3e-3c2e-3 -1.124 0.459-2.141 1.193-2.876 0.693-0.694 1.631-1.139 2.674-1.194v-14.554l0.187-0.188 1.344-1.345 24.044-24.044v-53.571l1.085 1.083 2.959 2.959z" fill="#302e30"/></g><g transform="translate(364.26 426.57)" fill="#302e30"><path d="m0 0c1e-3 0.772 0.319 1.475 0.828 1.984l-2e-3 2e-3c0.228 0.228 0.494 0.415 0.789 0.555 0.362 0.171 0.765 0.268 1.189 0.268v-1e-3h0.015v1e-3c0.776 0 1.48-0.316 1.987-0.825 0.507-0.507 0.822-1.208 0.825-1.978h-3e-3v-0.016h3e-3c-1e-3 -0.776-0.318-1.479-0.826-1.987-0.508-0.506-1.209-0.823-1.98-0.824v1e-3h-0.015v-1e-3c-0.426 0-0.831 0.093-1.193 0.263l0.019 0.019-0.021 0.021-0.427 0.431-0.449 0.451-0.127-0.126c-0.382 0.48-0.61 1.089-0.612 1.746h2e-3v0.016zm-26.831-26.158c1.907 0 3.453 1.545 3.453 3.452 0 1.685-1.214 3.09-2.814 3.391v2.357l9.728 9.729h13.407l0.187 0.187 2.161 2.16 1.389 1.387c0.29-0.178 0.604-0.32 0.935-0.422 0.378-0.114 0.78-0.176 1.195-0.176v-2e-3h0.015v2e-3c1.124 3e-3 2.142 0.459 2.878 1.194 0.568 0.567 0.971 1.303 1.127 2.126 0.047 0.247 0.072 0.502 0.073 0.763h2e-3v0.016h-2e-3c-1e-3 0.258-0.026 0.51-0.073 0.755-0.155 0.82-0.557 1.554-1.121 2.12-0.739 0.74-1.762 1.199-2.89 1.201v2e-3h-0.015v-2e-3c-0.413-2e-3 -0.813-0.065-1.189-0.18-0.645-0.198-1.221-0.55-1.686-1.014h-4e-3c-0.244-0.244-0.457-0.52-0.634-0.82-0.356-0.606-0.561-1.313-0.562-2.068h-2e-3v-0.016h2e-3c1e-3 -0.754 0.206-1.459 0.562-2.065 0.122-0.206 0.263-0.402 0.419-0.584l-0.419-0.418-1.788-1.788-1.084-1.082h-13.412l-0.187-0.186-10.102-10.103-0.188-0.186v-2.887c-1.599-0.299-2.81-1.704-2.81-3.391 0-1.907 1.544-3.452 3.449-3.452" fill="#302e30"/></g><g transform="translate(198.94 323.25)" fill="#302e30"><path d="m0 0 3.521 3.519 0.186 0.186v2.861c1.602 0.3 2.813 1.706 2.813 3.396 0 1.904-1.544 3.45-3.452 3.45-1.336 0-2.494-0.761-3.068-1.873-0.244-0.472-0.382-1.009-0.382-1.577 0-0.569 0.138-1.107 0.382-1.581 0.48-0.93 1.37-1.614 2.431-1.813v-2.333l-2.431-2.43-1.512-1.511-0.187-0.187v-15.438l0.187-0.189 1.512-1.512 3.135-3.136 0.188-0.188h7.865l1.068-1.069 1.901-1.901 1.233-1.234 2.171-2.169 4.116-4.117 0.186-0.187h11.049l12.634-12.634v-75.145l0.186-0.188 1.872-1.872 12.294-12.295 7.676-7.675 5.121-5.12v-33.576l-10.712-10.712h-3.725l1.64 1.641 9.196 9.196 0.186 0.187v34.653l-0.186 0.187-1.52 1.518-7.676 7.675-16.652 16.652v72.635l-0.186 0.187-4.985 4.985-0.187 0.186h-3.513c-0.3 1.6-1.704 2.812-3.393 2.812-1.903 0-3.45-1.545-3.45-3.449 0-1.908 1.547-3.454 3.45-3.454 1.689 0 3.094 1.212 3.393 2.815h2.984l4.611-4.611v-72.635l0.186-0.186 5.448-5.449 12.294-12.294 7.676-7.674 0.429-0.43v-33.594l-8.105-8.105-3.63-3.633-1.088-1.087h7.337l0.185 0.184 4.872 4.874 6.392 6.392v34.643l-0.184 0.184-6.208 6.209-7.676 7.675-12.294 12.296-0.781 0.781v75.146l-0.187 0.187-13.007 13.008-0.187 0.187h-11.049l-4.832 4.831-2.171 2.172-1.233 1.234-1.901 1.9-0.35 0.351-0.184 0.185h-7.871l-4.274 4.274v14.386z" fill="#302e30"/></g><g transform="translate(409.29 276.25)" fill="#302e30"><path d="m0 0v-68.913l-13.59-13.589-10.26-10.261-3.498-3.496-0.186-0.189v-32.315l0.186-0.188 12.248-12.248 0.452-0.451 0.452 0.451 0.606 0.607 9.939 9.939h7.998l9.149 9.149h22.264l0.185 0.183 6.039 6.04 3.754 3.755h6.92c0.301-1.601 1.706-2.814 3.392-2.814 1.106 0 2.092 0.52 2.722 1.331 0.458 0.584 0.73 1.321 0.73 2.121 0 0.799-0.272 1.535-0.73 2.12-0.63 0.809-1.616 1.328-2.722 1.328-1.687 0-3.093-1.21-3.392-2.81h-7.45l-0.187-0.187-3.037-3.038-6.757-6.758h-22.265l-0.185-0.184-8.964-8.964h-8l-0.183-0.184-9.22-9.222-1.058-1.057-9.202 9.201-2.408 2.409v31.258l12.668 12.668 14.679 14.68 0.187 0.187v68.911l3.122 3.123c0.555-0.38 1.227-0.6 1.949-0.6 1.907 0 3.453 1.545 3.453 3.452 0 1.905-1.546 3.45-3.453 3.45-1.905 0-3.45-1.545-3.45-3.45 0-0.723 0.22-1.395 0.599-1.947l-3.309-3.31z" fill="#302e30"/></g><g transform="translate(458.38 207.42)" fill="#302e30"><path d="m0 0v-2e-3h0.017v2e-3c0.775-1e-3 1.478-0.317 1.985-0.825 0.508-0.508 0.823-1.208 0.826-1.978h-3e-3v-0.016h3e-3c-2e-3 -0.773-0.319-1.478-0.829-1.988-0.508-0.507-1.208-0.823-1.977-0.825v2e-3h-0.016v-2e-3c-0.775 1e-3 -1.477 0.318-1.985 0.826-0.506 0.508-0.822 1.21-0.824 1.981h2e-3v0.015h-2e-3c1e-3 0.773 0.319 1.476 0.827 1.985l-1e-3 3e-3c0.508 0.505 1.208 0.82 1.977 0.822m-10.119 96.355h-5.522l-0.185-0.188-0.211-0.21-2.231-2.23-3.098-3.099-0.186-0.188v-15.253l-12.82-12.82-0.187-0.185v-9.729l-10.605-10.606-0.187-0.187v-44.933l-7.845-7.845-1.09-1.089h7.618l0.188 0.187 8.306 8.307 0.187 0.187v27.184l8.356 8.355 3.375-3.376v-5.795c-1.529-0.354-2.667-1.726-2.667-3.363s1.138-3.007 2.667-3.362v-22.553l-11.426-11.425h-22.257l-0.186-0.187-2.551-2.551-10.26-10.258-0.45-0.452-0.186-0.186v-23.035l0.186-0.187 0.45-0.451 2.869-2.868 1.089-1.09v24.609l6.302 6.301 4.643 4.645h24.888l0.187 0.185 14.69 14.69 2.231 2.23 7.292 7.292h6.896c-0.38-0.195-0.726-0.449-1.027-0.748h-2e-3c-0.737-0.736-1.195-1.758-1.197-2.888h-2e-3v-0.015h2e-3c4e-3 -1.123 0.46-2.143 1.194-2.878 0.737-0.739 1.762-1.198 2.887-1.201v-1e-3h0.016v1e-3c1.023 4e-3 1.955 0.382 2.668 1.001l5.695-5.696 0.187-0.189h10.203l0.19 0.189 2.719 2.72h17.839l0.187 0.187 5.408 5.407 0.187 0.187v7.761l1.429 1.43c0.555-0.381 1.226-0.604 1.948-0.604 1.907 0 3.453 1.546 3.453 3.453 0 1.905-1.546 3.45-3.453 3.45-1.905 0-3.452-1.545-3.452-3.45 0-0.722 0.222-1.393 0.601-1.947l-1.803-1.803v-7.76l-5.034-5.035h-17.834l-2.908-2.908h-9.154l-5.586 5.586c0.369 0.614 0.587 1.334 0.587 2.106h3e-3v0.016h-3e-3c-2e-3 1.122-0.459 2.14-1.194 2.875-0.738 0.74-1.76 1.199-2.888 1.199v2e-3h-0.017v-2e-3c-0.569 0-1.112-0.119-1.604-0.331l1.617 1.617 9.674 9.675 6.93 6.929 0.186 0.187v19.704l3.686 3.687 0.187 0.187v8.602l4.17 4.169 8.748 8.748h15.806l0.195 0.246 0.947 1.209c0.477-0.249 1.02-0.388 1.595-0.388 1.907 0 3.452 1.545 3.452 3.453 0 1.904-1.545 3.449-3.452 3.449-1.904 0-3.449-1.545-3.449-3.449 0-0.872 0.321-1.67 0.854-2.277l-0.757-0.966h-15.722l-0.186-0.188-8.031-8.031-5.26-5.259-0.187-0.185v-8.611l-3.685-3.686-0.187-0.186v-19.698l-5.84-5.84-9.674-9.675-2.261-2.26h-7.026l-0.188-0.187-6.575-6.575-2.231-2.232-15.406-15.406h-24.889l-0.186-0.185-3.927-3.928-7.391-7.391-0.187-0.186v-22.057l-2.042 2.043v21.977l12.887 12.887h22.258l0.186 0.187 11.797 11.797 0.185 0.183v23.033c1.674 0.237 2.963 1.676 2.963 3.416s-1.289 3.178-2.963 3.417v6.275l-0.185 0.184-4.012 4.013-0.451 0.452-9.445-9.445-0.187-0.186v-27.186l-7.934-7.935h-4.006l6.941 6.943 0.188 0.186v44.933l10.605 10.607 0.187 0.187v9.727l12.819 12.82 0.187 0.186v15.254l2.008 2.009 2.231 2.231 0.928 0.927h5.52l8.13 8.13v23.574l1.472 1.471 4.012 4.015 0.188 0.188v13.873l5.474 5.474 9.73 9.729c0.555-0.38 1.227-0.601 1.948-0.601 1.907 0 3.452 1.545 3.452 3.453 0 1.905-1.545 3.45-3.452 3.45-1.903 0-3.449-1.545-3.449-3.45 0-0.723 0.22-1.395 0.599-1.948l-8.828-8.828-6.564-6.563-0.186-0.186v-13.875l-2.924-2.925-2.562-2.561-0.186-0.186v-23.575l-4.367-4.366z" fill="#302e30"/></g><g transform="translate(196.13 192.96)" fill="#302e30"><path d="m0 0c1e-3 0.774 0.318 1.479 0.826 1.985 0.508 0.507 1.208 0.823 1.978 0.825v-2e-3h0.015v2e-3c0.774-1e-3 1.478-0.318 1.988-0.828l1e-3 1e-3c0.507-0.507 0.821-1.208 0.823-1.976h-2e-3v-0.017h2e-3c-1e-3 -0.774-0.316-1.477-0.825-1.986-0.508-0.506-1.21-0.821-1.98-0.824v3e-3h-0.016v-3e-3c-0.773 0-1.477 0.316-1.985 0.825-0.507 0.508-0.823 1.209-0.825 1.979h2e-3v0.016zm-56.412 31.324c0.723 0 1.395 0.224 1.95 0.604l2.909-2.908 0.457-0.458v-7.909l0.191-0.189 6.297-6.297 0.186-0.187h17.907l3.225-3.224 4.476-4.477 6.832-6.829 0.186-0.186h10.592c0.151-0.835 0.553-1.581 1.126-2.156 0.739-0.741 1.762-1.199 2.888-1.2v-3e-3h0.016v3e-3c1.124 3e-3 2.142 0.459 2.878 1.194 0.739 0.738 1.198 1.761 1.199 2.888h3e-3v0.017h-3e-3c-3e-3 1.122-0.46 2.14-1.195 2.875v3e-3c-0.735 0.736-1.758 1.196-2.889 1.197v2e-3h-0.015v-2e-3c-1.122-3e-3 -2.14-0.46-2.875-1.193-0.62-0.621-1.041-1.436-1.162-2.349h-10.034l-7.547 7.546-4.476 4.477-2.508 2.507-0.188 0.187h-17.911l-5.922 5.92v7.909l-0.19 0.188-3.553 3.553c0.381 0.555 0.602 1.226 0.602 1.949 0 1.904-1.545 3.45-3.452 3.45-1.905 0-3.451-1.546-3.451-3.45 0-1.907 1.546-3.452 3.451-3.452" fill="#302e30"/></g><g transform="translate(147.33 258.18)" fill="#302e30"><path d="m0 0v-1.185c-0.126-0.503-0.389-0.952-0.744-1.304-0.507-0.509-1.209-0.824-1.981-0.825v1e-3h-0.015v-1e-3h-0.015c-0.767 4e-3 -1.465 0.319-1.97 0.825-0.506 0.509-0.821 1.209-0.824 1.98h3e-3v0.016h-3e-3c1e-3 0.773 0.317 1.476 0.826 1.984 0.505 0.505 1.202 0.82 1.968 0.825l9e-3 1e-3v-4e-3h0.015v4e-3c0.775-2e-3 1.48-0.318 1.987-0.826v-4e-3c0.398-0.397 0.679-0.915 0.783-1.487zm104.31-114.28v35.081l-0.186 0.187-4.904 4.905-0.578 0.578h-19.576l-9.889 9.887-2.171 2.172-1.233 1.234-1.9 1.899-10.843 10.843-0.187 0.185h-10.284l-4.763 4.764-7.809 7.808-4.476 4.476-3.419 3.418v16.781l-10.064 10.064h-10.7c-0.113 0.929-0.539 1.764-1.165 2.391l-2e-3 -1e-3c-0.739 0.738-1.76 1.196-2.889 1.197v4e-3h-0.015v-4e-3h-9e-3c-1.118-5e-3 -2.133-0.46-2.866-1.192-0.739-0.739-1.198-1.762-1.2-2.888h-2e-3v-0.016h2e-3c3e-3 -1.125 0.46-2.142 1.195-2.877 0.734-0.737 1.751-1.195 2.871-1.201h0.015v-1e-3h0.015v1e-3c1.124 4e-3 2.142 0.461 2.878 1.194 0.567 0.566 0.971 1.297 1.129 2.117h10.215l9.32-9.322v-16.781l0.185-0.184 4.506-4.505 4.476-4.477 7.809-7.809 4.047-4.045 0.186-0.187h10.284l11.56-11.559 1.9-1.9 1.233-1.234 2.171-2.17 9.17-9.169 0.184-0.186h19.577l1.112-1.112 3.813-3.814v-34.023l-3.811-3.813-2e-3 2e-3 -6.624 6.626-0.188 0.186h-13.28l-5.421 5.422-0.19 0.19h-13.756l-7.586 7.586c0.37 0.55 0.586 1.212 0.586 1.926 0 1.018-0.442 1.933-1.145 2.564-0.611 0.549-1.42 0.883-2.307 0.883-0.713 0-1.375-0.215-1.924-0.584l-2.509 2.511-2.207 2.206-0.187 0.186h-3.254c-0.17 0.911-0.697 1.695-1.432 2.202-0.558 0.386-1.234 0.61-1.963 0.61-1.904 0-3.449-1.544-3.449-3.45s1.545-3.451 3.449-3.451c0.729 0 1.405 0.225 1.963 0.612 0.734 0.508 1.261 1.29 1.432 2.2h2.725l2.923-2.921 1.6-1.6c-0.388-0.559-0.619-1.237-0.619-1.968 0-1.907 1.546-3.452 3.452-3.452 0.731 0 1.411 0.229 1.969 0.616l0.338-0.337 7.43-7.428 0.186-0.187h13.761l5.422-5.423 0.189-0.189h13.275l6.891-6.893 0.45-0.45 1e-3 -2e-3 0.452 0.452 4.451 4.45z" fill="#302e30"/></g><g transform="translate(217.71 255.74)" fill="#302e30"><path d="m0 0v-0.014c-0.042-0.93-0.507-1.75-1.208-2.271-0.499-0.368-1.115-0.587-1.784-0.587-0.13 0-0.26 8e-3 -0.387 0.025-0.451 0.058-0.87 0.218-1.234 0.453-0.788 0.511-1.321 1.382-1.365 2.38l-1e-3 0.014c-2e-3 0.041-2e-3 0.081-2e-3 0.121 0 1.053 0.545 1.979 1.368 2.511 0.364 0.236 0.784 0.395 1.234 0.455 0.127 0.016 0.257 0.025 0.387 0.025 0.669 0 1.285-0.218 1.784-0.588 0.735-0.545 1.211-1.418 1.211-2.403 0-0.04 0-0.08-3e-3 -0.121m48.805-146.39-7.676 7.675-7.267 7.268v10.855l7.267 7.267 3.496 3.495 0.185 0.187v32.82l-0.179 0.185-3.502 3.623-12.295 12.723-13.494 13.962v22.737l-0.186 0.186-5.076 5.077v14.682l-0.172 0.187-3.593 3.881-0.192 0.206h-5.067c-0.116 0.923-0.54 1.753-1.163 2.375-0.318 0.32-0.69 0.586-1.099 0.787-0.54 0.264-1.148 0.414-1.791 0.414v3e-3h-0.016v-3e-3c-0.122 0-0.244-6e-3 -0.364-0.017-0.435-0.04-0.85-0.148-1.234-0.312-0.48-0.206-0.913-0.501-1.276-0.864-0.24-0.24-0.45-0.51-0.624-0.803-0.281-0.475-0.471-1.008-0.542-1.58h-2.329l-9.386 9.385-1.228 1.229-0.187 0.186h-9.312c-0.282 1.503-1.541 2.664-3.093 2.799-0.099 8e-3 -0.2 0.013-0.302 0.013-1.904 0-3.449-1.547-3.449-3.45 0-1.907 1.545-3.453 3.449-3.453 0.102 0 0.203 4e-3 0.302 0.013 1.553 0.135 2.812 1.295 3.094 2.803h8.782l1.944-1.946 8.67-8.669 0.186-0.185h2.898c0.091-0.478 0.264-0.927 0.503-1.329 0.173-0.291 0.38-0.556 0.617-0.794 0.366-0.366 0.8-0.663 1.283-0.871 0.384-0.165 0.799-0.273 1.234-0.314 0.121-0.01 0.245-0.016 0.37-0.016v-2e-3h0.016v2e-3c0.641 3e-3 1.246 0.151 1.785 0.413 0.408 0.199 0.776 0.464 1.093 0.782h4e-3c0.567 0.567 0.969 1.303 1.126 2.129h4.558l3.229-3.489v-14.714l0.186-0.188 5.075-5.076v-22.724l0.18-0.186 14.591-15.098 12.295-12.723 2.406-2.488v-31.778l-2.406-2.405-8.357-8.357-0.187-0.188v-11.913l0.187-0.187 8.357-8.358 7.676-7.675 8.433-8.434v-61.024l-7.012-7.011-0.19-0.189v-30.889h1.277v30.365l7.013 7.01 0.19 0.19v62.077l-0.187 0.186z" fill="#302e30"/></g><g transform="translate(287.92 122.43)" fill="#302e30"><path d="m0 0c-0.507 0.507-0.823 1.209-0.826 1.98h3e-3v0.016h-3e-3c1e-3 0.771 0.319 1.475 0.828 1.983l-1e-3 2e-3c0.508 0.506 1.208 0.821 1.978 0.824v-3e-3h0.015v3e-3c0.775-2e-3 1.478-0.318 1.986-0.826 0.507-0.508 0.822-1.209 0.825-1.978h-3e-3v-0.015h3e-3c-1e-3 -0.775-0.318-1.479-0.825-1.986h-2e-3c-0.509-0.509-1.209-0.823-1.978-0.826v3e-3h-0.016v-3e-3c-0.774 0-1.476 0.317-1.984 0.826m1.984-2.101h0.016v2e-3c1.126 4e-3 2.145 0.46 2.879 1.196 0.285 0.286 0.53 0.614 0.721 0.973 0.304 0.573 0.477 1.224 0.477 1.916h3e-3v0.015h-3e-3c-2e-3 0.689-0.174 1.34-0.477 1.909-0.191 0.358-0.433 0.683-0.716 0.965-0.597 0.598-1.38 1.014-2.251 1.152v115.48l-0.188 0.186-0.455 0.455-10.237 10.235-2.694 2.695-0.202 0.202v46.573l-0.184 0.186-3.875 3.875-13.872 13.87-12.295 12.295-1.001 1.003v2.629c0.355 0.067 0.693 0.188 1.001 0.355 1.08 0.584 1.812 1.727 1.812 3.039s-0.732 2.453-1.812 3.036c-0.487 0.264-1.046 0.414-1.64 0.414-1.905 0-3.449-1.545-3.449-3.45 0-1.689 1.211-3.095 2.811-3.394v-3.159l0.188-0.186 2.09-2.092 1.144-1.144 11.151-11.152 7.676-7.675 5.293-5.292 3.69-3.691v-46.574l0.185-0.184 1.289-1.289 2.694-2.695 9.603-9.601v-114.95c-0.874-0.134-1.656-0.55-2.253-1.146h-2e-3c-0.737-0.737-1.196-1.76-1.197-2.887h-3e-3v-0.016h3e-3c2e-3 -1.125 0.46-2.142 1.193-2.878 0.738-0.741 1.761-1.199 2.887-1.201z" fill="#302e30"/></g><g transform="translate(185.49 183.5)" fill="#302e30"><path d="m0 0 0.186-0.186h24.338l1.186-1.186 1.901-1.9 1.233-1.234 2.171-2.171 1.917-1.916 0.186-0.186h21.014l3.65-3.649v-15.564l3.276 3.276 1.201 1.199 0.187 0.187v14.883l-0.187 0.186-1.201 1.2-4.307 4.308-0.186 0.187h-20.442l-5.108 5.107-2.171 2.17-1.233 1.233-1.901 1.902-12.256 12.257-2.368 2.367-0.187 0.186h-11.025l-21.252 21.252v18.335l-0.187 0.186-1 1.002c0.381 0.554 0.603 1.225 0.603 1.949 0 1.904-1.546 3.451-3.452 3.451s-3.45-1.547-3.45-3.451c0-1.906 1.544-3.452 3.45-3.452 0.721 0 1.393 0.224 1.948 0.603l0.812-0.812v-18.34l0.186-0.187 9.817-9.816 4.476-4.478 7.332-7.332 0.186-0.184 0.264-1e-3h10.763l3.084-3.085 12.256-12.257 1.901-1.899 1.233-1.234 2.171-2.172 4.39-4.39 0.187-0.186h20.444l5.022-5.024 0.111-0.111v-13.824l-0.111-0.11-1.999-1.999v13.012l-0.187 0.186-4.023 4.023-0.187 0.186h-21.015l-2.632 2.633-2.171 2.17-3.134 3.134-0.47 0.469-0.187 0.188h-24.336l-1.083 1.083-7.809 7.808-4.476 4.476-1.678 1.68-0.188 0.186h-14.938v-8.497l-6.066-6.064h-9.268l-0.187-0.187-2.17-2.169c-0.555 0.378-1.225 0.6-1.948 0.6-1.903 0-3.45-1.546-3.45-3.45 0-1.907 1.547-3.453 3.45-3.453 1.907 0 3.453 1.546 3.453 3.453 0 0.722-0.222 1.394-0.602 1.947l1.983 1.983h9.263l0.187 0.187 6.442 6.44 0.19 0.19v7.744h13.131l14.681-14.681z" fill="#302e30"/></g><g transform="translate(325.4 305.85)" fill="#302e30"><path d="m0 0v1e-3h-0.017v-1e-3c-0.772 0-1.476 0.317-1.983 0.825-0.213 0.212-0.393 0.459-0.527 0.729-0.191 0.378-0.298 0.803-0.299 1.252h2e-3v0.016h-2e-3c0 0.45 0.108 0.877 0.299 1.254 0.135 0.272 0.314 0.519 0.527 0.73 0.508 0.507 1.208 0.823 1.978 0.825v-2e-3h0.015v2e-3c0.775-1e-3 1.479-0.318 1.988-0.826 0.507-0.508 0.822-1.207 0.825-1.977h-3e-3v-0.015h3e-3c-1e-3 -0.776-0.319-1.48-0.827-1.988h-1e-3c-0.509-0.508-1.21-0.824-1.978-0.825m5.114-127.53-3.384 3.381v78.062l0.1 0.099 8.294 8.294 0.187 0.186v14.694l-0.187 0.187-9.499 9.5v11.901c0.875 0.137 1.659 0.551 2.254 1.147l-1e-3 2e-3c0.738 0.738 1.198 1.76 1.198 2.888h3e-3v0.015h-3e-3c-2e-3 1.122-0.459 2.14-1.193 2.876l-3e-3 3e-3c-0.737 0.735-1.76 1.194-2.887 1.196v2e-3h-0.015v-2e-3c-0.945-3e-3 -1.817-0.326-2.505-0.867-0.131-0.101-0.254-0.211-0.37-0.327-0.094-0.093-0.183-0.192-0.269-0.295-0.58-0.704-0.93-1.608-0.932-2.592h-2e-3v-0.016h2e-3c3e-3 -0.984 0.352-1.888 0.932-2.59 0.083-0.1 0.171-0.196 0.262-0.288 0.119-0.117 0.244-0.229 0.377-0.334 0.534-0.418 1.175-0.708 1.875-0.817v-12.432l0.187-0.186 9.501-9.501v-13.634l-7.275-7.274-1.118-1.117-0.185-0.184v-79.13l0.185-0.184 4.546-4.546 5.784-5.781v-170.66h1.275v171.19l-0.187 0.185z" fill="#302e30"/></g><g transform="translate(323.32 415.35)" fill="#302e30"><path d="m0 0h-6e-3v-2e-3c-0.149 0-0.297 0.012-0.439 0.035-0.223 0.035-0.436 0.097-0.638 0.181-0.342 0.143-0.649 0.352-0.907 0.61-0.506 0.508-0.822 1.209-0.825 1.981h3e-3v0.015h-3e-3c1e-3 0.774 0.317 1.477 0.825 1.984 0.259 0.258 0.566 0.466 0.907 0.608 0.202 0.085 0.415 0.146 0.638 0.182 0.14 0.022 0.286 0.035 0.433 0.035v-2e-3h0.017v2e-3c0.773-1e-3 1.476-0.318 1.986-0.827l1e-3 1e-3c0.506-0.509 0.821-1.208 0.823-1.976h-2e-3v-0.016h2e-3c0-0.776-0.317-1.479-0.825-1.987h-3e-3c-0.507-0.508-1.209-0.824-1.977-0.826v2e-3zm37.816-34.752c0-0.357-0.07-0.702-0.193-1.017l-0.043 0.043-0.101-0.099-0.351-0.349-0.451-0.449 0.213-0.212c-0.2-0.18-0.424-0.332-0.667-0.45-0.368-0.177-0.779-0.277-1.213-0.278v2e-3h-0.016v-2e-3c-0.773 0-1.476 0.317-1.983 0.825s-0.823 1.21-0.825 1.981h2e-3v0.015h-2e-3c1e-3 0.774 0.316 1.477 0.825 1.985 0.509 0.507 1.209 0.822 1.977 0.824v-2e-3h0.017v2e-3c0.435 0 0.849-0.101 1.218-0.279 0.287-0.138 0.546-0.324 0.768-0.546v-3e-3c0.509-0.508 0.823-1.208 0.825-1.974h-2e-3v-0.017zm-20.578-197.81v45.647l5.347 5.349 0.185 0.185v64.605l13.453 13.454 4.01 4.011 1.306 1.306 0.187 0.188 1e-3 0.264v57.675l-0.188 0.186-1.306 1.307-1.654 1.655c0.321 0.585 0.509 1.259 0.509 1.974h3e-3v0.017h-3e-3c-2e-3 1.123-0.459 2.142-1.194 2.878l-1e-3 -2e-3c-0.461 0.461-1.032 0.812-1.67 1.011-0.385 0.121-0.794 0.187-1.218 0.187v3e-3h-0.017v-3e-3c-1.122-2e-3 -2.139-0.459-2.874-1.193-0.739-0.739-1.199-1.762-1.2-2.888h-3e-3v-0.015h3e-3c2e-3 -1.125 0.459-2.143 1.193-2.878 0.74-0.74 1.761-1.198 2.887-1.2v-2e-3h0.016v2e-3c0.423 1e-3 0.83 0.066 1.213 0.186 0.591 0.185 1.126 0.501 1.567 0.913l2.443-2.446 0.217-0.216v-56.886l-0.217-0.217-4.01-4.012-14.541-14.539-0.184-0.187v-64.604l-5.537-5.537v-46.707l0.186-0.187 10.466-10.465v-154.41l-2.742 2.744 6e-3 151.08v0.268l-0.185 0.185-10.19 10.189v47.126l6.038 6.039 0.187 0.188v67.593l15.449 15.445 0.185 0.186v19.112l-0.185 0.186-4.638 4.639-0.451 0.453-0.45-0.451-4.219-4.217-0.186-0.186v-6.175l-11.99-11.99-0.184-0.183v-28.469l-4.537 4.535v20.388l-0.187 0.186-6.316 6.318v7.515l8.534 8.531 0.187 0.187v28.404l-0.19 0.188-5.761 5.76v26.137l-0.186 0.186-3.963 3.964v10.866c0.873 0.137 1.656 0.55 2.252 1.146l-1e-3 1e-3c0.738 0.739 1.196 1.762 1.197 2.889h4e-3v0.016h-4e-3c-3e-3 1.121-0.459 2.139-1.193 2.875v2e-3c-0.737 0.737-1.76 1.195-2.889 1.197v2e-3h-0.017v-2e-3c-0.146 0-0.292-9e-3 -0.433-0.025-0.219-0.023-0.432-0.064-0.638-0.12-0.692-0.19-1.312-0.557-1.804-1.049-0.738-0.738-1.197-1.761-1.199-2.887h-2e-3v-0.015h2e-3c3e-3 -1.125 0.46-2.143 1.193-2.878 0.495-0.495 1.115-0.866 1.81-1.057 0.145-0.04 0.293-0.072 0.444-0.096v-11.395l0.187-0.187 7e-3 -6e-3 3.957-3.957v-26.131l0.189-0.19 5.761-5.759v-27.349l-8.533-8.532-0.187-0.186v-8.575l0.187-0.187 6.315-6.316v-20.388l0.188-0.187 5.81-5.808 1.087-1.088v31.01l11.992 11.992 0.186 0.187v6.175l3.582 3.581 3.996-3.999v-18.058l-15.446-15.445-0.188-0.186v-67.601l-6.039-6.04-0.185-0.186v-48.179l0.185-0.187 10.192-10.191-5e-3 -151.08-1e-3 -0.266 0.185-0.185 4.017-4.018 1.09-1.09v158.02l-0.187 0.185z" fill="#302e30"/></g><g transform="translate(280.49 181.09)" fill="#302e30"><path d="m0 0-0.819 0.818-13.151 13.151-7.676 7.674-6.418 6.418v58.386l6.418 6.417 3.094 3.093 0.186 0.187v21.334l-0.186 0.186-3.094 3.093-1.205 1.204-0.187 0.188h-27.382l-11.493 11.488-1.705 1.708v3.271c1.603 0.298 2.814 1.704 2.814 3.394 0 1.812-1.4 3.3-3.179 3.439-0.09 7e-3 -0.182 0.01-0.274 0.01-0.701 0-1.353-0.209-1.897-0.569-0.534-0.352-0.963-0.849-1.234-1.433-0.204-0.441-0.318-0.93-0.318-1.447 0-0.518 0.114-1.01 0.318-1.45 0.271-0.585 0.7-1.081 1.234-1.434 0.375-0.249 0.801-0.424 1.259-0.51v-3.802l0.187-0.186 3.23-3.23 10.342-10.338 0.186-0.187h27.382l1.922-1.923 2.005-2.003v-20.275l-2.005-2.003-7.507-7.506-0.186-0.187v-59.445l0.186-0.187 7.507-7.507 7.676-7.675 10.456-10.454 2.424-2.425v-180.37h1.277v180.64l-2e-3 0.265z" fill="#302e30"/></g><g transform="translate(269.33 122.98)" fill="#302e30"><path d="m0 0c0-0.774-0.318-1.479-0.825-1.986-0.509-0.508-1.211-0.824-1.982-0.827v3e-3h-0.016v-3e-3c-0.773 2e-3 -1.477 0.319-1.983 0.827-0.507 0.507-0.823 1.209-0.825 1.981h2e-3v0.016h-2e-3c1e-3 0.773 0.318 1.475 0.825 1.983 0.508 0.508 1.209 0.822 1.977 0.825v-3e-3h0.017v3e-3c0.685-1e-3 1.313-0.25 1.802-0.661l-0.093-0.094 0.451-0.452 0.354-0.353c0.189-0.376 0.297-0.798 0.298-1.243h-3e-3v-0.016zm-55.916 191.61c0-0.467-0.115-0.911-0.317-1.299-0.054-0.104-0.115-0.203-0.181-0.298l-0.325-0.326 0.031-0.03-0.032-0.033c-0.376-0.374-0.857-0.645-1.394-0.761-0.189-0.041-0.386-0.063-0.587-0.063v1e-3h-0.016v-1e-3c-0.773 0-1.477 0.316-1.985 0.824-0.506 0.508-0.822 1.21-0.824 1.981h2e-3v0.016h-2e-3c1e-3 0.773 0.317 1.477 0.825 1.985 0.509 0.505 1.208 0.821 1.978 0.823v-2e-3h0.017v2e-3c0.202 0 0.401-0.023 0.592-0.064 0.538-0.116 1.019-0.385 1.394-0.761 0.202-0.202 0.373-0.434 0.507-0.688 0.202-0.388 0.316-0.826 0.317-1.289h-1e-3v-0.017zm63.49-134.04-10.39 10.389-7.676 7.675-9.429 9.431v60.984l9.267 9.27 0.162 0.163 0.025 0.024v17.513l-0.025 0.024-0.165 0.165-3.952 3.951-0.188 0.187h-27.793l-10.239 10.24-2.171 2.17-0.058 0.058c0.02 0.041 0.04 0.081 0.058 0.122 0.23 0.51 0.356 1.081 0.357 1.676h2e-3v0.017h-2e-3c-1e-3 0.591-0.129 1.153-0.357 1.661-0.206 0.455-0.49 0.866-0.837 1.213-0.124 0.125-0.257 0.241-0.396 0.349-0.542 0.418-1.192 0.703-1.901 0.807-0.194 0.029-0.392 0.044-0.592 0.044v2e-3h-0.017v-2e-3c-1.122-3e-3 -2.139-0.46-2.875-1.193-0.739-0.739-1.197-1.761-1.199-2.887h-2e-3v-0.016h2e-3c3e-3 -1.125 0.459-2.143 1.192-2.878 0.739-0.739 1.762-1.198 2.888-1.199v-2e-3h0.016v2e-3c0.199 1e-3 0.395 0.014 0.587 0.043 0.71 0.103 1.36 0.389 1.901 0.807 0.137 0.106 0.267 0.22 0.389 0.344l0.036 0.034 0.808-0.808 0.104-0.105 2.067-2.067 9.523-9.522 0.187-0.186 0.264-1e-3h27.536l3.575-3.575v-16.465l-9.266-9.27-0.187-0.186v-62.039l0.187-0.186 10.518-10.52 16.976-16.974v-47.194l-6.588-6.59c-0.718 0.638-1.667 1.026-2.708 1.027v2e-3h-0.017v-2e-3c-1.12-3e-3 -2.14-0.459-2.874-1.195-0.739-0.736-1.199-1.76-1.2-2.885h-2e-3v-0.016h2e-3c3e-3 -1.124 0.46-2.143 1.194-2.879 0.738-0.739 1.761-1.199 2.886-1.2v-2e-3h0.016v2e-3c1.124 2e-3 2.142 0.459 2.879 1.195 0.739 0.738 1.198 1.76 1.2 2.889h2e-3v0.016h-2e-3c-3e-3 0.75-0.208 1.454-0.561 2.057l6.863 6.865 0.067 0.067 0.119 0.12v48.253l-0.119 0.119z" fill="#302e30"/></g><g transform="translate(319.63 10.515)" fill="#302e30"><path d="m0 0c-2e-3 -0.774-0.318-1.479-0.827-1.986-0.508-0.508-1.21-0.825-1.98-0.826v1e-3h-0.016v-1e-3c-0.187 0-0.37 0.02-0.547 0.054-0.555 0.112-1.053 0.387-1.436 0.772-0.509 0.507-0.823 1.209-0.826 1.98h3e-3v0.017h-3e-3c2e-3 0.773 0.317 1.475 0.826 1.983 0.376 0.375 0.889 0.612 1.436 0.708 0.904 0.158 1.906-0.073 2.543-0.711 0.509-0.508 0.824-1.208 0.827-1.975h-3e-3v-0.016zm-5.208 74.423c0 1.121 0.786 2.058 1.838 2.291 0.164 0.037 0.333 0.056 0.509 0.056 1.295 0 2.346-1.05 2.346-2.347 0-1.296-1.051-2.347-2.346-2.347-0.176 0-0.345 0.021-0.509 0.056-1.052 0.232-1.838 1.17-1.838 2.291m5.285-71.528c-0.618 0.618-1.44 1.041-2.353 1.161v66.989c1.6 0.299 2.813 1.705 2.813 3.393 0 1.685-1.213 3.09-2.813 3.391v70.811l-0.187 0.185-0.907 0.906-2.859 2.859-1.217 1.216-0.294 0.295-0.636 0.636-3.89 3.889-0.365 0.366v48.898l0.365 0.366 3.89 3.889 0.93 0.93 1.217 1.216 2.859 2.858 1.008 1.009 0.187 0.187v31.718l-4.054 4.054-1.217 1.216-0.294 0.293-0.636 0.638-0.863 0.862v64.49l0.863 0.863 0.636 0.638 0.294 0.294 1.217 1.215 2.859 2.859 1.513 1.514c0.554-0.382 1.225-0.602 1.948-0.602 0.993 0 1.888 0.419 2.517 1.089 0.262 0.281 0.479 0.604 0.638 0.959 0.192 0.429 0.297 0.905 0.297 1.405 0 0.499-0.105 0.973-0.297 1.402-0.159 0.354-0.376 0.678-0.638 0.957-0.629 0.671-1.524 1.09-2.517 1.09-1.905 0-3.449-1.545-3.449-3.449 0-0.723 0.22-1.392 0.598-1.948l-0.61-0.611-2.859-2.858-1.217-1.216-0.294-0.295-0.636-0.637-1.954-1.952-0.186-0.187v-65.549l0.186-0.186 1.954-1.953 0.636-0.637 0.294-0.294 1.217-1.216 2.777-2.778v-30.658l-2.777-2.778-1.217-1.215-0.294-0.295-0.636-0.637-3.89-3.888-1.642-1.642v-49.957l0.186-0.188 1.456-1.454 3.89-3.889 0.636-0.637 0.294-0.294 1.217-1.216 2.677-2.676v-70.279c-1.287-0.24-2.319-1.193-2.677-2.432-0.087-0.305-0.136-0.627-0.136-0.96 0-0.334 0.049-0.657 0.136-0.961 0.358-1.24 1.39-2.193 2.677-2.432v-67.019c-0.833-0.151-1.577-0.556-2.151-1.13-0.196-0.195-0.372-0.409-0.526-0.642-0.425-0.644-0.674-1.416-0.674-2.243h-3e-3v-0.017h3e-3c2e-3 -0.827 0.251-1.597 0.674-2.239 0.152-0.231 0.326-0.445 0.519-0.639 0.618-0.617 1.432-1.039 2.34-1.162 0.179-0.024 0.361-0.038 0.547-0.038v-2e-3h0.016v2e-3c1.123 2e-3 2.142 0.459 2.878 1.194 0.739 0.739 1.199 1.761 1.2 2.89h2e-3v0.016h-2e-3c-2e-3 1.124-0.459 2.143-1.194 2.879" fill="#302e30"/></g><g transform="translate(372.05 350.31)" fill="#302e30"><path d="m0 0c0-0.675-0.241-1.296-0.639-1.781-0.058-0.072-0.12-0.14-0.186-0.205l-0.017-0.016c-0.036-0.036-0.073-0.071-0.111-0.104-0.494-0.437-1.144-0.704-1.852-0.706v3e-3h-0.016v-3e-3c-0.774 1e-3 -1.477 0.319-1.985 0.826-0.055 0.057-0.11 0.116-0.162 0.177-0.411 0.488-0.66 1.119-0.662 1.803h3e-3v0.017h-3e-3c0 0.684 0.251 1.314 0.662 1.803 0.053 0.062 0.108 0.123 0.166 0.181l-1e-3 1e-3c0.508 0.506 1.207 0.821 1.977 0.823v-2e-3h0.015v2e-3c0.712-1e-3 1.364-0.267 1.858-0.705 0.044-0.038 0.088-0.079 0.129-0.12 0.507-0.508 0.822-1.209 0.824-1.978h-2e-3v-0.016zm-6.415-47.438c0 0.408 0.088 0.797 0.247 1.148 0.141 0.314 0.338 0.597 0.577 0.836 0.186 0.183 0.394 0.342 0.623 0.47 0.403 0.224 0.865 0.353 1.355 0.355v-2e-3h0.016v2e-3c0.774 0 1.478-0.318 1.988-0.827 0.288-0.29 0.514-0.642 0.656-1.032 0.107-0.296 0.168-0.614 0.169-0.945h-2e-3v-0.016h2e-3c0-0.334-0.061-0.657-0.169-0.955-0.142-0.391-0.368-0.743-0.656-1.031-0.509-0.506-1.21-0.822-1.981-0.824v2e-3h-0.016v-2e-3c-0.499 0-0.962 0.122-1.362 0.338-0.532 0.288-0.952 0.742-1.2 1.296-0.158 0.354-0.246 0.75-0.247 1.171h1e-3v0.016zm-2.077-50.575 2.135 2.136 0.186 0.186v14.487l-0.186 0.187-2.135 2.135-3.625 3.624v18.958l3.625 3.625 2.174 2.175c0.049-0.045 0.099-0.086 0.15-0.127 0.355-0.288 0.76-0.516 1.2-0.671 0.426-0.151 0.885-0.232 1.362-0.233v-2e-3h0.016v2e-3c1.006 2e-3 1.927 0.369 2.637 0.972 0.083 0.071 0.164 0.144 0.241 0.222 0.738 0.737 1.198 1.76 1.199 2.888h2e-3v0.016h-2e-3c-3e-3 1.124-0.459 2.144-1.193 2.879-0.08 0.079-0.162 0.154-0.247 0.226-0.71 0.603-1.634 0.97-2.644 0.972v1e-3h-0.016v-1e-3c-0.474-2e-3 -0.931-0.085-1.355-0.236-0.44-0.156-0.845-0.385-1.2-0.673-0.112-0.089-0.218-0.185-0.318-0.286-0.741-0.738-1.201-1.761-1.202-2.887h-1e-3v-0.016h1e-3c3e-3 -0.75 0.204-1.454 0.556-2.055l-1.36-1.36-4.011-4.01-0.891-0.891v-20.017l0.186-0.187 0.705-0.704 4.011-4.01 1.045-1.045v-13.429l-1.045-1.045-4.011-4.01-7.897-7.898-0.185-0.184v-9.847l-5.352-5.354-0.186-0.186v-42.813l-2.044 2.042v42.173l5.209 5.209 0.187 0.186v8.484l13.143 13.143v13.015l-0.186 0.187-2.689 2.688-3.077 3.077v25.003l3.077 3.077 4.011 4.01 2.324 2.324 1.2 1.201 0.269 0.268 6.539 6.539 2.318 2.32 0.188 0.186v25.081l-0.188 0.186-2.318 2.318-1.364 1.365c0.499 0.676 0.795 1.513 0.796 2.417h2e-3v0.016h-2e-3c-2e-3 1.122-0.459 2.14-1.193 2.875-0.301 0.301-0.649 0.556-1.032 0.752-0.557 0.285-1.189 0.448-1.858 0.448v2e-3h-0.015v-2e-3c-0.784-2e-3 -1.52-0.226-2.142-0.612-0.266-0.166-0.512-0.361-0.734-0.582h-3e-3c-0.169-0.169-0.325-0.355-0.463-0.553-0.461-0.66-0.732-1.466-0.733-2.333h-2e-3v-0.017h2e-3c3e-3 -0.866 0.273-1.669 0.733-2.328 0.137-0.196 0.291-0.38 0.461-0.549 0.222-0.223 0.47-0.421 0.739-0.588 0.624-0.388 1.36-0.612 2.147-0.613v-2e-3h0.016v2e-3c0.668 2e-3 1.297 0.164 1.852 0.448 0.182 0.094 0.355 0.2 0.522 0.319l2.271-2.27 1.229-1.23v-24.02l-1.229-1.229-2.793-2.794-3.518-3.517-0.497-0.497-1.2-1.201-10.686-10.686v-26.064l0.186-0.186 4.165-4.166 1.599-1.599v-11.956l-1.599-1.6-11.544-11.544v-8.482l-5.209-5.209-0.187-0.188v-43.224l0.189-0.19 3.32-3.319 1.087-1.086v45.358l5.35 5.35 0.184 0.186v9.846l6.81 6.811z" fill="#302e30"/></g><g transform="translate(170.02 306.54)" fill="#302e30"><path d="m0 0c1e-3 0.773 0.318 1.478 0.826 1.984 0.507 0.507 1.208 0.822 1.977 0.825v-3e-3h0.016v3e-3c0.774-1e-3 1.479-0.317 1.987-0.825v-4e-3c0.507-0.506 0.823-1.208 0.825-1.975h-2e-3v-0.015h2e-3c-1e-3 -0.776-0.318-1.479-0.825-1.987-0.508-0.507-1.21-0.822-1.981-0.824v2e-3h-0.016v-2e-3c-0.774 1e-3 -1.476 0.316-1.983 0.824-0.508 0.508-0.824 1.211-0.826 1.981h2e-3v0.016zm29.202 47.578c-0.102 0.102-0.195 0.212-0.281 0.329-0.339 0.464-0.541 1.036-0.543 1.651h2e-3v0.016h-2e-3c1e-3 0.617 0.204 1.189 0.543 1.654 0.086 0.117 0.181 0.228 0.283 0.33 0.508 0.507 1.208 0.822 1.979 0.825v-3e-3h0.015v3e-3c0.774-1e-3 1.477-0.318 1.988-0.827 0.506-0.507 0.821-1.207 0.823-1.976h-2e-3v-0.017h2e-3c0-0.774-0.317-1.479-0.825-1.986-0.431-0.431-0.999-0.723-1.634-0.804h-0.717c-0.632 0.081-1.201 0.376-1.631 0.805m-29.28-50.472c0.739-0.739 1.761-1.198 2.887-1.199v-2e-3h0.016v2e-3c0.868 2e-3 1.675 0.275 2.335 0.736l2.132-2.133 0.28-0.281 0.187-0.186h11.639l2.782-2.781 3.24-3.241 0.188-0.187h20.254l-1.089 1.09-3.596 3.596-2.267 2.266-0.187 0.187h-6.683l-3.119 3.118-3.208 3.208v16.113l-0.186 0.186-2.967 2.968v10.36l0.93 0.931 5.431 5.432 2.521 2.522 0.186 0.187v5.504c0.956 0.102 1.811 0.531 2.453 1.172 0.739 0.739 1.199 1.761 1.2 2.889h3e-3v0.017h-3e-3c-3e-3 1.122-0.46 2.14-1.193 2.875l-4e-3 3e-3c-0.736 0.736-1.759 1.195-2.886 1.196v2e-3h-0.015v-2e-3c-0.837-2e-3 -1.615-0.256-2.262-0.689-0.222-0.149-0.427-0.317-0.614-0.505-0.74-0.736-1.2-1.76-1.201-2.886h-1e-3v-0.016h1e-3c3e-3 -1.124 0.46-2.142 1.195-2.877 0.188-0.19 0.397-0.362 0.62-0.512 0.427-0.286 0.911-0.493 1.431-0.602v-5.046l-1.431-1.431-6.741-6.743-0.711-0.71-0.186-0.187v-11.414l3.154-3.154v-16.112l0.187-0.187 4.297-4.298 2.402-2.403 0.186-0.186h6.691l2.977-2.976 1.611-1.609h-16.651l-6.204 6.204h-11.645l-2.211 2.211c0.519 0.685 0.825 1.539 0.826 2.464h3e-3v0.015h-3e-3c-2e-3 1.125-0.46 2.143-1.195 2.879v-2e-3c-0.74 0.739-1.761 1.197-2.889 1.198v2e-3h-0.016v-2e-3c-1.122-3e-3 -2.139-0.459-2.874-1.193-0.74-0.739-1.199-1.76-1.201-2.887h-2e-3v-0.016h2e-3c3e-3 -1.124 0.46-2.143 1.194-2.878" fill="#302e30"/></g><g transform="translate(307.73 21.943)" fill="#302e30"><path d="m0 0c0-0.504-0.135-0.978-0.368-1.387-0.125-0.22-0.28-0.422-0.458-0.599-0.365-0.366-0.833-0.63-1.353-0.75-0.105-0.122-1.375-0.058-1.276 0-0.069 0.015-0.135 0.034-0.202 0.054-0.439 0.138-0.831 0.377-1.149 0.696-0.507 0.507-0.823 1.21-0.825 1.979h2e-3v0.017h-2e-3c1e-3 0.772 0.318 1.477 0.825 1.985 0.319 0.316 0.711 0.558 1.149 0.696 0.262 0.082 0.54 0.126 0.829 0.127v-2e-3h0.015v2e-3c0.776-1e-3 1.48-0.316 1.987-0.824v-3e-3c0.178-0.178 0.333-0.379 0.458-0.599 0.233-0.408 0.367-0.878 0.368-1.376h-2e-3v-0.016zm0.077 2.893v-1e-3c-0.14 0.138-0.287 0.268-0.445 0.385-0.681 0.509-1.528 0.813-2.445 0.813v3e-3h-0.015v-3e-3c-0.284 0-0.561-0.029-0.829-0.086-0.79-0.165-1.496-0.559-2.046-1.107-0.739-0.739-1.198-1.759-1.2-2.887h-2e-3v-0.017h2e-3c3e-3 -1.124 0.46-2.141 1.194-2.876 0.551-0.552 1.26-0.946 2.052-1.112 0.067-0.014 0.134-0.026 0.202-0.037v-3.919l-0.202-0.202-3.586-3.585-2.683-2.685v38.399l5.53 5.532 0.739 0.738 0.74 0.741 0.188 0.188v11.053l-0.188 0.186-0.74 0.741-1.495 1.494-2.091 2.092-2.682 2.682v40.23l2.406 2.405 3.862 3.862 0.374 0.372v51.826l-0.374 0.372-3.586 3.586-1.472 1.474c0.57 0.615 0.92 1.436 0.92 2.343 0 1.904-1.546 3.45-3.453 3.45-1.263 0-2.369-0.681-2.969-1.697-0.305-0.513-0.481-1.114-0.481-1.753 0-0.642 0.176-1.242 0.481-1.756 0.6-1.016 1.706-1.697 2.969-1.697 0.537 0 1.042 0.123 1.495 0.342l2.51-2.511 2.683-2.683v-50.766l-2.683-2.682-0.361-0.363-3.411-3.409-0.186-0.185v-41.288l0.186-0.187 3.772-3.772 2.185-2.187 1.052-1.052v-9.994l-7.009-7.009-0.184-0.183v-42.012l3.956 3.956 3.586 3.587 1.291 1.289 0.187 0.189v4.448c0.673 0.106 1.29 0.375 1.811 0.763 0.157 0.117 0.303 0.244 0.44 0.38 0.74 0.737 1.199 1.76 1.2 2.889h2e-3v0.016h-2e-3c-3e-3 1.124-0.459 2.142-1.195 2.877" fill="#302e30"/></g><g transform="translate(359.54 67.405)" fill="#302e30"><path d="m0 0c-0.399-0.723-1.17-1.212-2.055-1.212-1.295 0-2.345 1.05-2.345 2.347 0 1.296 1.05 2.346 2.345 2.346 0.885 0 1.656-0.489 2.055-1.212 0.187-0.336 0.292-0.723 0.292-1.134s-0.105-0.798-0.292-1.135m1.52 163.59c0 1.375 1.116 2.491 2.491 2.491h1e-3c1.056 0 1.963-0.661 2.323-1.594 0.107-0.278 0.168-0.581 0.168-0.897 0-0.318-0.061-0.62-0.168-0.9-0.36-0.93-1.267-1.592-2.323-1.592h-1e-3c-1.375 1e-3 -2.491 1.117-2.491 2.492m11.718 139.71c0-0.519-0.144-1.011-0.392-1.43l-0.826-0.825 0.033-0.034c-0.157-0.112-0.326-0.208-0.503-0.287-0.343-0.15-0.721-0.235-1.117-0.236v3e-3h-0.015v-3e-3c-0.773 1e-3 -1.479 0.318-1.986 0.825-0.505 0.509-0.822 1.211-0.824 1.981h2e-3v0.016h-2e-3c1e-3 0.774 0.318 1.477 0.826 1.984 0.508 0.508 1.207 0.823 1.977 0.825v-2e-3h0.017v2e-3c0.398 0 0.778-0.085 1.122-0.236 0.324-0.141 0.617-0.343 0.862-0.589 0.509-0.507 0.823-1.208 0.826-1.978h-3e-3v-0.016zm-13.238-299.48c-0.412 0.306-0.894 0.522-1.418 0.619v142.66l1.418 1.416 4.011 4.011 0.475 0.476 0.188 0.187v6.949c0.631 0.118 1.201 0.408 1.661 0.819 0.707 0.633 1.153 1.549 1.153 2.572 0 1.022-0.446 1.941-1.153 2.572-0.46 0.411-1.03 0.701-1.661 0.821v10.605l1.661 1.635 1.2 1.18 0.724 0.713 3.291 3.239 0.678 0.667 0.192 0.188v14.763l1.923 1.925 5.085 5.085 0.186 0.187v35.57l6.282 6.283 0.452 0.451 0.187 0.186v26.598l-0.187 0.187-0.452 0.45-6.71 6.712-0.537 0.536v12.139l-4.306 4.306-0.517 0.516c0.225 0.337 0.4 0.708 0.517 1.106 0.108 0.365 0.166 0.752 0.168 1.151h1e-3v0.016h-1e-3c-2e-3 0.398-0.061 0.783-0.168 1.146-0.195 0.662-0.553 1.255-1.028 1.729-0.482 0.484-1.087 0.847-1.765 1.041-0.357 0.103-0.734 0.158-1.122 0.159v1e-3h-0.017v-1e-3c-1.121-3e-3 -2.14-0.459-2.876-1.194-0.739-0.738-1.197-1.761-1.198-2.887h-2e-3v-0.016h2e-3c3e-3 -1.123 0.459-2.142 1.192-2.877l6e-3 -5e-3c0.738-0.737 1.758-1.194 2.883-1.196v-2e-3h0.015v2e-3c0.387 1e-3 0.761 0.055 1.117 0.156 0.522 0.149 1.002 0.4 1.414 0.728l0.167-0.167 1.212-1.211 3.03-3.031v-12.138l1.813-1.813 6.072-6.073v-25.538l-6.072-6.072-0.662-0.661-0.185-0.187v-35.57l-3.996-3.997-3.199-3.199v-14.764l-2.808-2.763-0.801-0.788-1.2-1.18-2.324-2.288-0.422-0.414-0.192-0.188v-11.136c-1.6-0.3-2.811-1.706-2.811-3.393 0-1.688 1.211-3.093 2.811-3.391v-6.419l-3.397-3.398-2.505-2.505-0.184-0.185v-143.19c-1.602-0.298-2.814-1.704-2.814-3.392 0-1.689 1.212-3.095 2.814-3.393v-65.064h1.271v65.065c0.524 0.098 1.006 0.315 1.418 0.62 0.849 0.629 1.399 1.636 1.399 2.772s-0.55 2.144-1.399 2.773" fill="#302e30"/></g><g transform="translate(367.08 189.99)" fill="#302e30"><path d="m0 0 4.015 4.015 1.512 1.513 0.189 0.187v19.082l1.092 1.093 2.871 2.87 0.186 0.187v45.473l1.785 1.787 5.916 5.917 0.188 0.186v36.671l0.607 0.608 2.663 2.662 0.187 0.188v38.939l-0.187 0.185-7.558 7.558v9.864l-1.816 1.816-4.842 4.843-10.332 10.332-3.21 3.211c0.379 0.555 0.602 1.225 0.602 1.947 0 1.137-0.553 2.146-1.403 2.774-0.573 0.424-1.282 0.675-2.05 0.675-1.904 0-3.45-1.545-3.45-3.449 0-1.907 1.546-3.453 3.45-3.453 0.725 0 1.393 0.222 1.948 0.602l0.102-0.102 4.011-4.012 2.324-2.323 12.85-12.85 0.539-0.54v-9.865l0.187-0.186 5.985-5.985 1.575-1.573v-37.88l-1.575-1.572-1.697-1.697-0.186-0.187v-36.671l-4.828-4.829-2.875-2.874-0.186-0.187v-45.473l-1.781-1.782-2.182-2.181-0.188-0.188v-19.081l-0.423-0.425-4.015-4.014-1.2-1.201-2.324-2.324-0.982-0.981-0.186-0.187v-187.1h1.276v186.58l2.216 2.216z" fill="#302e30"/></g><g transform="translate(174.5 349.76)" fill="#302e30"><path d="m0 0c0 0.774 0.316 1.477 0.824 1.984 0.509 0.507 1.209 0.823 1.978 0.825v-2e-3h0.016v2e-3c0.774 0 1.478-0.318 1.989-0.826 0.506-0.508 0.821-1.208 0.822-1.977h-1e-3v-0.016h1e-3c0-0.51-0.136-0.99-0.375-1.404l-0.289 0.289-0.451-0.45-0.452-0.452 0.319-0.319c-0.445-0.299-0.983-0.474-1.556-0.475v2e-3h-0.017v-2e-3c-0.772 0-1.476 0.316-1.984 0.825-0.507 0.508-0.823 1.209-0.824 1.98h1e-3v0.016zm-0.079-2.893c0.738-0.74 1.761-1.198 2.887-1.2v-2e-3h0.017v2e-3c0.928 2e-3 1.786 0.312 2.469 0.834l0.077-0.076 5.252-5.253 2.807-2.806v-8.211l-2.807-2.808-1.535-1.536c-0.555 0.378-1.225 0.601-1.946 0.601-1.905 0-3.45-1.546-3.45-3.45 0-1.907 1.545-3.452 3.45-3.452 1.907 0 3.454 1.545 3.454 3.452 0 0.724-0.222 1.394-0.603 1.949l4.527 4.527 0.186 0.187v9.27l-0.186 0.187-3.897 3.896-4.447 4.447c0.457 0.66 0.725 1.462 0.726 2.325h2e-3v0.016h-2e-3c-3e-3 1.122-0.46 2.14-1.194 2.875l-3e-3 3e-3c-0.738 0.737-1.76 1.195-2.887 1.197v2e-3h-0.016v-2e-3c-1.121-3e-3 -2.139-0.459-2.874-1.194-0.74-0.738-1.199-1.761-1.2-2.887h-2e-3v-0.016h2e-3c3e-3 -1.124 0.459-2.142 1.193-2.877" fill="#302e30"/></g><g transform="translate(211.27 287.45)" fill="#302e30"><path d="m0 0c1e-3 0.77 0.319 1.473 0.828 1.982l-1e-3 2e-3c0.281 0.281 0.623 0.502 1.001 0.644 0.303 0.115 0.633 0.179 0.975 0.18v-2e-3h0.017v2e-3c0.08 0 0.161-5e-3 0.242-0.012 0.678-0.058 1.29-0.358 1.744-0.814v-3e-3c0.163-0.163 0.306-0.346 0.426-0.545 0.252-0.419 0.398-0.909 0.4-1.429h-3e-3v-0.016h3e-3c-2e-3 -0.526-0.148-1.02-0.4-1.442-0.12-0.199-0.263-0.382-0.426-0.544-0.456-0.457-1.067-0.757-1.744-0.816-0.079-7e-3 -0.158-9e-3 -0.236-9e-3h-0.016c-0.346 0-0.676 0.062-0.982 0.177-0.38 0.142-0.722 0.366-1.004 0.648-0.506 0.507-0.821 1.209-0.824 1.98h3e-3v0.017zm-50.936 28.728c0.65 0 1.259 0.179 1.78 0.49l2.29-2.29v-13.449l0.185-0.185 7.408-7.407 0.187-0.186h4.903l0.225-0.226 7.809-7.808 3.568-3.568h9.128l1.124 1.124 3.802 3.8h7.373c0.179-0.74 0.558-1.398 1.076-1.918l6e-3 -6e-3c0.515-0.514 1.17-0.893 1.9-1.074 0.315-0.079 0.643-0.12 0.982-0.12v-1e-3h0.016v1e-3c0.078 0 0.157 2e-3 0.236 7e-3 0.809 0.048 1.556 0.332 2.17 0.783 0.168 0.123 0.325 0.258 0.471 0.404 0.739 0.738 1.198 1.762 1.2 2.89h3e-3v0.016h-3e-3c-3e-3 1.123-0.459 2.143-1.194 2.878l-2e-3 -1e-3c-0.147 0.146-0.306 0.282-0.475 0.405-0.615 0.452-1.361 0.736-2.17 0.785-0.081 5e-3 -0.162 7e-3 -0.242 7e-3v4e-3h-0.017v-4e-3c-0.336 0-0.662-0.043-0.975-0.12-0.731-0.182-1.385-0.559-1.9-1.073h-3e-3c-0.67-0.671-1.108-1.579-1.184-2.586h-7.533l-0.264 1e-3 -0.188-0.187-3.085-3.085-1.654-1.655h-8.068l-4.098 4.099-7.505 7.505h-4.904l-7.036 7.034v13.45l-0.184 0.184-2.424 2.422c0.452 0.584 0.718 1.318 0.718 2.112 0 1.903-1.545 3.45-3.452 3.45-1.905 0-3.451-1.547-3.451-3.45 0-1.907 1.546-3.452 3.451-3.452" fill="#302e30"/></g><g transform="translate(169.66 253.91)" fill="#302e30"><path d="m0 0c0 0.688 0.254 1.321 0.668 1.81l0.041-0.041 0.452 0.451 0.149 0.15c0.434 0.276 0.945 0.439 1.493 0.441v-3e-3h0.016v3e-3c0.12 0 0.238-9e-3 0.354-0.024 0.634-0.081 1.203-0.372 1.632-0.803v-4e-3c0.508-0.507 0.823-1.207 0.826-1.974h-3e-3v-0.016h3e-3c-1e-3 -0.775-0.318-1.48-0.826-1.987-0.43-0.429-0.999-0.722-1.632-0.803-0.113-0.014-0.231-0.022-0.349-0.022v3e-3h-0.015v-3e-3c-0.774 1e-3 -1.477 0.317-1.984 0.825s-0.823 1.21-0.825 1.981h2e-3v0.016zm-27.038 13.621c0.722 0 1.393 0.221 1.948 0.599l2e-3 2e-3 4.452-4.454 0.187-0.186h13.346l6.298-6.3 0.571-0.571c-0.641-0.721-1.037-1.67-1.037-2.711h-3e-3v-0.016h3e-3c2e-3 -1.124 0.459-2.141 1.193-2.878 0.739-0.739 1.76-1.198 2.887-1.2v-2e-3h0.015v2e-3c0.118 0 0.235 6e-3 0.349 0.015 0.986 0.086 1.87 0.521 2.53 1.181 0.738 0.737 1.198 1.759 1.199 2.888h3e-3v0.016h-3e-3c-2e-3 1.124-0.459 2.142-1.194 2.878l-1e-3 -1e-3c-0.66 0.66-1.547 1.097-2.534 1.183-0.116 0.01-0.235 0.016-0.354 0.016v2e-3h-0.016v-2e-3c-0.746-2e-3 -1.442-0.207-2.044-0.558l-7.146 7.147-0.186 0.187h-13.346l-4.267 4.267c0.379 0.553 0.601 1.225 0.601 1.948 0 1.183-0.597 2.226-1.505 2.847-0.554 0.38-1.224 0.603-1.948 0.603-1.905 0-3.45-1.545-3.45-3.45 0-1.906 1.545-3.452 3.45-3.452" fill="#302e30"/></g><g transform="translate(375.1 192.75)" fill="#302e30"><path d="m0 0 0.187 0.187v20.049l5.674 5.674v45.684l3.285 3.284 1.197 1.198 1.281 1.279 0.187 0.187v36.605l4.377 4.381 0.185 0.186v41.152l-0.185 0.184-1.553 1.554-6.834 6.834v9.729l-0.191 0.189-8.821 8.819-2.199 2.199v12.242l7.042 7.042 6.711 6.71 4.05 4.049 0.186 0.187v6.626l2.133 1.668c0.608-0.537 1.408-0.862 2.281-0.862 0.581 0 1.129 0.143 1.61 0.397 1.096 0.578 1.844 1.73 1.844 3.056 0 1.324-0.748 2.473-1.844 3.053-0.481 0.253-1.029 0.397-1.61 0.397-1.903 0-3.448-1.546-3.448-3.45 0-0.573 0.137-1.114 0.384-1.589l-2.379-1.859-0.247-0.192v-6.715l-9.671-9.671-4.843-4.842-3.289-3.289-0.187-0.186v-13.296l0.19-0.189 0.493-0.494 2.793-2.792 4.843-4.841 2.892-2.892v-9.733l3.819-3.819 4.184-4.183 0.575-0.575v-40.091l-3.361-3.361-1.02-1.022-0.187-0.186v-36.6l-0.191-0.191-1.074-1.075-4.498-4.496-0.185-0.185v-45.685l-5.488-5.488-0.187-0.185v-20.051l-0.122-0.121-2.793-2.793-4.015-4.014-1.2-1.2-0.168-0.167v-185.17h1.272v184.64l0.096 0.095 6.808 6.808z" fill="#302e30"/></g><g transform="translate(300.53 120.96)" fill="#302e30"><path d="m0 0 0.186 0.187v38.802h-1.277v-38.273l-5.921-5.922-2.331-2.331-0.185-0.183v-0.266l-0.453-106.11h-1.87v105.98l8.253 8.253 0.186 0.188v38.249h-1.276v-37.721l-2.324-2.325-3.61-3.609-2.318-2.319-0.188-0.187 2e-3 -0.265v-107.52h4.41l4e-3 0.635 0.455 106.48 1.245 1.244 6.974 6.976z" fill="#302e30"/></g><g transform="translate(182.31 278.15)" fill="#302e30"><path d="m0 0c1e-3 0.676 0.245 1.297 0.644 1.783l7e-3 -7e-3 0.431 0.432c0.476 0.374 1.074 0.598 1.722 0.601v-3e-3h0.015v3e-3c0.774-1e-3 1.477-0.319 1.987-0.828 0.508-0.508 0.823-1.209 0.826-1.976h-3e-3v-0.015h3e-3c-1e-3 -0.775-0.318-1.479-0.826-1.987-0.508-0.507-1.21-0.823-1.981-0.824v1e-3h-0.016v-1e-3c-0.773 0-1.476 0.317-1.984 0.824-0.507 0.509-0.822 1.211-0.825 1.98h3e-3v0.017zm-29.285 29.267c1.049 0 1.989 0.466 2.622 1.205l0.384-0.222 2.117-1.222v-11.095l0.187-0.187 5.488-5.486 0.185-0.186h8.656l0.177-0.176 4.476-4.478 4.736-4.736c-0.629-0.717-1.013-1.657-1.014-2.684h-3e-3v-0.017h3e-3c2e-3 -1.123 0.459-2.141 1.193-2.876 0.739-0.74 1.761-1.199 2.887-1.2v-3e-3h0.016v3e-3c1.124 2e-3 2.142 0.46 2.878 1.194 0.74 0.738 1.199 1.76 1.201 2.889h1e-3v0.015h-1e-3c-4e-3 1.125-0.46 2.144-1.195 2.88-0.737 0.736-1.76 1.194-2.89 1.195v3e-3h-0.015v-3e-3c-0.759-1e-3 -1.468-0.213-2.075-0.576l-5.722 5.722-3.937 3.938-0.187 0.186h-8.66l-5.113 5.111v11.301l-0.319 0.184-2.816 1.624c0.126 0.36 0.192 0.747 0.192 1.149 0 1.905-1.545 3.451-3.452 3.451-1.904 0-3.45-1.546-3.45-3.451 0-1.906 1.546-3.452 3.45-3.452" fill="#302e30"/></g></g><use transform="rotate(180 360 294.39)" width="100%" height="100%" xlink:href="#a"/><use id="b" transform="translate(720 -405)" width="100%" height="100%" xlink:href="#a"/><use transform="rotate(180,1440,80.035)" width="100%" height="100%" xlink:href="#b"/><use transform="translate(-720 -405)" width="100%" height="100%" xlink:href="#a"/></g></svg>
