<svg xmlns="http://www.w3.org/2000/svg" xmlns:xlink="http://www.w3.org/1999/xlink" width="16mm" height="16mm" viewBox="0 0 16 16"><g stroke="#000"><circle cy="8" cx="8" r="7.5" fill="none"/><g stroke-linecap="round"><g id="a" fill="none"><circle cx="3.963" cy="6.57" r=".872"/><path d="M.938 6.57h1.807M2.968 2.354v-.101 1.722M4.468 1.704v-.156 1.777"/><g><path d="M6.309 1.091v8.497a.265.265 135 01-.265.264H4.236"/><circle cx="3.355" cy="9.852" r=".872"/></g></g><path d="M9.265 3.81l-1.042.663A.482.482 0 008 4.88v6.24a.482.482 0 01-.223.407l-1.042.664M9.11 2.999a.874.874 0 01.572-.571c.139-.044.382-.044.52 0 .273.085.487.3.572.57.044.14.044.383 0 .522a.874.874 0 01-.571.571 1.058 1.058 0 01-.521 0 .874.874 0 01-.572-.57 1.058 1.058 0 010-.522zM6.891 13a.874.874 0 01-.572.571 1.058 1.058 0 01-.52 0 .874.874 0 01-.572-.57 1.058 1.058 0 010-.522.874.874 0 01.571-.571c.14-.044.382-.044.521 0 .272.085.487.3.572.57.043.14.043.383 0 .522z" fill="none"/><use xlink:href="#a" width="100%" height="100%" transform="rotate(180 8 8)"/></g></g></svg>