<?xml version="1.0" encoding="UTF-8" standalone="no"?>
<svg
   xmlns:dc="http://purl.org/dc/elements/1.1/"
   xmlns:cc="http://creativecommons.org/ns#"
   xmlns:rdf="http://www.w3.org/1999/02/22-rdf-syntax-ns#"
   xmlns:svg="http://www.w3.org/2000/svg"
   xmlns="http://www.w3.org/2000/svg"
   xmlns:sodipodi="http://sodipodi.sourceforge.net/DTD/sodipodi-0.dtd"
   xmlns:inkscape="http://www.inkscape.org/namespaces/inkscape"
   version="1.1"
   x="0px"
   y="0px"
   width="17.996"
   height="8"
   viewBox="0 0 17.996 8"
   xml:space="preserve"
   id="svg845"
   sodipodi:docname="VisualEditor_-_Icon_-_Link.svg"
   inkscape:version="1.0.1 (3bc2e813f5, 2020-09-07)"><metadata
   id="metadata851"><rdf:RDF><cc:Work
       rdf:about=""><dc:format>image/svg+xml</dc:format><dc:type
         rdf:resource="http://purl.org/dc/dcmitype/StillImage" /><dc:title></dc:title></cc:Work></rdf:RDF></metadata><defs
   id="defs849" /><sodipodi:namedview
   pagecolor="#ffffff"
   bordercolor="#666666"
   borderopacity="1"
   objecttolerance="10"
   gridtolerance="10"
   guidetolerance="10"
   inkscape:pageopacity="0"
   inkscape:pageshadow="2"
   inkscape:window-width="1920"
   inkscape:window-height="1017"
   id="namedview847"
   showgrid="false"
   fit-margin-top="0"
   fit-margin-left="0"
   fit-margin-right="0"
   fit-margin-bottom="0"
   inkscape:zoom="16.322382"
   inkscape:cx="10.088469"
   inkscape:cy="10.269483"
   inkscape:window-x="-8"
   inkscape:window-y="-8"
   inkscape:window-maximized="1"
   inkscape:current-layer="svg845" />
<g
   id="Icons"
   style="opacity:0.75"
   transform="translate(-3.004,-8)">
	<g
   id="link">
		<path
   id="right"
   d="m 19.188,12.001 c 0,1.1 -0.891,2.015 -1.988,2.015 L 13.005,14.001 C 13.543,15.089 13.968,16 15.002,16 h 3 C 19.658,16 21,13.657 21,12 21,10.343 19.658,8 18.002,8 h -3 c -1.034,0 -1.459,0.911 -1.998,1.999 l 4.195,-0.015 c 1.098,0 1.989,0.917 1.989,2.017 z" />
		<path
   id="center"
   d="m 8,12 c 0,0.535 0.42,1 0.938,1 h 6.109 c 0.518,0 0.938,-0.465 0.938,-1 0,-0.534 -0.42,-1 -0.938,-1 H 8.938 C 8.42,11 8,11.466 8,12 Z" />
		<path
   id="left"
   d="m 4.816,11.999 c 0,-1.1 0.891,-2.015 1.988,-2.015 L 11,9.999 C 10.461,8.911 10.036,8 9.002,8 h -3 c -1.656,0 -2.998,2.343 -2.998,4 0,1.657 1.342,4 2.998,4 h 3 c 1.034,0 1.459,-0.911 1.998,-1.999 l -4.195,0.015 c -1.098,0 -1.989,-0.917 -1.989,-2.017 z" />
	</g>
</g>
<g
   id="Guides"
   style="display:none"
   transform="translate(-3.004,-8)">
</g>
</svg>
