<?xml version="1.0" encoding="UTF-8"?>
<svg width="200" height="150" version="1.1" viewBox="0 0 52.917 39.688" xmlns="http://www.w3.org/2000/svg"><g><rect x="-11.225" y="-7.6172" width="77.642" height="53.053" style="fill:#7a4346;stroke-width:.5;stroke:#fff"/></g><g transform="matrix(1.0547 0 0 1.0547 11.578 .54169)" style="stroke-width:.79375;stroke:#fff"><path d="m25.496 22.872v11.62c0 0.13881-0.11175 0.25056-0.25056 0.25056h-22.65c-0.13881 0-0.25057-0.11175-0.25057-0.25056v-32.383c0-0.13881 0.11175-0.25057 0.25057-0.25057h22.65c0.13881 0 0.25056 0.11175 0.25056 0.25057v8.0397" style="fill:none;stroke-width:.79375;stroke:#fff"/><path d="m5.6224 7.0871h17.434" style="fill:none;stroke-width:.79375;stroke:#fff"/><path d="m5.6224 12.618h17.434" style="fill:none;stroke-width:.79375;stroke:#fff"/><path d="m5.6224 18.15h15.517" style="fill:none;stroke-width:.74885;stroke:#fff"/><path d="m5.6224 23.681h12.856" style="fill:none;stroke-width:.68161;stroke:#fff"/><path d="m5.6224 29.212h17.434" style="fill:none;stroke-width:.79375;stroke:#fff"/></g><g transform="matrix(.69786 .40291 -.52734 .91338 33.393 -12.016)" style="fill:none;stroke-width:.90808;stroke:#fff"><g transform="translate(-17.1 5.966)" style="fill:none;stroke-width:.90808;stroke:#fff"><path transform="matrix(.26458 0 0 .26458 14.828 -6.5006)" d="m92.404 37.26c-0.52465 0-0.94727 0.42262-0.94727 0.94726v78.148l8.2129 13.996 8.2148-13.996v-78.148c0-0.52465-0.42262-0.94726-0.94727-0.94726z" style="fill:none;stroke-width:3.4321;stroke:#fff"/><path d="m39.026 24.285h4.3467" style="fill:none;stroke-width:.90808;stroke:#fff"/><path d="m41.199 5.6224v18.757" style="fill:none;stroke-width:.90808;stroke:#fff"/><path d="m39.026 5.4216h4.3465" style="fill:none;stroke-width:.90808;stroke:#fff"/></g></g></svg>
