<?xml version="1.0" encoding="UTF-8" standalone="no"?>
<svg
   xmlns:dc="http://purl.org/dc/elements/1.1/"
   xmlns:cc="http://creativecommons.org/ns#"
   xmlns:rdf="http://www.w3.org/1999/02/22-rdf-syntax-ns#"
   xmlns:svg="http://www.w3.org/2000/svg"
   xmlns="http://www.w3.org/2000/svg"
   xmlns:sodipodi="http://sodipodi.sourceforge.net/DTD/sodipodi-0.dtd"
   xmlns:inkscape="http://www.inkscape.org/namespaces/inkscape"
   width="16mm"
   height="16mm"
   viewBox="0 0 16 16"
   version="1.1"
   id="svg8"
   inkscape:version="1.0.1 (3bc2e813f5, 2020-09-07)"
   sodipodi:docname="eecs logo attemptsvg.svg">
  <defs
     id="defs2">
    <inkscape:path-effect
       effect="mirror_symmetry"
       start_point="8,0"
       end_point="8,16"
       center_point="7.68,7.68"
       id="path-effect855"
       is_visible="true"
       lpeversion="1"
       mode="free"
       discard_orig_path="false"
       fuse_paths="false"
       oposite_fuse="false"
       split_items="false" />
    <inkscape:path-effect
       effect="ruler"
       id="path-effect853"
       is_visible="true"
       lpeversion="1"
       unit="px"
       mark_distance="20"
       mark_length="14"
       minor_mark_length="7"
       major_mark_steps="5"
       shift="0"
       offset="0"
       mark_dir="left"
       border_marks="both" />
    <inkscape:path-effect
       effect="powerstroke"
       id="path-effect851"
       is_visible="true"
       lpeversion="1"
       offset_points="2,0.51096499"
       sort_points="true"
       interpolator_type="CentripetalCatmullRom"
       interpolator_beta="0.2"
       start_linecap_type="zerowidth"
       linejoin_type="round"
       miter_limit="4"
       scale_width="1"
       end_linecap_type="zerowidth" />
    <inkscape:path-effect
       effect="gears"
       id="path-effect849"
       is_visible="true"
       lpeversion="1"
       teeth="10"
       phi="5"
       min_radius="5" />
  </defs>
  <sodipodi:namedview
     id="base"
     pagecolor="#ffffff"
     bordercolor="#666666"
     borderopacity="1.0"
     inkscape:pageopacity="0.0"
     inkscape:pageshadow="2"
     inkscape:zoom="5.6"
     inkscape:cx="6.6799351"
     inkscape:cy="40.115069"
     inkscape:document-units="mm"
     inkscape:current-layer="layer1"
     inkscape:document-rotation="0"
     showgrid="false"
     units="mm"
     inkscape:snap-bbox="true"
     inkscape:bbox-nodes="true"
     inkscape:snap-page="true"
     showguides="false"
     inkscape:snap-bbox-edge-midpoints="true"
     inkscape:window-width="1920"
     inkscape:window-height="1017"
     inkscape:window-x="-8"
     inkscape:window-y="-8"
     inkscape:window-maximized="1" />
  <metadata
     id="metadata5">
    <rdf:RDF>
      <cc:Work
         rdf:about="">
        <dc:format>image/svg+xml</dc:format>
        <dc:type
           rdf:resource="http://purl.org/dc/dcmitype/StillImage" />
        <dc:title></dc:title>
      </cc:Work>
    </rdf:RDF>
  </metadata>
  <g
     inkscape:label="Layer 1"
     inkscape:groupmode="layer"
     id="layer1">
    <path
       style="fill:#000000;stroke-width:0.0396388"
       d="M 6.7909436,15.919085 C 3.4868316,15.406889 0.83440209,12.888825 0.16494474,9.6287419 -0.56471063,6.0755155 1.1760897,2.4688623 4.4039439,0.84623124 5.56233,0.26391416 6.6873995,0 8.0114422,0 10.195706,0 12.17011,0.83432167 13.719864,2.4122025 c 1.309582,1.3333477 2.078902,3.04428 2.254842,5.0146615 0.137772,1.5429337 -0.293451,3.328863 -1.142572,4.732027 -1.090356,1.801802 -2.947195,3.158744 -4.9751316,3.635731 -0.9266901,0.217965 -2.1440927,0.267384 -3.0660588,0.124463 z m 2.0268914,-0.89466 0.1954868,-0.0248 v -4.431737 c 0,-4.8620704 -0.012688,-4.6138703 0.2436576,-4.7655986 0.10259,-0.060723 0.2461214,-0.070357 1.0482746,-0.070357 h 0.929414 l 0.09853,-0.1563838 c 0.129732,-0.2059174 0.368184,-0.4122656 0.600054,-0.5192665 0.272869,-0.1259201 0.813419,-0.1214571 1.077727,0.00884 0.42644,0.210317 0.70456,0.5753168 0.776676,1.0192913 0.09239,0.5688283 -0.196255,1.134992 -0.720545,1.4132914 -0.180521,0.095823 -0.253759,0.1093036 -0.59675,0.1098388 -0.325925,5.163e-4 -0.422549,-0.015127 -0.580712,-0.093999 C 11.639153,7.3886327 11.339226,7.0833655 11.247594,6.8600621 l -0.07362,-0.1794226 -0.607039,-1.55e-4 -0.6070385,-1.55e-4 v 4.0592245 4.059225 l 0.3395305,-0.116893 c 0.186741,-0.06429 0.408177,-0.146533 0.492079,-0.182759 l 0.15255,-0.06586 0.01207,-1.193419 0.01208,-1.19342 0.120384,-0.125842 c 0.142921,-0.149398 0.345801,-0.198138 0.521394,-0.125261 0.2453,0.101806 0.261549,0.169347 0.284212,1.18136 l 0.02058,0.918872 0.267509,-0.201629 0.267508,-0.201629 0.02058,-1.054624 0.02058,-1.054622 0.106897,-0.107024 c 0.141206,-0.141374 0.396151,-0.177868 0.560992,-0.0803 0.205281,0.121504 0.232964,0.205865 0.256678,0.782201 l 0.022,0.534726 0.128481,-0.163593 c 0.209402,-0.26663 0.570664,-0.842317 0.735961,-1.172787 0.158323,-0.316531 0.431946,-0.995424 0.431946,-1.071717 0,-0.02792 -0.248856,-0.04279 -0.716306,-0.04279 H 13.30129 l -0.104521,0.178706 c -0.134541,0.230035 -0.39377,0.463628 -0.637111,0.574108 -0.296927,0.13481 -0.777643,0.126835 -1.086085,-0.01802 -1.015394,-0.476856 -1.046189,-1.8907787 -0.05266,-2.4181536 0.180521,-0.095823 0.25376,-0.1093034 0.59675,-0.1098386 0.331307,-5.197e-4 0.421893,0.014637 0.593577,0.099303 0.243727,0.1201938 0.483519,0.3518737 0.599051,0.5787854 l 0.08486,0.1666587 h 0.839569 0.839568 l 0.03415,-0.2783495 C 15.06696,8.3576383 15.042322,7.2775325 14.962563,6.824659 14.7902,5.846039 14.411746,4.9076376 13.839986,4.0411649 13.407288,3.3854337 12.596888,2.5741155 11.933884,2.1329072 10.598845,1.2444765 9.0411428,0.82398819 7.5338004,0.94514053 c -0.3044433,0.0244683 -0.5776103,0.0444944 -0.6070385,0.0444944 -0.043576,0 -0.053512,0.83430607 -0.053512,4.49615227 0,4.7577678 0.00353,4.6664728 -0.1850274,4.8233988 -0.059253,0.04932 -0.2578526,0.06603 -0.9801925,0.08248 l -0.9058794,0.02062 -0.087016,0.155878 C 4.2516454,11.398402 3.1588282,11.535724 2.5335943,10.842289 2.2834403,10.564849 2.2030119,10.345167 2.2025457,9.9380577 2.2022166,9.6570675 2.2205491,9.5501186 2.29494,9.398861 2.4435839,9.0966214 2.655283,8.8810025 2.9424777,8.7393362 3.3033595,8.5613212 3.6979036,8.5554524 4.0695532,8.7225704 4.3394838,8.8439485 4.6041319,9.0947756 4.720703,9.3397124 L 4.789591,9.4844511 H 5.3581405 5.926691 V 5.3607514 c 0,-2.2680321 -0.010652,-4.1236945 -0.023683,-4.1236945 -0.01302,0 -0.2167409,0.075631 -0.4527061,0.1680749 L 5.0212746,1.5732066 V 2.5845083 3.5958099 L 4.8813469,3.7360157 C 4.7634614,3.8541345 4.7120948,3.8762215 4.5552706,3.8762215 c -0.152991,0 -0.2087027,-0.022596 -0.3127784,-0.1268825 L 4.1158573,3.6224556 v -0.739093 c 0,-0.5637974 -0.0122,-0.7390868 -0.051446,-0.739067 -0.028292,1.35e-5 -0.1579331,0.083787 -0.2880866,0.1861691 l -0.2366422,0.186143 -8.2e-5,0.7932083 C 3.5395189,4.2198968 3.509668,4.3358465 3.2415346,4.4671274 3.0488449,4.5614738 2.8537007,4.5101133 2.6973313,4.3239109 2.602414,4.2108793 2.593078,4.1659917 2.5928911,3.8215111 L 2.5926856,3.4432337 2.4908224,3.5669442 c -0.3929608,0.477246 -0.8768187,1.3316812 -1.1110791,1.962036 -0.079406,0.2136584 -0.1444586,0.3931092 -0.1445686,0.39878 -1.236e-4,0.00562 0.3285256,0.00999 0.7303032,0.00947 L 2.6959846,5.9364094 2.8194497,5.7268685 C 2.95326,5.4997712 3.1263236,5.3444953 3.4161992,5.1914541 3.6734424,5.0556416 4.2097321,5.051419 4.4951743,5.1829235 4.9446857,5.3900696 5.2547698,5.8272644 5.2990244,6.316292 5.353024,6.9129935 4.9640678,7.5041621 4.3922625,7.6944627 4.1124487,7.7875868 3.6250566,7.7582644 3.3834786,7.6337727 3.1358683,7.5061745 2.9105462,7.2914558 2.794758,7.072758 L 2.6961445,6.8864664 H 1.8634663 1.0307869 l -0.031646,0.113402 C 0.9817294,7.0622394 0.9675157,7.5215159 0.9675468,8.020483 c 4.154e-5,0.9238528 0.026787,1.1545455 0.2126315,1.8350443 0.5269486,1.9295537 1.8630247,3.5611177 3.6587082,4.4678687 0.8132131,0.410643 1.6450815,0.642376 2.6722716,0.744417 0.1955947,0.01943 1.0294753,-0.0083 1.3066769,-0.0435 z M 5.5562884,13.652105 C 5.1850458,13.538544 4.8793556,13.264658 4.710634,12.894433 4.614855,12.684274 4.6032909,12.613474 4.6163085,12.317116 4.6271271,12.070752 4.6567693,11.92696 4.7258517,11.785817 5.0778689,11.066566 5.9841241,10.799505 6.6458786,11.220011 L 6.8351483,11.34028 7.0085348,11.2517 c 0.095364,-0.04872 0.2428353,-0.132484 0.3277179,-0.186143 l 0.1543324,-0.09756 V 7.9225383 c 0,-2.995945 0.00135,-3.0471817 0.083372,-3.1516567 C 7.6198063,4.7124677 7.9809424,4.3927426 8.3764698,4.0603755 8.7719971,3.7280073 9.105225,3.4404831 9.1169749,3.4214328 9.1287279,3.4023846 9.1189476,3.3002628 9.0953273,3.1945009 9.043861,2.9643732 9.1016606,2.5812021 9.2240761,2.3407284 9.2684822,2.2534978 9.380024,2.1067869 9.4719355,2.0146917 c 0.5185356,-0.5195651 1.3654385,-0.5169092 1.8872305,0.00593 0.523138,0.5241789 0.521056,1.3854479 -0.0046,1.8965791 -0.226046,0.2198078 -0.417937,0.3170339 -0.720947,0.365288 -0.255522,0.040687 -0.515616,0.015022 -0.760021,-0.075007 L 9.7256165,4.1529586 9.061936,4.7053426 8.3982555,5.2577266 8.3969057,8.3298795 c -0.00125,2.8483205 -0.00654,3.0807535 -0.073145,3.1902085 -0.046981,0.07725 -0.235389,0.207484 -0.545089,0.376787 l -0.4732843,0.258729 -0.027368,0.271631 c -0.076073,0.755144 -0.6237845,1.269126 -1.3425901,1.259904 -0.1519392,-0.002 -0.3225536,-0.01771 -0.3791416,-0.03502 z m 0.5773039,-0.938922 c 0.1586578,-0.109569 0.2019229,-0.185227 0.2033349,-0.355579 0.00291,-0.350142 -0.4275751,-0.535222 -0.6729729,-0.289338 -0.1397439,0.140022 -0.1717719,0.271457 -0.1053195,0.432207 0.057218,0.138404 0.2559008,0.28258 0.3897588,0.282827 0.045891,8.2e-5 0.1292326,-0.03147 0.1851987,-0.07012 z M 10.618805,3.3127591 c 0.23777,-0.1407332 0.274353,-0.4331562 0.07871,-0.6291855 -0.265316,-0.2658429 -0.696471,-0.075059 -0.696471,0.3081808 0,0.1480196 0.242352,0.3896761 0.390797,0.3896761 0.06102,0 0.163151,-0.030897 0.226962,-0.068671 z M 3.7860691,10.237073 C 3.958137,10.079987 3.9825796,9.9139309 3.8603459,9.7324648 3.6940268,9.4855511 3.4266679,9.4624374 3.227515,9.6777545 3.0003418,9.9233651 3.183057,10.350475 3.5152933,10.350475 c 0.1023304,0 0.1840442,-0.03422 0.2707758,-0.113402 z M 12.3089,9.8588033 C 12.50668,9.6606309 12.456274,9.3503257 12.204209,9.2143097 11.977386,9.0919151 11.672987,9.2432576 11.624438,9.5025618 11.551272,9.8933392 12.027212,10.141051 12.3089,9.8588033 Z M 4.1288521,6.7992711 C 4.5171313,6.6003082 4.391435,6.020595 3.9600152,6.020595 3.6634554,6.020595 3.4656876,6.3349168 3.5993255,6.5938572 3.7072417,6.8029601 3.9431,6.894454 4.1288521,6.7992711 Z M 12.768731,6.5561269 c 0.348064,-0.3827768 -0.223803,-0.9052558 -0.589627,-0.5387038 -0.148436,0.1487291 -0.161172,0.3523568 -0.0323,0.5165086 0.174802,0.2226666 0.431315,0.2318214 0.621932,0.0222 z"
       id="path889"
       sodipodi:nodetypes="sssssssssccssscsscsscsscccccsscccssscccccssscsssscssssssscccccssssscccsscsssscccssscccssccsssccssscsscccsscssscccccccsscccsscsccscscsscsscssscccccscscccccssscsssssscssscsssssssscsscc" />
  </g>
</svg>
