<svg xmlns="http://www.w3.org/2000/svg" width="16mm" height="16mm" viewBox="0 0 16 16"><path d="M6.79 15.92C3.488 15.406.835 12.888.166 9.628c-.73-3.553 1.011-7.16 4.239-8.783C5.562.264 6.687 0 8.01 0c2.185 0 4.16.834 5.709 2.412 1.31 1.334 2.079 3.044 2.255 5.015.137 1.543-.294 3.329-1.143 4.732-1.09 1.802-2.947 3.159-4.975 3.636-.927.218-2.144.267-3.066.124zm2.028-.896L9.013 15v-4.432c0-4.862-.012-4.614.244-4.766.103-.06.246-.07 1.048-.07h.93l.098-.156c.13-.206.368-.413.6-.52.273-.126.814-.121 1.078.01.426.21.705.574.777 1.018a1.359 1.359 0 01-.72 1.414c-.181.096-.255.109-.598.11-.326 0-.422-.016-.58-.094-.25-.125-.55-.43-.642-.654l-.074-.18H9.96V14.8l.34-.117a9.45 9.45 0 00.492-.183l.152-.066.012-1.193.012-1.194.12-.125a.47.47 0 01.522-.126c.245.102.262.17.284 1.182l.02.919.268-.202.268-.202.02-1.054.021-1.055.107-.107a.491.491 0 01.56-.08c.206.121.234.206.258.782l.022.535.128-.164c.21-.267.57-.842.736-1.173.158-.316.432-.995.432-1.071 0-.028-.249-.043-.716-.043H13.3l-.104.178c-.135.23-.394.464-.637.575-.297.134-.778.126-1.086-.018-1.016-.477-1.047-1.891-.053-2.419.18-.095.254-.109.597-.11.331 0 .422.015.593.1.244.12.484.352.6.579l.084.166h1.68l.033-.278c.059-.477.034-1.557-.045-2.01A7.358 7.358 0 0013.84 4.04c-.433-.656-1.243-1.467-1.906-1.908C10.599 1.244 9.04.824 7.534.945 7.229.97 6.956.99 6.927.99c-.044 0-.054.834-.054 4.496 0 4.758.004 4.666-.185 4.823-.059.05-.258.066-.98.083l-.906.02-.087.156c-.463.83-1.556.968-2.181.274-.25-.277-.331-.497-.331-.904 0-.28.018-.388.092-.54.149-.301.36-.517.647-.659.361-.178.756-.184 1.128-.016.27.12.534.372.65.617l.07.144h1.137V5.361c0-2.268-.011-4.124-.024-4.124-.013 0-.217.076-.453.168l-.429.168V3.595l-.14.141c-.118.118-.169.14-.326.14-.153 0-.208-.022-.313-.127l-.126-.127v-.739c0-.563-.012-.739-.052-.739-.028 0-.158.084-.288.186l-.236.187v.793c0 .91-.03 1.026-.298 1.157-.193.094-.388.043-.545-.143-.095-.113-.104-.158-.104-.502v-.379l-.102.124c-.393.477-.877 1.332-1.111 1.962-.08.214-.145.393-.145.399 0 .005.329.01.73.01l.731-.002.123-.21c.134-.226.307-.382.597-.535.257-.135.794-.14 1.08-.008.449.207.759.644.803 1.133a1.356 1.356 0 01-.907 1.378c-.28.094-.767.064-1.009-.06a1.433 1.433 0 01-.588-.561l-.099-.187H1.031L.999 7c-.017.062-.031.522-.031 1.02 0 .924.026 1.155.212 1.836a7.127 7.127 0 003.659 4.467c.813.411 1.645.643 2.672.745.196.02 1.03-.008 1.307-.044zm-3.262-1.372a1.378 1.378 0 01-.845-.758c-.096-.21-.108-.28-.095-.577.011-.246.04-.39.11-.531.352-.72 1.258-.986 1.92-.566l.19.12.173-.088a5 5 0 00.327-.186l.155-.098V7.923c0-2.996 0-3.048.083-3.152.046-.059.407-.378.802-.71.396-.333.73-.62.741-.64.012-.019.002-.12-.022-.226-.051-.23.007-.614.13-.854.043-.088.155-.234.247-.326a1.334 1.334 0 011.887.006 1.34 1.34 0 01-.004 1.896c-.226.22-.418.317-.721.365-.256.041-.516.016-.76-.075l-.148-.054-.664.552-.664.553-.001 3.072c-.001 2.848-.007 3.08-.073 3.19-.047.077-.236.208-.545.377l-.474.259-.027.271c-.076.755-.624 1.27-1.343 1.26a1.949 1.949 0 01-.379-.035zm.578-.939c.158-.11.202-.185.203-.355.003-.35-.428-.536-.673-.29-.14.14-.172.272-.105.432.057.139.256.283.39.283.045 0 .129-.031.185-.07zm4.485-9.4a.389.389 0 00.079-.63c-.266-.265-.697-.074-.697.309 0 .148.242.39.39.39.062 0 .164-.031.228-.07zm-6.833 6.924c.172-.157.197-.323.074-.505-.166-.246-.433-.27-.632-.054-.228.245-.045.672.287.672a.378.378 0 00.271-.113zm8.523-.378c.198-.198.147-.509-.105-.645-.227-.122-.531.03-.58.289-.073.39.403.638.685.356zm-8.18-3.06c.388-.199.262-.778-.169-.778-.297 0-.494.314-.36.573.107.209.343.3.529.205zm8.64-.243c.348-.383-.224-.905-.59-.539a.374.374 0 00-.032.517c.175.223.431.232.622.022z"/></svg>