<?xml version="1.0" encoding="UTF-8"?>
<svg width="16mm" height="16mm" version="1.1" viewBox="0 0 16 16" xmlns="http://www.w3.org/2000/svg" xmlns:cc="http://creativecommons.org/ns#" xmlns:dc="http://purl.org/dc/elements/1.1/" xmlns:rdf="http://www.w3.org/1999/02/22-rdf-syntax-ns#" xmlns:xlink="http://www.w3.org/1999/xlink"><metadata><rdf:RDF><cc:Work rdf:about=""><dc:format>image/svg+xml</dc:format><dc:type rdf:resource="http://purl.org/dc/dcmitype/StillImage"/><dc:title/></cc:Work></rdf:RDF></metadata><circle transform="matrix(1.0176 0 0 1.0176 -.077304 -.077304)" cx="7.9375" cy="7.9375" r="7.4265" fill="none" stroke="#000" stroke-width=".87"/><g id="a"><circle cx="3.9633" cy="6.5697" r=".87158" fill="none" stroke="#000" stroke-linecap="round"/><path d="m0.93802 6.5697h1.8072" fill="none" stroke="#000"/><path d="m2.9676 2.3542v-0.10146 1.7221" fill="none" stroke="#000" stroke-linecap="round"/><path d="m4.4676 1.7042v-0.15575 1.7764" fill="none" stroke="#000" stroke-linecap="round"/><path d="m6.3088 1.0915v8.4962a0.26458 0.26458 135 0 1-0.26458 0.26458h-1.8084" fill="none" stroke="#000" stroke-linecap="round"/><circle cx="3.3546" cy="9.8523" r=".87158" fill="none" stroke="#000" stroke-linecap="round"/></g><g transform="rotate(180 7.8265 6.782)"><path d="m6.3882 9.7546 1.0418-0.66355c0.139-0.088536 0.22316-0.24192 0.22316-0.40672l5e-7 -3.1204 4e-7 -3.1204c0-0.1648 0.08416-0.31819 0.22316-0.40672l1.0418-0.66355m-2.3742 9.1918c-0.085038 0.27179-0.29959 0.48634-0.57137 0.57138-0.13893 0.04347-0.38224 0.04347-0.52116 4e-6 -0.27179-0.08504-0.48634-0.29958-0.57138-0.57137-0.043472-0.13893-0.043471-0.38224-4.5e-6 -0.52116 0.085038-0.27179 0.29959-0.48634 0.57137-0.57138 0.13893-0.043472 0.38224-0.043471 0.52116-4.5e-6 0.27179 0.085038 0.48634 0.29959 0.57138 0.57137 0.043472 0.13893 0.043471 0.38224 4.4e-6 0.52116zm2.2185-10.002c0.085038-0.27179 0.29959-0.48634 0.57137-0.57138 0.13893-0.043472 0.38224-0.043471 0.52116-4.41e-6 0.27179 0.085038 0.48634 0.29959 0.57138 0.57137 0.04347 0.13893 0.04347 0.38224 4e-6 0.52116-0.08504 0.27179-0.29958 0.48634-0.57137 0.57138-0.13893 0.043472-0.38224 0.043471-0.52116 4.5e-6 -0.27179-0.085038-0.48634-0.29959-0.57138-0.57137-0.043472-0.13893-0.043471-0.38224-4.4e-6 -0.52116z" fill="none" stroke="#000"/></g><use transform="rotate(180 8 8)" width="100%" height="100%" xlink:href="#a"/></svg>
