<svg version="1" xmlns="http://www.w3.org/2000/svg" width="933.333" height="933.333" viewBox="0 0 700.000000 700.000000"><path d="M327.8.4c-.1.2-4.1.6-8.8 1-8.7.7-10.5.9-22.5 2.7-11.6 1.8-12.3 1.9-19.2 3.5-14.9 3.3-20.3 4.7-31.3 8.1-23.1 7.1-51.9 19.8-70.4 30.9-4.9 3-9.1 5.4-9.4 5.4-.9 0-22.9 15.4-31.2 21.9-48.5 37.6-87.1 89-110 146.1-6.4 16.1-14.2 41.2-16.5 53.1-.3 1.3-1.1 5.8-2 9.9-2.9 14.7-3.5 19.3-5.2 37-1.5 16.2-.8 59.2 1.2 71.1.2 1.3.6 4.6.9 7.4.9 7.8 2.2 15.2 5.1 28.5 2.1 9.6 9.1 33.9 11.4 39.5.5 1.1 3 7.5 5.5 14.2 5.4 14 18.1 39.4 24.9 50.1 2.6 4 4.7 7.6 4.7 8.1s.3 1.1.8 1.3c.4.2 3.3 4.1 6.4 8.8 5.2 7.8 21.4 28.5 26.3 33.6 31.2 32.8 49.9 48.2 84 69.1 15 9.3 44.4 22.7 64.2 29.4 9.7 3.3 30.2 9.1 36.7 10.5 8.8 1.9 21 4.1 27.1 4.9 2.2.2 5.6.7 7.5 1 18.7 2.6 69.7 2.7 83.8 0 1.6-.3 10.4-1.5 14.7-2 12.8-1.7 40.1-8.7 58.8-15.2 55.6-19.2 107.6-54 145.6-97.2 3.1-3.5 6.3-7.1 7.1-8 2.8-3 14.7-18.6 20.2-26.6 10.9-15.7 24.1-39.2 31.2-55.5 1.6-3.6 3.6-8.3 4.6-10.5 5.4-12.3 14.7-41.8 17.6-56 1.6-7.7 5.4-30.1 6-35 .4-3.3.9-7.6 1.1-9.5.8-6.9 1-51.7.2-59.5-1.5-16.2-2.1-22-2.4-22.5-.2-.3-.6-3-1-6-.9-7.5-6.9-33.7-9.8-43.5-10.8-35.3-24.1-63.6-44.3-94C598.3 91.6 535 42.9 461.5 18.2c-16.8-5.7-42-11.9-55.5-13.7-1.9-.3-4.6-.7-6-1-1.3-.2-5.4-.7-9-1.1-3.6-.3-7.6-.8-9-1.1-2.7-.5-53.6-1.4-54.2-.9zm42.2 44c5.2.3 13.1 1.1 17.5 1.7 7.5 1 9.7 1.3 17 2.5 69.4 11.5 140.4 53.9 184.4 109.9 3.4 4.4 6.9 8.8 7.7 9.8.8 1 4.1 5.7 7.3 10.5 23.3 34.9 39.4 73.8 46.6 112.7 1 4.9 1.8 9.7 2 10.5 3.9 20.7 4.7 62.2 1.7 83.5l-.7 5h-70.8l-3.1-5.8c-10-18.8-28.8-30.8-50.1-32-23.5-1.3-46.1 12.2-56.5 33.6-2.1 4.5-4.2 9.8-4.5 11.7-.3 1.9-.8 4.3-1.1 5.3-.7 2.2-.7 16.4 0 19.6 3 13.6 7.9 22.5 17.5 32.1 28.2 27.9 73.5 21.6 93.7-13l4.4-7.5 30.1-.1c16.5 0 30.2.3 30.5.8.7 1.1-6.9 23.3-12.3 35.8-5.1 11.8-13.4 28.3-14.5 28.8-.5.2-.8.8-.8 1.3 0 1.3-11 18.6-17.9 28.3l-5.6 7.9-.6-8.9c-.6-9.7-2-13.3-7-18.2-5.9-5.8-16.5-7.4-24.3-3.7-4 1.9-9.1 7.3-10.9 11.4-.7 1.7-1.1 13.4-1.2 34.1l-.2 31.5-10.4 8.2c-5.7 4.5-10.6 8.2-10.9 8.3-.3 0-.5-10-.5-22.3 0-27.6-.5-31.2-5.2-36.6-4.7-5.6-9.9-8.1-16.5-8.1-9 .1-15.9 4.3-20 12.3-2.1 4.1-2.1 5.3-2.2 42.5l-.1 38.3-6.3 3c-3.5 1.6-6.5 2.9-6.8 2.9-.3 0-2.4.8-4.7 1.9-2.3 1-7.5 3-11.4 4.5L446 641v-6.8c-.2-99.2 0-342.6.4-342.9.4-.5 9.9-.5 39.1-.4l12 .1 3 6.3c4.3 9 15.7 20.1 25.7 25 10.6 5.1 18.2 6.7 29.8 6.3 42.2-1.7 69-45.5 51.6-84.7-13.5-30.7-50.9-43.5-81.9-28.2-9.4 4.7-21 16.1-25.2 25l-3 6.2-32.5.1c-17.9.1-33.2.3-34.1.5-11.5 2.2-20.8 9.2-25.7 19.3l-2.7 5.7-.3 189.7c-.2 149.7-.5 189.8-1.5 189.9-.6.1-2.1.3-3.2.4-34.9 4.7-58 5-88 1-114.7-15.4-210.9-94-249-203.5-3.7-10.7-9-29.7-10-36-.3-1.9-.8-4.2-1-5-1.1-3.7-3.1-17.4-4-26.5-.3-3.3-.8-8-1-10.5-1.2-11.7-.5-42.9 1.3-57l.7-5.5 35.3-.1 35.3-.2 2.1 4.2c10.1 20.2 31.5 33.8 53.1 33.8 17.3 0 31.4-5.8 43.2-17.6 18.6-18.8 22.9-45.4 11.2-69.4-3.9-7.9-13.9-19-21.5-23.6-19.7-12-45.3-11.8-63.9.3-9.7 6.4-16.8 14.2-21.8 24l-2.3 4.6H86.9c-21 0-30.3-.3-30.6-1.1-.2-.6 1.9-7.6 4.8-15.5 2.8-7.9 5.6-15.9 6.3-17.7.6-1.7 1.4-3.2 1.8-3.2.5 0 .8-.7.8-1.6 0-4.2 19.8-39 31.4-55.4l6.1-8.4.6 8.9c.6 9.9 2.1 13.7 7.1 18.4 5.6 5.3 15.7 7.1 22.9 4.3 4-1.6 8.8-6.1 11.2-10.6 2.1-3.9 2.2-5.3 2.3-35.5l.1-31.4 5.9-4.9c7.6-6.4 13.6-10.6 14.9-10.4.6.1 1 9.4 1.1 24.1.1 26.9.7 29.8 7.5 36.1 10.7 10 28 6.1 34.2-7.6 1.9-4.3 2-6.5 2.1-42.5l.1-37.9 11.5-4.9c12.2-5.3 24.3-9.8 24.8-9.2.3.2.4 285.4.2 339.7v9.8h-25.7l-25.8-.1-3-6.2c-6.5-13.6-23.3-26.5-39.5-30.2-7.8-1.7-23.4-1.3-30.1.8-19 6.2-33.5 20.1-40 38.7-3.1 8.7-3.4 27.6-.6 36 4 12.1 10.6 22.1 19.5 29.3 5 4.1 18.7 11.2 23.7 12.2 14 2.9 29.1 1 41.5-5.2 9.7-4.9 21.2-16.1 25.5-25l3-6.2 31.8-.2c34.4-.2 33.6-.1 38.7-1.3 7.8-1.8 17.1-9 20.7-16 4.3-8.2 4.3-5.1 4.3-200.5 0-102.6.2-186.6.4-186.8.2-.2 1.8-.6 3.7-.8 1.9-.2 6.7-.9 10.8-1.5 4.1-.6 13.1-1.3 20-1.6 6.9-.4 12.7-.7 12.8-.8.3-.2 14.8.3 24.3.8zM559.5 254c8.7 3.3 12.6 14.9 7.7 23.2-4.3 7.3-15.5 10.2-22.1 5.6-5.8-3.9-7.6-7.2-7.6-13.8 0-6.6 1.8-9.9 7.5-13.8 3.6-2.4 9.9-2.9 14.5-1.2zm-377.2 20c6.4 4.4 9 13.6 5.6 20.4-5.8 11.9-23.1 12.1-28.8.2-2.4-4.9-2.6-8.4-.7-12.9 4.2-9.8 15.4-13.5 23.9-7.7zm353.4 125.2c3.8 2.6 7.3 9 7.3 13.3 0 4.4-3.8 11.2-7.4 13.4-4.6 2.9-10.4 3.6-14.7 1.7-4-1.7-9.9-7.8-10-10.4 0-.9-.2-2.6-.4-3.7-1.1-5.6 3.1-12.3 10-15.8 4-2.1 10.9-1.4 15.2 1.5zm-380.7 18c5.7 3.9 7.5 7.2 7.5 13.7 0 4.8-.5 6.4-2.8 9.4-3.5 4.6-7.4 6.7-12.7 6.7-13 0-20.8-14.1-13.8-24.8 4.8-7.2 15.1-9.5 21.8-5z"/><path d="M423.5 83.7c-20.7 4.6-37.5 19-44.8 38.3-3.1 8.3-4.2 22.9-2.3 32.6.7 4 .6 4.2-3.1 6.5-14.1 8.6-30 19.6-33.2 22.9-4.6 4.9-8.9 12.6-10.6 19-1 3.9-1.3 34.3-1.3 143.6 0 114-.3 138.9-1.4 139.9-.7.7-7.8 5.4-15.7 10.5l-14.4 9.1-6.8-3.1c-26.6-12.2-58.2-3.3-74.5 21.1-11.2 17-13 40.9-4.4 59.1 4.6 9.7 15.1 20.8 25.1 26.5 11.5 6.5 30.6 9 43.4 5.7 22.5-5.9 39.2-23.2 44-45.6 1.3-6 1.3-20 .1-25.4-.7-3.1-.7-3.1 14.9-13 8.6-5.4 17.9-12 20.5-14.6 5.2-5.1 10.3-14.5 11.9-21.7.6-2.7 1-58.5 1-142.9 0-76.1.1-138.5.3-138.6.2-.1 7.2-4.6 15.6-10l15.4-9.7 8.2 3.5c5.5 2.4 10.6 3.8 15.6 4.3 9.1.9 8 .9 16.2 0 18.4-2 38.2-16.3 45.6-33 .7-1.5 1.6-3.7 2.2-5 3.2-7.2 4.4-23.6 2.6-33.7-2.6-14.2-13.2-29.2-26.5-37.8-9.8-6.4-16.7-8.4-30.1-8.7-6.3-.1-12.4-.1-13.5.2zm21.3 46.2c9.3 6.6 7.6 22.3-3 27.1-7.7 3.4-17.5.3-21.2-6.8-2.2-4.2-1.5-13.1 1.2-17 5.2-7.2 15.5-8.7 23-3.3zM272 542.8c5.3 2.1 9 8.1 9 14.4 0 9.3-6.5 15.8-15.7 15.8-6.2 0-8.7-1-12.5-5.3-2.9-3.2-4.5-9.8-3.3-14.4 2.3-9.3 13.2-14.4 22.5-10.5z"/></svg>